<svg xmlns="http://www.w3.org/2000/svg" xmlns:xlink="http://www.w3.org/1999/xlink" width="1200" zoomAndPan="magnify" viewBox="0 0 900 599.999999" height="800" preserveAspectRatio="xMidYMid meet" version="1.0"><defs><g/><clipPath id="3203545aa4"><path d="M 636 64 L 718.707031 64 L 718.707031 117 L 636 117 Z M 636 64 " clip-rule="nonzero"/></clipPath><clipPath id="20ea8ca6ee"><path d="M 196 77 L 698 77 L 698 325.882812 L 196 325.882812 Z M 196 77 " clip-rule="nonzero"/></clipPath><clipPath id="2ffa9bde1b"><rect x="0" width="433" y="0" height="73"/></clipPath><clipPath id="53c99e1d9a"><path d="M 213.164062 311.257812 L 711.164062 311.257812 L 711.164062 585.007812 L 213.164062 585.007812 Z M 213.164062 311.257812 " clip-rule="nonzero"/></clipPath></defs><path fill="#a1aab3" d="M 638.316406 101.429688 C 636.523438 103.757812 632.675781 103.511719 630.585938 101.902344 C 628.085938 99.964844 627.890625 97.023438 629.078125 94.300781 C 631.382812 89.015625 633.617188 83.707031 635.894531 78.394531 C 643.769531 59.964844 651.945312 41.480469 663.378906 24.917969 C 664.84375 22.148438 668.792969 21.21875 671.4375 22.8125 C 678.828125 27.300781 685.539062 32.953125 691.097656 39.582031 C 692.953125 41.792969 693.738281 45.808594 691.097656 47.917969 C 686.765625 51.371094 682.515625 54.941406 678.371094 58.628906 C 663.730469 71.617188 650.324219 85.96875 638.316406 101.429688 Z M 638.316406 101.429688 " fill-opacity="1" fill-rule="nonzero"/><g clip-path="url(#3203545aa4)"><path fill="#a1aab3" d="M 713.792969 97.21875 C 690.652344 103.65625 667.523438 110.105469 644.386719 116.539062 C 641.546875 117.335938 638.578125 115.792969 637.453125 113.136719 C 636.351562 110.546875 637.269531 107.171875 639.859375 105.785156 C 661.703125 94.09375 682.308594 80.199219 701.980469 65.15625 C 703.015625 64.359375 704.257812 64.164062 705.472656 64.347656 C 706.714844 64.476562 707.878906 65.050781 708.808594 65.902344 C 709.292969 66.308594 709.710938 66.777344 710.039062 67.277344 C 710.417969 67.863281 710.652344 68.480469 710.769531 69.09375 C 713.136719 76.054688 715.519531 83.011719 717.898438 89.972656 C 718.933594 92.992188 716.710938 96.394531 713.792969 97.21875 Z M 713.792969 97.21875 " fill-opacity="1" fill-rule="nonzero"/></g><g clip-path="url(#20ea8ca6ee)"><path fill="#a1aab3" d="M 697.113281 214.359375 C 697.0625 222.613281 696.199219 231.414062 690.976562 238.164062 C 685.273438 245.554688 676.234375 247.597656 667.367188 248.171875 C 657.386719 248.839844 647.367188 248.984375 637.371094 249.375 C 616.300781 250.1875 595.226562 250.984375 574.152344 251.796875 C 534.085938 253.339844 494.015625 254.882812 453.964844 256.414062 C 456.449219 277.148438 458.933594 297.878906 461.417969 318.601562 C 461.457031 318.785156 461.472656 318.980469 461.484375 319.164062 C 461.523438 319.464844 461.5625 319.765625 461.601562 320.078125 C 461.996094 323.347656 458.582031 325.835938 455.714844 325.964844 C 453.519531 326.058594 451.898438 324.878906 450.890625 323.230469 C 450.746094 323.0625 450.601562 322.890625 450.472656 322.707031 C 446.453125 317.34375 442.542969 311.902344 438.738281 306.410156 C 426.859375 289.300781 415.726562 271.707031 403.390625 254.921875 C 394.222656 254.425781 385.039062 253.929688 375.871094 253.417969 C 334.101562 251.140625 292.335938 248.851562 250.566406 246.578125 C 245.230469 246.289062 239.894531 246 234.542969 245.699219 C 230.460938 245.464844 226.273438 245.164062 222.324219 244.050781 C 213.273438 241.527344 207.675781 234.671875 206.027344 225.542969 C 204.207031 215.429688 203.4375 205.042969 202.207031 194.839844 C 200.9375 184.375 199.679688 173.910156 198.414062 163.460938 C 196.449219 147.226562 193.691406 128.820312 202.585938 114.027344 C 211.753906 98.773438 229.597656 95.035156 246.027344 93.554688 C 266.367188 91.738281 286.773438 90.496094 307.140625 89.027344 C 327.992188 87.523438 348.855469 86.085938 369.722656 84.75 C 411.4375 82.109375 453.179688 79.925781 494.972656 78.722656 C 536.726562 77.519531 578.519531 77.296875 620.273438 78.539062 C 636.535156 79.007812 653.265625 79.742188 668.308594 86.582031 C 675.4375 89.828125 681.625 94.785156 686.296875 101.078125 C 691.476562 108.0625 694.132812 116.617188 695.335938 125.144531 C 696.640625 134.316406 696.617188 143.550781 696.683594 152.785156 C 696.761719 163.183594 696.824219 173.570312 696.902344 183.972656 C 696.984375 194.097656 697.164062 204.234375 697.113281 214.359375 Z M 697.113281 214.359375 " fill-opacity="1" fill-rule="nonzero"/></g><path fill="#ffffff" d="M 684.484375 193.648438 C 684.429688 201.90625 683.566406 210.707031 678.347656 217.457031 C 672.644531 224.847656 663.605469 226.890625 654.738281 227.464844 C 644.757812 228.132812 634.738281 228.277344 624.742188 228.667969 C 603.667969 229.480469 582.597656 230.277344 561.523438 231.085938 C 521.457031 232.632812 481.386719 234.175781 441.335938 235.707031 C 443.820312 256.4375 446.304688 277.171875 448.789062 297.894531 C 448.828125 298.074219 448.84375 298.273438 448.855469 298.457031 C 448.894531 298.757812 448.933594 299.058594 448.972656 299.371094 C 449.367188 302.640625 445.953125 305.125 443.085938 305.257812 C 440.890625 305.347656 439.265625 304.171875 438.261719 302.523438 C 438.117188 302.351562 437.972656 302.183594 437.839844 302 C 433.824219 296.636719 429.914062 291.195312 426.109375 285.699219 C 414.230469 268.589844 403.097656 250.996094 390.761719 234.214844 C 381.59375 233.71875 372.410156 233.21875 363.238281 232.710938 C 321.472656 230.433594 279.703125 228.144531 237.9375 225.867188 C 232.601562 225.582031 227.261719 225.292969 221.914062 224.992188 C 217.832031 224.757812 213.644531 224.457031 209.695312 223.34375 C 200.644531 220.820312 195.042969 213.964844 193.394531 204.835938 C 191.578125 194.722656 190.804688 184.335938 189.578125 174.132812 C 188.308594 163.667969 187.050781 153.203125 185.78125 142.753906 C 183.820312 126.519531 181.0625 108.113281 189.957031 93.320312 C 199.125 78.066406 216.96875 74.324219 233.398438 72.847656 C 253.738281 71.027344 274.144531 69.785156 294.511719 68.320312 C 315.363281 66.816406 336.226562 65.378906 357.09375 64.042969 C 398.808594 61.402344 440.550781 59.214844 482.34375 58.011719 C 524.097656 56.808594 565.890625 56.585938 607.644531 57.828125 C 623.90625 58.300781 640.636719 59.035156 655.679688 65.875 C 662.808594 69.117188 668.996094 74.078125 673.664062 80.367188 C 678.847656 87.355469 681.5 95.910156 682.703125 104.4375 C 684.011719 113.609375 683.988281 122.84375 684.050781 132.078125 C 684.128906 142.476562 684.195312 152.863281 684.273438 163.261719 C 684.351562 173.386719 684.535156 183.527344 684.484375 193.648438 Z M 684.484375 193.648438 " fill-opacity="1" fill-rule="nonzero"/><path fill="#000000" d="M 684.277344 163.257812 C 684.203125 152.867188 684.128906 142.472656 684.054688 132.082031 C 683.988281 122.835938 684.007812 113.609375 682.710938 104.4375 C 681.503906 95.90625 678.851562 87.351562 673.664062 80.363281 C 668.996094 74.074219 662.8125 69.125 655.679688 65.878906 C 640.640625 59.035156 623.910156 58.308594 607.644531 57.824219 C 565.886719 56.582031 524.09375 56.8125 482.335938 58.015625 C 440.554688 59.21875 398.804688 61.398438 357.089844 64.046875 C 336.226562 65.375 315.367188 66.820312 294.511719 68.320312 C 274.144531 69.785156 253.738281 71.03125 233.398438 72.851562 C 216.96875 74.320312 199.128906 78.066406 189.960938 93.320312 C 181.066406 108.117188 183.828125 126.519531 185.789062 142.75 C 187.050781 153.210938 188.3125 163.667969 189.574219 174.128906 C 190.808594 184.332031 191.578125 194.722656 193.402344 204.835938 C 195.046875 213.964844 200.644531 220.816406 209.691406 223.347656 C 213.648438 224.453125 217.832031 224.761719 221.914062 224.992188 C 227.257812 225.296875 232.601562 225.578125 237.941406 225.867188 C 279.707031 228.152344 321.472656 230.433594 363.238281 232.714844 C 372.414062 233.214844 381.589844 233.71875 390.765625 234.21875 C 403.101562 251 414.230469 268.59375 426.101562 285.699219 C 429.917969 291.199219 433.828125 296.636719 437.835938 302 C 437.96875 302.179688 438.113281 302.351562 438.265625 302.519531 C 439.261719 304.171875 440.894531 305.351562 443.082031 305.25 C 445.957031 305.121094 449.359375 302.640625 448.96875 299.367188 C 448.929688 299.0625 448.894531 298.761719 448.859375 298.457031 C 448.847656 298.269531 448.824219 298.082031 448.792969 297.894531 C 446.304688 277.167969 443.816406 256.4375 441.328125 235.710938 C 481.394531 234.171875 521.457031 232.632812 561.519531 231.09375 C 582.59375 230.28125 603.667969 229.472656 624.742188 228.664062 C 634.730469 228.28125 644.761719 228.128906 654.734375 227.472656 C 663.605469 226.882812 672.640625 224.847656 678.355469 217.457031 C 683.570312 210.710938 684.433594 201.902344 684.480469 193.648438 C 684.539062 183.519531 684.347656 173.386719 684.277344 163.257812 Z M 672.707031 193.648438 C 672.6875 197.105469 672.570312 200.519531 671.898438 203.558594 C 671.15625 206.929688 670.140625 209.570312 667.695312 211.773438 C 662.601562 216.367188 653.855469 215.773438 647.113281 216.03125 C 627.011719 216.804688 606.910156 217.574219 586.808594 218.347656 C 546.445312 219.898438 506.078125 221.449219 465.714844 223 C 457.117188 223.332031 448.519531 223.660156 439.921875 223.992188 C 439.644531 221.671875 439.367188 219.347656 439.089844 217.027344 C 438.722656 213.980469 436.644531 210.988281 433.203125 211.140625 C 430.328125 211.269531 426.921875 213.753906 427.316406 217.027344 C 429.71875 237.054688 432.121094 257.082031 434.523438 277.109375 C 426.5 265.394531 418.75 253.496094 410.652344 241.824219 C 406.835938 236.324219 402.925781 230.890625 398.917969 225.527344 C 398.871094 225.464844 398.820312 225.40625 398.769531 225.347656 C 398.042969 224.25 396.945312 223.441406 395.667969 222.996094 C 395.453125 222.914062 395.234375 222.84375 395.011719 222.78125 C 395.007812 222.78125 395.003906 222.78125 394.996094 222.777344 C 394.511719 222.648438 394.011719 222.585938 393.507812 222.59375 C 353.308594 220.398438 313.109375 218.203125 272.910156 216.007812 C 262.871094 215.457031 252.835938 214.910156 242.796875 214.359375 C 237.78125 214.085938 232.761719 213.8125 227.742188 213.539062 C 223.722656 213.320312 219.183594 213.277344 215.605469 212.625 C 212.316406 212.03125 209.414062 211.25 207.449219 208.925781 C 205.523438 206.644531 204.921875 203.066406 204.507812 200.253906 C 203.070312 190.460938 202.128906 180.574219 200.941406 170.75 C 199.734375 160.773438 198.53125 150.796875 197.328125 140.816406 C 196.359375 132.820312 195.328125 124.78125 195.636719 116.707031 C 195.902344 109.832031 197.296875 102.789062 201.484375 97.1875 C 205.597656 91.683594 211.941406 88.753906 218.496094 87.023438 C 226.015625 85.039062 233.375 84.597656 241.183594 84.015625 C 251.363281 83.257812 261.542969 82.5 271.722656 81.753906 C 291.765625 80.277344 311.808594 78.835938 331.863281 77.480469 C 372.117188 74.753906 412.398438 72.378906 452.714844 70.800781 C 493.003906 69.222656 533.328125 68.441406 573.644531 68.902344 C 583.683594 69.015625 593.722656 69.210938 603.757812 69.484375 C 611.90625 69.710938 620.070312 69.875 628.179688 70.765625 C 634.679688 71.480469 642.128906 72.964844 648.625 75.566406 C 654.0625 77.742188 659.855469 81.632812 663.5 86.304688 C 673.648438 99.328125 672.179688 118.027344 672.292969 133.542969 C 672.433594 153.574219 672.824219 173.617188 672.707031 193.648438 Z M 672.707031 193.648438 " fill-opacity="1" fill-rule="nonzero"/><path fill="#ffffff" d="M 634.003906 94.847656 C 632.210938 97.175781 628.367188 96.929688 626.273438 95.320312 C 623.773438 93.382812 623.578125 90.441406 624.769531 87.71875 C 627.070312 82.433594 629.308594 77.121094 631.585938 71.8125 C 639.460938 53.382812 647.636719 34.898438 659.066406 18.335938 C 660.53125 15.5625 664.484375 14.636719 667.125 16.230469 C 674.515625 20.71875 681.226562 26.367188 686.785156 33 C 688.644531 35.210938 689.429688 39.226562 686.785156 41.332031 C 682.457031 44.785156 678.207031 48.359375 674.058594 52.046875 C 659.421875 65.035156 646.011719 79.386719 634.003906 94.847656 Z M 634.003906 94.847656 " fill-opacity="1" fill-rule="nonzero"/><path fill="#ffffff" d="M 709.480469 90.636719 C 686.339844 97.070312 663.214844 103.519531 640.074219 109.957031 C 637.234375 110.753906 634.265625 109.210938 633.140625 106.554688 C 632.042969 103.964844 632.957031 100.589844 635.546875 99.203125 C 657.394531 87.507812 677.996094 73.617188 697.667969 58.574219 C 698.703125 57.777344 699.945312 57.578125 701.164062 57.761719 C 702.40625 57.894531 703.570312 58.46875 704.5 59.320312 C 704.980469 59.726562 705.402344 60.195312 705.726562 60.691406 C 706.105469 61.28125 706.34375 61.898438 706.460938 62.511719 C 708.828125 69.472656 711.207031 76.429688 713.589844 83.390625 C 714.621094 86.410156 712.398438 89.8125 709.480469 90.636719 Z M 709.480469 90.636719 " fill-opacity="1" fill-rule="nonzero"/><path fill="#000000" d="M 674.054688 52.046875 C 678.207031 48.363281 682.457031 44.792969 686.792969 41.328125 C 689.425781 39.226562 688.644531 35.214844 686.792969 33.003906 C 681.230469 26.375 674.519531 20.71875 667.125 16.230469 C 664.488281 14.628906 660.539062 15.5625 659.070312 18.34375 C 647.628906 34.898438 639.460938 53.375 631.582031 71.8125 C 629.3125 77.117188 627.066406 82.429688 624.761719 87.71875 C 623.574219 90.445312 623.773438 93.378906 626.277344 95.3125 C 628.363281 96.921875 632.207031 97.171875 634.007812 94.851562 C 646.007812 79.390625 659.417969 65.039062 674.054688 52.046875 Z M 674.109375 36.566406 C 665.800781 43.445312 657.839844 50.742188 650.269531 58.429688 C 653.332031 51.816406 656.570312 45.285156 660.140625 38.921875 C 661.941406 35.707031 663.835938 32.550781 665.820312 29.445312 C 665.972656 29.554688 666.128906 29.65625 666.28125 29.765625 C 666.65625 30.035156 667.023438 30.320312 667.402344 30.589844 C 667.460938 30.632812 667.496094 30.65625 667.519531 30.675781 C 667.574219 30.71875 667.644531 30.777344 667.75 30.859375 C 668.542969 31.5 669.332031 32.144531 670.101562 32.808594 C 671.488281 34.007812 672.820312 35.265625 674.109375 36.566406 Z M 674.109375 36.566406 " fill-opacity="1" fill-rule="nonzero"/><path fill="#000000" d="M 713.589844 83.386719 C 711.210938 76.429688 708.835938 69.46875 706.457031 62.507812 C 706.339844 61.894531 706.105469 61.28125 705.722656 60.6875 C 705.402344 60.191406 704.980469 59.726562 704.492188 59.320312 C 703.566406 58.464844 702.40625 57.890625 701.160156 57.765625 C 699.945312 57.578125 698.707031 57.78125 697.667969 58.574219 C 678 73.617188 657.390625 87.507812 635.542969 99.199219 C 632.960938 100.585938 632.042969 103.960938 633.136719 106.550781 C 634.261719 109.214844 637.230469 110.753906 640.082031 109.960938 C 663.214844 103.515625 686.34375 97.074219 709.476562 90.628906 C 712.40625 89.8125 714.625 86.414062 713.589844 83.386719 Z M 697.6875 73.199219 C 698.570312 75.78125 699.453125 78.367188 700.335938 80.953125 C 692.90625 83.023438 685.472656 85.089844 678.042969 87.160156 C 684.699219 82.660156 691.246094 78 697.6875 73.199219 Z M 697.6875 73.199219 " fill-opacity="1" fill-rule="nonzero"/><g transform="matrix(1, 0, 0, 1, 214, 111)"><g clip-path="url(#2ffa9bde1b)"><g fill="#000000" fill-opacity="1"><g transform="translate(0.849818, 55.519707)"><g><path d="M 0.15625 -5.96875 L 4.625 -11.546875 C 6.800781 -9.648438 8.898438 -8.257812 10.921875 -7.375 C 12.953125 -6.5 15.09375 -6.0625 17.34375 -6.0625 C 19.675781 -6.0625 21.539062 -6.492188 22.9375 -7.359375 C 24.332031 -8.222656 25.03125 -9.367188 25.03125 -10.796875 C 25.03125 -12.085938 24.554688 -13.085938 23.609375 -13.796875 C 22.660156 -14.515625 21.078125 -15.054688 18.859375 -15.421875 L 11.390625 -16.703125 C 8.160156 -17.242188 5.710938 -18.375 4.046875 -20.09375 C 2.390625 -21.8125 1.5625 -24.03125 1.5625 -26.75 C 1.5625 -30.257812 2.894531 -33.035156 5.5625 -35.078125 C 8.226562 -37.117188 11.835938 -38.140625 16.390625 -38.140625 C 19.109375 -38.140625 21.851562 -37.671875 24.625 -36.734375 C 27.40625 -35.804688 29.832031 -34.519531 31.90625 -32.875 L 27.71875 -27.078125 C 25.707031 -28.617188 23.734375 -29.753906 21.796875 -30.484375 C 19.867188 -31.222656 17.882812 -31.59375 15.84375 -31.59375 C 13.769531 -31.59375 12.101562 -31.207031 10.84375 -30.4375 C 9.59375 -29.664062 8.96875 -28.632812 8.96875 -27.34375 C 8.96875 -26.195312 9.378906 -25.300781 10.203125 -24.65625 C 11.023438 -24.007812 12.40625 -23.546875 14.34375 -23.265625 L 21.4375 -22.078125 C 25.15625 -21.472656 27.953125 -20.28125 29.828125 -18.5 C 31.710938 -16.726562 32.65625 -14.394531 32.65625 -11.5 C 32.65625 -7.84375 31.210938 -4.921875 28.328125 -2.734375 C 25.453125 -0.554688 21.613281 0.53125 16.8125 0.53125 C 13.800781 0.53125 10.835938 -0.0390625 7.921875 -1.1875 C 5.003906 -2.332031 2.414062 -3.925781 0.15625 -5.96875 Z M 0.15625 -5.96875 "/></g></g></g><g fill="#000000" fill-opacity="1"><g transform="translate(34.798279, 55.519707)"><g><path d="M 23.578125 -2.6875 L 10.578125 -27.671875 L 10.578125 0 L 3.390625 0 L 3.390625 -37.609375 L 13.375 -37.609375 L 23.6875 -17.40625 L 34 -37.609375 L 44 -37.609375 L 44 0 L 36.640625 0 L 36.640625 -27.609375 Z M 23.578125 -2.6875 "/></g></g></g><g fill="#000000" fill-opacity="1"><g transform="translate(82.175713, 55.519707)"><g><path d="M -0.21875 0 L 15.25 -37.609375 L 24.28125 -37.609375 L 39.53125 0 L 31.109375 0 L 27.296875 -9.890625 L 11.765625 -9.890625 L 7.890625 0 Z M 14.1875 -16.109375 L 24.921875 -16.109375 L 19.609375 -29.96875 Z M 14.1875 -16.109375 "/></g></g></g><g fill="#000000" fill-opacity="1"><g transform="translate(121.495769, 55.519707)"><g><path d="M 3.390625 0 L 3.390625 -37.609375 L 11.171875 -37.609375 L 11.171875 -6.875 L 31.75 -6.875 L 31.75 0 Z M 3.390625 0 "/></g></g></g><g fill="#000000" fill-opacity="1"><g transform="translate(155.229369, 55.519707)"><g><path d="M 3.390625 0 L 3.390625 -37.609375 L 11.171875 -37.609375 L 11.171875 -6.875 L 31.75 -6.875 L 31.75 0 Z M 3.390625 0 "/></g></g></g><g fill="#000000" fill-opacity="1"><g transform="translate(188.962962, 55.519707)"><g/></g></g><g fill="#000000" fill-opacity="1"><g transform="translate(199.759862, 55.519707)"><g><path d="M 40.71875 -18.75 C 40.71875 -15.988281 40.242188 -13.414062 39.296875 -11.03125 C 38.347656 -8.65625 37.039062 -6.613281 35.375 -4.90625 C 33.707031 -3.207031 31.707031 -1.863281 29.375 -0.875 C 27.050781 0.101562 24.546875 0.59375 21.859375 0.59375 C 19.066406 0.59375 16.453125 0.09375 14.015625 -0.90625 C 11.585938 -1.914062 9.484375 -3.285156 7.703125 -5.015625 C 5.929688 -6.753906 4.523438 -8.804688 3.484375 -11.171875 C 2.453125 -13.535156 1.9375 -16.078125 1.9375 -18.796875 C 1.9375 -21.523438 2.445312 -24.066406 3.46875 -26.421875 C 4.488281 -28.785156 5.882812 -30.835938 7.65625 -32.578125 C 9.425781 -34.316406 11.53125 -35.6875 13.96875 -36.6875 C 16.40625 -37.6875 19 -38.1875 21.75 -38.1875 C 24.863281 -38.1875 27.800781 -37.5625 30.5625 -36.3125 C 33.320312 -35.0625 35.597656 -33.34375 37.390625 -31.15625 L 31.96875 -26.15625 C 30.632812 -27.738281 29.097656 -28.945312 27.359375 -29.78125 C 25.628906 -30.625 23.757812 -31.046875 21.75 -31.046875 C 20.070312 -31.046875 18.503906 -30.734375 17.046875 -30.109375 C 15.597656 -29.484375 14.34375 -28.625 13.28125 -27.53125 C 12.226562 -26.4375 11.40625 -25.144531 10.8125 -23.65625 C 10.226562 -22.175781 9.9375 -20.554688 9.9375 -18.796875 C 9.9375 -17.046875 10.238281 -15.414062 10.84375 -13.90625 C 11.457031 -12.40625 12.300781 -11.109375 13.375 -10.015625 C 14.445312 -8.921875 15.726562 -8.0625 17.21875 -7.4375 C 18.707031 -6.8125 20.289062 -6.5 21.96875 -6.5 C 24.625 -6.5 26.90625 -7.234375 28.8125 -8.703125 C 30.726562 -10.171875 31.921875 -12.050781 32.390625 -14.34375 L 21.265625 -14.34375 L 21.265625 -21.109375 L 40.71875 -21.109375 Z M 40.71875 -18.75 "/></g></g></g><g fill="#000000" fill-opacity="1"><g transform="translate(242.410296, 55.519707)"><g><path d="M 3.390625 0 L 3.390625 -37.609375 L 21.75 -37.609375 C 23.65625 -37.609375 25.40625 -37.320312 27 -36.75 C 28.59375 -36.175781 29.960938 -35.378906 31.109375 -34.359375 C 32.253906 -33.335938 33.144531 -32.109375 33.78125 -30.671875 C 34.425781 -29.242188 34.75 -27.671875 34.75 -25.953125 C 34.75 -23.585938 34.078125 -21.472656 32.734375 -19.609375 C 31.398438 -17.742188 29.617188 -16.363281 27.390625 -15.46875 L 35.71875 0 L 27.015625 0 L 19.65625 -14.390625 L 11.171875 -14.390625 L 11.171875 0 Z M 21.0625 -30.890625 L 11.171875 -30.890625 L 11.171875 -20.796875 L 21.0625 -20.796875 C 22.8125 -20.796875 24.210938 -21.257812 25.265625 -22.1875 C 26.328125 -23.113281 26.859375 -24.332031 26.859375 -25.84375 C 26.859375 -27.34375 26.328125 -28.554688 25.265625 -29.484375 C 24.210938 -30.421875 22.8125 -30.890625 21.0625 -30.890625 Z M 21.0625 -30.890625 "/></g></g></g><g fill="#000000" fill-opacity="1"><g transform="translate(278.883406, 55.519707)"><g><path d="M 41.734375 -18.796875 C 41.734375 -16.109375 41.210938 -13.570312 40.171875 -11.1875 C 39.140625 -8.8125 37.738281 -6.753906 35.96875 -5.015625 C 34.195312 -3.285156 32.09375 -1.914062 29.65625 -0.90625 C 27.21875 0.09375 24.601562 0.59375 21.8125 0.59375 C 19.050781 0.59375 16.453125 0.09375 14.015625 -0.90625 C 11.585938 -1.914062 9.484375 -3.285156 7.703125 -5.015625 C 5.929688 -6.753906 4.523438 -8.8125 3.484375 -11.1875 C 2.453125 -13.570312 1.9375 -16.109375 1.9375 -18.796875 C 1.9375 -21.484375 2.453125 -24.015625 3.484375 -26.390625 C 4.523438 -28.773438 5.929688 -30.835938 7.703125 -32.578125 C 9.484375 -34.316406 11.585938 -35.6875 14.015625 -36.6875 C 16.453125 -37.6875 19.050781 -38.1875 21.8125 -38.1875 C 24.601562 -38.1875 27.21875 -37.6875 29.65625 -36.6875 C 32.09375 -35.6875 34.195312 -34.316406 35.96875 -32.578125 C 37.738281 -30.835938 39.140625 -28.773438 40.171875 -26.390625 C 41.210938 -24.015625 41.734375 -21.484375 41.734375 -18.796875 Z M 33.734375 -18.796875 C 33.734375 -20.554688 33.425781 -22.175781 32.8125 -23.65625 C 32.207031 -25.144531 31.375 -26.4375 30.3125 -27.53125 C 29.257812 -28.625 28 -29.484375 26.53125 -30.109375 C 25.0625 -30.734375 23.488281 -31.046875 21.8125 -31.046875 C 20.125 -31.046875 18.554688 -30.734375 17.109375 -30.109375 C 15.660156 -29.484375 14.40625 -28.625 13.34375 -27.53125 C 12.289062 -26.4375 11.457031 -25.144531 10.84375 -23.65625 C 10.238281 -22.175781 9.9375 -20.554688 9.9375 -18.796875 C 9.9375 -17.078125 10.238281 -15.460938 10.84375 -13.953125 C 11.457031 -12.453125 12.289062 -11.15625 13.34375 -10.0625 C 14.40625 -8.976562 15.660156 -8.117188 17.109375 -7.484375 C 18.554688 -6.859375 20.125 -6.546875 21.8125 -6.546875 C 23.488281 -6.546875 25.0625 -6.859375 26.53125 -7.484375 C 28 -8.117188 29.257812 -8.976562 30.3125 -10.0625 C 31.375 -11.15625 32.207031 -12.453125 32.8125 -13.953125 C 33.425781 -15.460938 33.734375 -17.078125 33.734375 -18.796875 Z M 33.734375 -18.796875 "/></g></g></g><g fill="#000000" fill-opacity="1"><g transform="translate(322.554439, 55.519707)"><g><path d="M 36.09375 -16.28125 C 36.09375 -13.738281 35.695312 -11.414062 34.90625 -9.3125 C 34.125 -7.21875 33.007812 -5.445312 31.5625 -4 C 30.113281 -2.550781 28.359375 -1.429688 26.296875 -0.640625 C 24.234375 0.140625 21.953125 0.53125 19.453125 0.53125 C 16.898438 0.53125 14.59375 0.140625 12.53125 -0.640625 C 10.476562 -1.429688 8.734375 -2.550781 7.296875 -4 C 5.867188 -5.445312 4.757812 -7.207031 3.96875 -9.28125 C 3.1875 -11.363281 2.796875 -13.695312 2.796875 -16.28125 L 2.796875 -37.609375 L 10.578125 -37.609375 L 10.578125 -16.28125 C 10.578125 -13.375 11.390625 -11.039062 13.015625 -9.28125 C 14.648438 -7.53125 16.8125 -6.65625 19.5 -6.65625 C 22.1875 -6.65625 24.328125 -7.53125 25.921875 -9.28125 C 27.515625 -11.039062 28.3125 -13.375 28.3125 -16.28125 L 28.3125 -37.609375 L 36.09375 -37.609375 Z M 36.09375 -16.28125 "/></g></g></g><g fill="#000000" fill-opacity="1"><g transform="translate(361.498492, 55.519707)"><g><path d="M 3.390625 0 L 3.390625 -37.609375 L 22.234375 -37.609375 C 24.066406 -37.609375 25.757812 -37.3125 27.3125 -36.71875 C 28.875 -36.125 30.207031 -35.304688 31.3125 -34.265625 C 32.425781 -33.234375 33.296875 -31.988281 33.921875 -30.53125 C 34.546875 -29.082031 34.859375 -27.5 34.859375 -25.78125 C 34.859375 -24.101562 34.546875 -22.554688 33.921875 -21.140625 C 33.296875 -19.722656 32.414062 -18.492188 31.28125 -17.453125 C 30.15625 -16.421875 28.820312 -15.617188 27.28125 -15.046875 C 25.75 -14.472656 24.066406 -14.1875 22.234375 -14.1875 L 11.171875 -14.1875 L 11.171875 0 Z M 21.375 -30.890625 L 11.171875 -30.890625 L 11.171875 -20.625 L 21.375 -20.625 C 23.0625 -20.625 24.414062 -21.085938 25.4375 -22.015625 C 26.457031 -22.953125 26.96875 -24.191406 26.96875 -25.734375 C 26.96875 -27.273438 26.457031 -28.519531 25.4375 -29.46875 C 24.414062 -30.414062 23.0625 -30.890625 21.375 -30.890625 Z M 21.375 -30.890625 "/></g></g></g><g fill="#000000" fill-opacity="1"><g transform="translate(398.616221, 55.519707)"><g><path d="M 0.15625 -5.96875 L 4.625 -11.546875 C 6.800781 -9.648438 8.898438 -8.257812 10.921875 -7.375 C 12.953125 -6.5 15.09375 -6.0625 17.34375 -6.0625 C 19.675781 -6.0625 21.539062 -6.492188 22.9375 -7.359375 C 24.332031 -8.222656 25.03125 -9.367188 25.03125 -10.796875 C 25.03125 -12.085938 24.554688 -13.085938 23.609375 -13.796875 C 22.660156 -14.515625 21.078125 -15.054688 18.859375 -15.421875 L 11.390625 -16.703125 C 8.160156 -17.242188 5.710938 -18.375 4.046875 -20.09375 C 2.390625 -21.8125 1.5625 -24.03125 1.5625 -26.75 C 1.5625 -30.257812 2.894531 -33.035156 5.5625 -35.078125 C 8.226562 -37.117188 11.835938 -38.140625 16.390625 -38.140625 C 19.109375 -38.140625 21.851562 -37.671875 24.625 -36.734375 C 27.40625 -35.804688 29.832031 -34.519531 31.90625 -32.875 L 27.71875 -27.078125 C 25.707031 -28.617188 23.734375 -29.753906 21.796875 -30.484375 C 19.867188 -31.222656 17.882812 -31.59375 15.84375 -31.59375 C 13.769531 -31.59375 12.101562 -31.207031 10.84375 -30.4375 C 9.59375 -29.664062 8.96875 -28.632812 8.96875 -27.34375 C 8.96875 -26.195312 9.378906 -25.300781 10.203125 -24.65625 C 11.023438 -24.007812 12.40625 -23.546875 14.34375 -23.265625 L 21.4375 -22.078125 C 25.15625 -21.472656 27.953125 -20.28125 29.828125 -18.5 C 31.710938 -16.726562 32.65625 -14.394531 32.65625 -11.5 C 32.65625 -7.84375 31.210938 -4.921875 28.328125 -2.734375 C 25.453125 -0.554688 21.613281 0.53125 16.8125 0.53125 C 13.800781 0.53125 10.835938 -0.0390625 7.921875 -1.1875 C 5.003906 -2.332031 2.414062 -3.925781 0.15625 -5.96875 Z M 0.15625 -5.96875 "/></g></g></g></g></g><g clip-path="url(#53c99e1d9a)"><path fill="#192337" d="M 468.75 268.949219 C 468.75 272.617188 465.773438 275.589844 462.109375 275.589844 C 458.445312 275.589844 455.472656 272.617188 455.472656 268.949219 L 455.472656 216.679688 C 455.472656 213.015625 458.445312 210.042969 462.109375 210.042969 C 465.773438 210.042969 468.75 213.015625 468.75 216.679688 Z M 592.566406 332.289062 C 571.851562 332.289062 555.0625 349.082031 555.0625 369.796875 C 555.0625 390.511719 571.851562 407.304688 592.566406 407.304688 C 613.28125 407.304688 630.074219 390.511719 630.074219 369.796875 C 630.074219 349.082031 613.28125 332.289062 592.566406 332.289062 Z M 545.628906 455.582031 C 545.59375 452.773438 544.984375 450.21875 543.808594 447.9375 C 542.414062 445.234375 540.316406 443.054688 537.523438 441.40625 C 537.09375 441.152344 536.644531 440.953125 536.1875 440.808594 C 521.359375 435.050781 508.347656 428.023438 497.078125 419.960938 C 486.773438 412.585938 477.929688 404.347656 470.476562 395.425781 C 475.953125 387.796875 480.585938 379.773438 484.417969 371.445312 C 494.691406 384.652344 505.875 394.503906 517.671875 402.195312 C 531.621094 411.292969 546.289062 417.3125 561.265625 422.3125 L 585.972656 454.472656 C 586.179688 454.742188 586.414062 455.003906 586.671875 455.25 C 589.320312 457.769531 593.515625 457.667969 596.035156 455.015625 L 611.988281 438.246094 C 624.949219 442.882812 637.726562 448.558594 649.921875 456.664062 C 663.242188 465.523438 675.976562 477.347656 687.652344 494.019531 C 693.328125 502.746094 698.050781 512.582031 701.8125 523.566406 L 701.8125 523.59375 C 705.628906 534.726562 708.457031 546.984375 710.292969 560.40625 L 711.007812 566.199219 C 710.332031 569.546875 708.527344 572.164062 706.144531 573.90625 C 704.140625 575.371094 701.726562 576.257812 699.207031 576.484375 C 696.660156 576.714844 693.996094 576.269531 691.519531 575.074219 C 687.988281 573.363281 684.808594 570.039062 682.828125 564.851562 C 678.785156 545.785156 673.515625 529.753906 667.027344 516.773438 C 660.269531 503.257812 652.164062 493.003906 642.714844 486.015625 C 639.78125 483.839844 635.632812 484.453125 633.457031 487.390625 C 632.574219 488.574219 632.152344 489.960938 632.15625 491.332031 L 632.132812 577.90625 C 632.132812 579.980469 631.296875 581.859375 629.953125 583.203125 C 628.570312 584.5625 626.6875 585.410156 624.628906 585.410156 L 553.144531 585.410156 C 551.078125 585.410156 549.203125 584.5625 547.839844 583.203125 L 547.582031 582.957031 C 546.375 581.636719 545.636719 579.859375 545.636719 577.90625 Z M 312.234375 438.246094 C 299.269531 442.882812 286.492188 448.558594 274.300781 456.664062 C 260.976562 465.523438 248.246094 477.347656 236.5625 494.019531 C 230.890625 502.746094 226.167969 512.582031 222.398438 523.589844 C 218.589844 534.726562 215.757812 546.984375 213.925781 560.40625 L 213.210938 566.195312 C 213.886719 569.542969 215.691406 572.164062 218.074219 573.90625 C 220.074219 575.371094 222.496094 576.257812 225.015625 576.484375 C 227.558594 576.714844 230.226562 576.269531 232.703125 575.074219 C 236.234375 573.363281 239.410156 570.039062 241.390625 564.851562 C 245.433594 545.785156 250.703125 529.753906 257.195312 516.773438 C 263.949219 503.257812 272.054688 493.003906 281.503906 486.015625 C 284.4375 483.839844 288.585938 484.453125 290.761719 487.390625 C 291.640625 488.574219 292.066406 489.960938 292.082031 491.332031 L 292.082031 577.90625 C 292.082031 579.980469 292.917969 581.859375 294.292969 583.203125 C 295.652344 584.5625 297.527344 585.410156 299.589844 585.410156 L 371.078125 585.410156 C 373.136719 585.410156 375.015625 584.5625 376.375 583.203125 L 376.636719 582.957031 C 377.84375 581.636719 378.582031 579.859375 378.582031 577.90625 L 378.589844 455.617188 C 378.621094 452.789062 379.230469 450.222656 380.410156 447.9375 C 381.796875 445.25 383.90625 443.066406 386.722656 441.40625 C 387.035156 441.226562 387.355469 441.070312 387.683594 440.945312 C 410.007812 432.324219 428.199219 420.839844 442.554688 407.296875 C 457.730469 392.976562 468.632812 376.320312 475.621094 358.296875 C 476.566406 355.617188 476.488281 352.777344 475.558594 350.261719 C 474.628906 347.742188 472.855469 345.542969 470.402344 344.125 C 467.945312 342.722656 465.148438 342.285156 462.503906 342.738281 C 460.058594 343.160156 457.746094 344.347656 455.953125 346.238281 C 443.253906 370.230469 428.4375 386.472656 412.320312 398.203125 C 396.671875 409.597656 380.015625 416.609375 362.957031 422.308594 L 338.25 454.472656 C 338.039062 454.742188 337.808594 455.003906 337.550781 455.25 C 334.898438 457.769531 330.703125 457.667969 328.183594 455.015625 Z M 331.652344 332.289062 C 352.363281 332.289062 369.160156 349.082031 369.160156 369.796875 C 369.160156 390.511719 352.363281 407.304688 331.652344 407.304688 C 310.9375 407.304688 294.144531 390.511719 294.144531 369.796875 C 294.144531 349.082031 310.9375 332.289062 331.652344 332.289062 Z M 506.324219 289.886719 C 503.875 292.59375 499.691406 292.800781 496.984375 290.355469 C 494.277344 287.90625 494.070312 283.722656 496.519531 281.015625 L 531.570312 242.238281 C 534.015625 239.53125 538.199219 239.324219 540.90625 241.773438 C 543.613281 244.21875 543.820312 248.402344 541.371094 251.109375 Z M 427.703125 281.015625 C 430.152344 283.722656 429.941406 287.90625 427.234375 290.355469 C 424.527344 292.800781 420.34375 292.59375 417.898438 289.886719 L 382.847656 251.109375 C 380.398438 248.402344 380.609375 244.21875 383.3125 241.773438 C 386.019531 239.324219 390.203125 239.53125 392.652344 242.238281 Z M 427.703125 281.015625 " fill-opacity="1" fill-rule="evenodd"/></g></svg>