<svg xmlns="http://www.w3.org/2000/svg" xmlns:xlink="http://www.w3.org/1999/xlink" width="1200" zoomAndPan="magnify" viewBox="0 0 900 599.999999" height="800" preserveAspectRatio="xMidYMid meet" version="1.0"><defs><g/><clipPath id="abac48be66"><path d="M 172.519531 168.753906 L 292.570312 168.753906 L 292.570312 299.984375 L 172.519531 299.984375 Z M 172.519531 168.753906 " clip-rule="nonzero"/></clipPath><clipPath id="a5efe3cb36"><path d="M 263.644531 151.808594 L 300.769531 151.808594 L 300.769531 192.929688 L 263.644531 192.929688 Z M 263.644531 151.808594 " clip-rule="nonzero"/></clipPath><clipPath id="4d1b8abed5"><rect x="0" width="464" y="0" height="202"/></clipPath><clipPath id="05b81f5e55"><path d="M 598.738281 300.015625 L 718.792969 300.015625 L 718.792969 431.246094 L 598.738281 431.246094 Z M 598.738281 300.015625 " clip-rule="nonzero"/></clipPath><clipPath id="07627c60d0"><path d="M 590.542969 407.070312 L 627.667969 407.070312 L 627.667969 448.191406 L 590.542969 448.191406 Z M 590.542969 407.070312 " clip-rule="nonzero"/></clipPath></defs><g clip-path="url(#abac48be66)"><path fill="#5cbf3b" d="M 173.679688 299.984375 C 173.648438 282.351562 173.375 268.773438 173.101562 255.1875 C 172.828125 241.449219 172.550781 227.714844 172.519531 209.8125 C 172.5 199.269531 173.109375 188.339844 180.589844 180.761719 C 189.503906 171.738281 202.421875 170.21875 211.359375 169.855469 C 231.566406 169.058594 252.148438 169.015625 272.058594 168.976562 C 278.824219 168.960938 285.585938 168.945312 292.34375 168.90625 L 292.390625 177.171875 C 285.625 177.210938 278.855469 177.226562 272.074219 177.242188 C 252.246094 177.28125 231.738281 177.324219 211.691406 178.121094 C 199.703125 178.597656 191.691406 181.285156 186.476562 186.574219 C 181.195312 191.914062 180.769531 200.972656 180.785156 209.792969 C 180.816406 227.640625 181.09375 241.332031 181.367188 255.027344 C 181.640625 268.652344 181.914062 282.277344 181.945312 299.96875 L 173.679688 299.984375 " fill-opacity="1" fill-rule="nonzero"/></g><g clip-path="url(#a5efe3cb36)"><path fill="#5cbf3b" d="M 268.632812 192.851562 L 264.605469 185.636719 C 264.769531 185.546875 278.601562 177.808594 287.542969 171.125 C 280.074219 166.371094 272.082031 162.511719 263.730469 159.621094 L 266.433594 151.808594 C 277.242188 155.554688 287.488281 160.808594 296.871094 167.425781 L 301.082031 170.398438 L 297.265625 173.859375 C 288.742188 181.601562 269.445312 192.398438 268.632812 192.851562 " fill-opacity="1" fill-rule="nonzero"/></g><g transform="matrix(1, 0, 0, 1, 218, 194)"><g clip-path="url(#4d1b8abed5)"><g fill="#000000" fill-opacity="1"><g transform="translate(0.552333, 134.057674)"><g><path d="M 45.59375 -64.59375 L 65.5 -103.625 L 78.765625 -103.625 L 48.703125 -44.625 L 48.703125 0 L 34.203125 0 L 34.203125 -44.5625 L 4.078125 -103.625 L 18.171875 -105.015625 L 38.0625 -65.90625 L 43.53125 -48.703125 Z M 45.59375 -64.59375 "/></g></g></g><g fill="#000000" fill-opacity="1"><g transform="translate(76.54967, 134.057674)"><g><path d="M 55.265625 1.171875 C 47.992188 1.171875 41.476562 -0.160156 35.71875 -2.828125 C 29.957031 -5.503906 25.0625 -9.203125 21.03125 -13.921875 C 17 -18.640625 13.910156 -24.234375 11.765625 -30.703125 C 9.628906 -37.179688 8.5625 -44.21875 8.5625 -51.8125 C 8.5625 -59.414062 9.597656 -66.453125 11.671875 -72.921875 C 13.742188 -79.390625 16.769531 -84.984375 20.75 -89.703125 C 24.738281 -94.429688 29.632812 -98.128906 35.4375 -100.796875 C 41.238281 -103.460938 47.847656 -104.796875 55.265625 -104.796875 C 62.492188 -104.796875 69 -103.460938 74.78125 -100.796875 C 80.5625 -98.128906 85.46875 -94.429688 89.5 -89.703125 C 93.53125 -84.984375 96.613281 -79.390625 98.75 -72.921875 C 100.894531 -66.453125 101.96875 -59.414062 101.96875 -51.8125 C 101.96875 -44.21875 100.929688 -37.179688 98.859375 -30.703125 C 96.785156 -24.234375 93.753906 -18.640625 89.765625 -13.921875 C 85.785156 -9.203125 80.894531 -5.503906 75.09375 -2.828125 C 69.289062 -0.160156 62.679688 1.171875 55.265625 1.171875 Z M 87.59375 -49.671875 C 87.59375 -53.359375 87.335938 -56.984375 86.828125 -60.546875 C 86.328125 -64.117188 85.523438 -67.503906 84.421875 -70.703125 C 83.316406 -73.910156 81.890625 -76.882812 80.140625 -79.625 C 78.390625 -82.363281 76.304688 -84.722656 73.890625 -86.703125 C 71.472656 -88.679688 68.6875 -90.234375 65.53125 -91.359375 C 62.375 -92.492188 58.816406 -93.0625 54.859375 -93.0625 C 49.191406 -93.0625 44.34375 -91.96875 40.3125 -89.78125 C 36.28125 -87.59375 32.972656 -84.675781 30.390625 -81.03125 C 27.816406 -77.394531 25.929688 -73.25 24.734375 -68.59375 C 23.535156 -63.945312 22.9375 -59.160156 22.9375 -54.234375 C 22.9375 -50.503906 23.203125 -46.84375 23.734375 -43.25 C 24.265625 -39.65625 25.082031 -36.234375 26.1875 -32.984375 C 27.289062 -29.742188 28.703125 -26.75 30.421875 -24 C 32.148438 -21.257812 34.222656 -18.898438 36.640625 -16.921875 C 39.066406 -14.941406 41.851562 -13.382812 45 -12.25 C 48.15625 -11.125 51.71875 -10.5625 55.6875 -10.5625 C 59.414062 -10.5625 62.800781 -11.078125 65.84375 -12.109375 C 68.882812 -13.148438 71.585938 -14.566406 73.953125 -16.359375 C 76.328125 -18.160156 78.363281 -20.304688 80.0625 -22.796875 C 81.769531 -25.285156 83.1875 -27.96875 84.3125 -30.84375 C 85.445312 -33.726562 86.273438 -36.769531 86.796875 -39.96875 C 87.328125 -43.164062 87.59375 -46.398438 87.59375 -49.671875 Z M 87.59375 -49.671875 "/></g></g></g><g fill="#000000" fill-opacity="1"><g transform="translate(187.091214, 134.057674)"><g><path d="M 84.28125 -103.625 L 84.28125 -36.125 C 84.28125 -29.863281 83.335938 -24.394531 81.453125 -19.71875 C 79.566406 -15.050781 76.972656 -11.171875 73.671875 -8.078125 C 70.378906 -4.992188 66.476562 -2.679688 61.96875 -1.140625 C 57.457031 0.398438 52.578125 1.171875 47.328125 1.171875 C 41.703125 1.171875 36.722656 0.191406 32.390625 -1.765625 C 28.066406 -3.722656 24.429688 -6.484375 21.484375 -10.046875 C 18.535156 -13.617188 16.289062 -17.914062 14.75 -22.9375 C 13.207031 -27.957031 12.4375 -33.507812 12.4375 -39.59375 L 12.4375 -89.125 L 10.359375 -103.625 L 26.59375 -105.015625 L 26.59375 -38.28125 C 26.59375 -33.894531 27.164062 -29.988281 28.3125 -26.5625 C 29.46875 -23.132812 31.023438 -20.234375 32.984375 -17.859375 C 34.941406 -15.484375 37.207031 -13.671875 39.78125 -12.421875 C 42.363281 -11.179688 45.109375 -10.5625 48.015625 -10.5625 C 51.378906 -10.5625 54.429688 -11.066406 57.171875 -12.078125 C 59.910156 -13.097656 62.234375 -14.617188 64.140625 -16.640625 C 66.054688 -18.671875 67.53125 -21.191406 68.5625 -24.203125 C 69.601562 -27.222656 70.125 -30.757812 70.125 -34.8125 L 70.125 -103.625 Z M 84.28125 -103.625 "/></g></g></g><g fill="#000000" fill-opacity="1"><g transform="translate(283.815055, 134.057674)"><g><path d="M 34.203125 0 L 34.203125 -92.578125 L 5.53125 -92.578125 L 5.53125 -103.625 L 77.03125 -103.625 L 77.03125 -92.578125 L 48.703125 -92.578125 L 48.703125 0 Z M 34.203125 0 "/></g></g></g><g fill="#000000" fill-opacity="1"><g transform="translate(366.721214, 134.057674)"><g><path d="M 70.125 0 L 70.125 -50.09375 L 26.59375 -50.09375 L 26.59375 0 L 12.4375 0 L 12.4375 -89.125 L 10.4375 -103.625 L 26.59375 -105.015625 L 26.59375 -61.140625 L 70.125 -61.140625 L 70.125 -103.765625 L 84.28125 -105.015625 L 84.28125 0 Z M 70.125 0 "/></g></g></g><g fill="#000000" fill-opacity="1"><g transform="translate(11.76226, 188.767634)"><g><path d="M 23.753906 -34 C 23.683594 -34.019531 23.558594 -34.035156 23.378906 -34.039062 C 23.152344 -34.050781 22.953125 -34.054688 22.769531 -34.054688 C 21.605469 -34.054688 20.46875 -33.871094 19.367188 -33.507812 C 18.257812 -33.140625 17.210938 -32.621094 16.230469 -31.949219 C 15.246094 -31.277344 14.335938 -30.46875 13.503906 -29.53125 C 12.667969 -28.585938 11.929688 -27.546875 11.289062 -26.410156 C 10.648438 -25.269531 10.121094 -24.050781 9.707031 -22.753906 C 9.289062 -21.460938 9.015625 -20.121094 8.882812 -18.742188 L 8.242188 -18.804688 L 7.71875 -19.175781 L 9.929688 -22.292969 L 10.035156 -22.359375 C 10.492188 -22.652344 11.023438 -22.929688 11.632812 -23.195312 C 12.230469 -23.453125 12.859375 -23.679688 13.519531 -23.878906 C 14.179688 -24.074219 14.847656 -24.230469 15.527344 -24.347656 C 16.214844 -24.464844 16.871094 -24.523438 17.488281 -24.523438 C 19.046875 -24.523438 20.546875 -24.308594 21.988281 -23.878906 C 23.453125 -23.441406 24.753906 -22.769531 25.890625 -21.855469 C 27.039062 -20.9375 27.957031 -19.757812 28.644531 -18.320312 C 29.332031 -16.886719 29.675781 -15.183594 29.675781 -13.214844 C 29.675781 -11.28125 29.347656 -9.449219 28.691406 -7.71875 C 28.035156 -5.984375 27.113281 -4.464844 25.925781 -3.160156 C 24.734375 -1.851562 23.308594 -0.816406 21.648438 -0.0585938 C 19.984375 0.703125 18.140625 1.082031 16.125 1.082031 C 14.355469 1.082031 12.785156 0.792969 11.40625 0.222656 C 10.039062 -0.351562 8.847656 -1.105469 7.832031 -2.050781 C 6.820312 -2.992188 5.976562 -4.066406 5.296875 -5.273438 C 4.632812 -6.460938 4.09375 -7.679688 3.679688 -8.929688 C 3.261719 -10.175781 2.964844 -11.410156 2.789062 -12.632812 C 2.613281 -13.847656 2.523438 -14.960938 2.523438 -15.96875 C 2.523438 -18.058594 2.738281 -20.097656 3.171875 -22.082031 C 3.601562 -24.070312 4.226562 -25.941406 5.042969 -27.691406 C 5.867188 -29.449219 6.867188 -31.0625 8.050781 -32.539062 C 9.238281 -34.019531 10.59375 -35.289062 12.113281 -36.347656 C 13.632812 -37.402344 15.300781 -38.230469 17.121094 -38.824219 C 18.949219 -39.421875 20.90625 -39.71875 23.003906 -39.71875 C 23.265625 -39.71875 23.554688 -39.714844 23.871094 -39.707031 C 24.214844 -39.699219 24.492188 -39.671875 24.699219 -39.628906 L 25.300781 -39.511719 L 24.460938 -33.796875 Z M 24.105469 -35.238281 L 23.929688 -34.621094 L 23.292969 -34.714844 L 23.9375 -39.09375 L 24.574219 -39 L 24.449219 -38.367188 C 24.3125 -38.394531 24.105469 -38.410156 23.835938 -38.417969 C 23.53125 -38.429688 23.253906 -38.433594 23.003906 -38.433594 C 21.042969 -38.433594 19.21875 -38.15625 17.523438 -37.601562 C 15.824219 -37.046875 14.265625 -36.273438 12.847656 -35.289062 C 11.429688 -34.300781 10.164062 -33.117188 9.054688 -31.730469 C 7.9375 -30.335938 6.988281 -28.808594 6.210938 -27.148438 C 5.433594 -25.484375 4.839844 -23.703125 4.429688 -21.808594 C 4.019531 -19.914062 3.8125 -17.96875 3.8125 -15.96875 C 3.8125 -15.023438 3.894531 -13.972656 4.0625 -12.816406 C 4.230469 -11.671875 4.507812 -10.507812 4.898438 -9.335938 C 5.289062 -8.164062 5.796875 -7.019531 6.421875 -5.902344 C 7.03125 -4.8125 7.792969 -3.84375 8.707031 -2.996094 C 9.613281 -2.15625 10.679688 -1.480469 11.902344 -0.96875 C 13.121094 -0.460938 14.527344 -0.207031 16.125 -0.207031 C 17.953125 -0.207031 19.617188 -0.546875 21.113281 -1.230469 C 22.613281 -1.914062 23.898438 -2.847656 24.972656 -4.027344 C 26.050781 -5.210938 26.890625 -6.59375 27.488281 -8.175781 C 28.085938 -9.757812 28.386719 -11.4375 28.386719 -13.214844 C 28.386719 -14.988281 28.085938 -16.507812 27.484375 -17.765625 C 26.882812 -19.027344 26.082031 -20.054688 25.085938 -20.851562 C 24.078125 -21.65625 22.921875 -22.253906 21.621094 -22.644531 C 20.296875 -23.039062 18.921875 -23.234375 17.488281 -23.234375 C 16.941406 -23.234375 16.359375 -23.183594 15.746094 -23.078125 C 15.117188 -22.96875 14.496094 -22.824219 13.886719 -22.644531 C 13.277344 -22.460938 12.695312 -22.25 12.144531 -22.011719 C 11.601562 -21.777344 11.128906 -21.53125 10.726562 -21.273438 L 10.378906 -21.816406 L 10.90625 -21.445312 L 7.371094 -16.460938 L 7.601562 -18.867188 C 7.742188 -20.335938 8.035156 -21.765625 8.480469 -23.148438 C 8.921875 -24.527344 9.484375 -25.824219 10.167969 -27.039062 C 10.851562 -28.257812 11.640625 -29.371094 12.539062 -30.382812 C 13.441406 -31.402344 14.429688 -32.28125 15.503906 -33.011719 C 16.585938 -33.75 17.738281 -34.324219 18.960938 -34.730469 C 20.195312 -35.136719 21.464844 -35.339844 22.769531 -35.339844 C 22.96875 -35.339844 23.1875 -35.335938 23.425781 -35.328125 C 23.710938 -35.316406 23.9375 -35.289062 24.105469 -35.238281 Z M 9.117188 -15.378906 C 9.117188 -14.902344 9.121094 -14.46875 9.132812 -14.078125 C 9.140625 -13.703125 9.164062 -13.335938 9.203125 -12.976562 C 9.246094 -12.613281 9.300781 -12.246094 9.367188 -11.871094 C 9.433594 -11.5 9.523438 -11.09375 9.640625 -10.644531 C 9.867188 -9.710938 10.179688 -8.867188 10.566406 -8.113281 C 10.945312 -7.375 11.40625 -6.746094 11.949219 -6.21875 C 12.480469 -5.703125 13.101562 -5.300781 13.804688 -5.015625 C 14.507812 -4.726562 15.308594 -4.585938 16.203125 -4.585938 C 17.449219 -4.585938 18.503906 -4.816406 19.359375 -5.28125 C 20.226562 -5.746094 20.929688 -6.367188 21.472656 -7.132812 C 22.027344 -7.917969 22.4375 -8.816406 22.703125 -9.824219 C 22.972656 -10.851562 23.105469 -11.894531 23.105469 -12.957031 C 23.105469 -13.957031 22.960938 -14.835938 22.671875 -15.585938 C 22.390625 -16.316406 21.992188 -16.917969 21.484375 -17.390625 C 20.964844 -17.871094 20.34375 -18.230469 19.617188 -18.476562 C 18.867188 -18.730469 18.03125 -18.855469 17.105469 -18.855469 C 16.230469 -18.855469 15.382812 -18.75 14.558594 -18.539062 C 13.726562 -18.328125 12.949219 -18.042969 12.222656 -17.6875 C 11.507812 -17.332031 10.871094 -16.921875 10.320312 -16.457031 C 9.773438 -16 9.339844 -15.523438 9.011719 -15.023438 L 8.476562 -15.378906 Z M 7.832031 -15.378906 L 7.832031 -15.570312 L 7.9375 -15.730469 C 8.332031 -16.332031 8.847656 -16.902344 9.488281 -17.441406 C 10.121094 -17.972656 10.84375 -18.441406 11.652344 -18.839844 C 12.457031 -19.238281 13.320312 -19.554688 14.238281 -19.789062 C 15.167969 -20.023438 16.121094 -20.144531 17.105469 -20.144531 C 18.171875 -20.144531 19.144531 -19.996094 20.027344 -19.699219 C 20.929688 -19.394531 21.707031 -18.941406 22.359375 -18.335938 C 23.015625 -17.726562 23.519531 -16.964844 23.875 -16.046875 C 24.21875 -15.148438 24.394531 -14.117188 24.394531 -12.957031 C 24.394531 -11.785156 24.246094 -10.632812 23.949219 -9.496094 C 23.644531 -8.339844 23.167969 -7.304688 22.523438 -6.390625 C 21.863281 -5.457031 21.015625 -4.710938 19.972656 -4.148438 C 18.925781 -3.582031 17.667969 -3.296875 16.203125 -3.296875 C 15.140625 -3.296875 14.179688 -3.472656 13.320312 -3.820312 C 12.460938 -4.171875 11.707031 -4.660156 11.050781 -5.296875 C 10.410156 -5.917969 9.867188 -6.660156 9.421875 -7.523438 C 8.988281 -8.367188 8.644531 -9.300781 8.390625 -10.320312 C 8.269531 -10.800781 8.167969 -11.242188 8.097656 -11.644531 C 8.027344 -12.046875 7.96875 -12.441406 7.925781 -12.832031 C 7.878906 -13.230469 7.851562 -13.636719 7.84375 -14.050781 C 7.835938 -14.449219 7.832031 -14.890625 7.832031 -15.378906 Z M 7.832031 -15.378906 "/></g></g></g><g fill="#000000" fill-opacity="1"><g transform="translate(45.248668, 188.767634)"><g><path d="M 12.105469 0 L 12.105469 -34.515625 L 12.75 -34.515625 L 12.75 -33.871094 L 1.417969 -33.871094 L 1.417969 -39.28125 L 29.363281 -39.28125 L 29.363281 -33.871094 L 18.160156 -33.871094 L 18.160156 -34.515625 L 18.804688 -34.515625 L 18.804688 0.644531 L 12.105469 0.644531 Z M 13.394531 0 L 12.75 0 L 12.75 -0.644531 L 18.160156 -0.644531 L 18.160156 0 L 17.515625 0 L 17.515625 -35.160156 L 28.722656 -35.160156 L 28.722656 -34.515625 L 28.078125 -34.515625 L 28.078125 -38.636719 L 28.722656 -38.636719 L 28.722656 -37.996094 L 2.0625 -37.996094 L 2.0625 -38.636719 L 2.703125 -38.636719 L 2.703125 -34.515625 L 2.0625 -34.515625 L 2.0625 -35.160156 L 13.394531 -35.160156 Z M 13.394531 0 "/></g></g></g><g fill="#000000" fill-opacity="1"><g transform="translate(76.159196, 188.767634)"><g><path d="M 25.5 0 L 25.5 -18.675781 L 26.144531 -18.675781 L 26.144531 -18.03125 L 9.917969 -18.03125 L 9.917969 -18.675781 L 10.5625 -18.675781 L 10.5625 0.644531 L 3.992188 0.644531 L 3.992188 -33.230469 L 4.636719 -33.230469 L 4 -33.140625 L 3.160156 -39.222656 L 10.5625 -39.855469 L 10.5625 -22.796875 L 9.917969 -22.796875 L 9.917969 -23.441406 L 26.144531 -23.441406 L 26.144531 -22.796875 L 25.5 -22.796875 L 25.5 -39.28125 L 32.070312 -39.855469 L 32.070312 0.644531 L 25.5 0.644531 Z M 26.789062 0 L 26.144531 0 L 26.144531 -0.644531 L 31.425781 -0.644531 L 31.425781 0 L 30.78125 0 L 30.78125 -39.152344 L 31.425781 -39.152344 L 31.480469 -38.511719 L 26.203125 -38.046875 L 26.144531 -38.691406 L 26.789062 -38.691406 L 26.789062 -22.152344 L 9.273438 -22.152344 L 9.273438 -39.152344 L 9.917969 -39.152344 L 9.972656 -38.511719 L 3.945312 -37.996094 L 3.890625 -38.636719 L 4.527344 -38.726562 L 5.28125 -33.273438 L 5.28125 0 L 4.636719 0 L 4.636719 -0.644531 L 9.917969 -0.644531 L 9.917969 0 L 9.273438 0 L 9.273438 -19.320312 L 26.789062 -19.320312 Z M 26.789062 0 "/></g></g></g><g fill="#000000" fill-opacity="1"><g transform="translate(112.221473, 188.767634)"><g><path d="M 4.507812 -16.097656 L 18.675781 -16.097656 L 18.675781 -10.820312 L 4.507812 -10.820312 Z M 5.796875 -14.8125 L 5.796875 -12.105469 L 17.386719 -12.105469 L 17.386719 -14.8125 Z M 5.796875 -14.8125 "/></g></g></g><g fill="#000000" fill-opacity="1"><g transform="translate(135.404372, 188.767634)"><g><path d="M 8.371094 0 L 8.371094 -4.765625 L 15.328125 -4.765625 L 15.328125 -4.121094 L 14.683594 -4.121094 L 14.683594 -29.085938 L 16.195312 -35.011719 L 16.820312 -34.851562 L 17.339844 -34.472656 L 13.796875 -29.625 L 7.804688 -24.308594 L 4.171875 -28.378906 L 16.660156 -39.832031 L 21.378906 -39.203125 L 21.378906 -4.121094 L 20.734375 -4.121094 L 20.734375 -4.765625 L 27.691406 -4.765625 L 27.691406 0.644531 L 8.371094 0.644531 Z M 9.660156 0 L 9.015625 0 L 9.015625 -0.644531 L 27.046875 -0.644531 L 27.046875 0 L 26.402344 0 L 26.402344 -4.121094 L 27.046875 -4.121094 L 27.046875 -3.476562 L 20.09375 -3.476562 L 20.09375 -38.636719 L 20.734375 -38.636719 L 20.652344 -38 L 16.785156 -38.515625 L 16.871094 -39.152344 L 17.308594 -38.679688 L 5.507812 -27.859375 L 5.074219 -28.335938 L 5.554688 -28.761719 L 8.335938 -25.648438 L 7.855469 -25.21875 L 7.429688 -25.699219 L 12.890625 -30.542969 L 13.316406 -30.058594 L 12.796875 -30.441406 L 16.300781 -35.230469 L 17.445312 -34.691406 L 15.949219 -28.84375 L 15.328125 -29.003906 L 15.96875 -29.003906 L 15.96875 -3.476562 L 9.015625 -3.476562 L 9.015625 -4.121094 L 9.660156 -4.121094 Z M 9.660156 0 "/></g></g></g><g fill="#000000" fill-opacity="1"><g transform="translate(168.890789, 188.767634)"><g><path d="M 3.269531 0 L 3.269531 -4.515625 L 3.371094 -4.671875 C 4.203125 -5.992188 5.105469 -7.289062 6.066406 -8.566406 C 7.027344 -9.835938 7.992188 -11.0625 8.96875 -12.246094 C 9.945312 -13.429688 10.910156 -14.550781 11.859375 -15.613281 L 14.460938 -18.511719 C 15.339844 -19.476562 16.175781 -20.386719 16.96875 -21.238281 C 17.738281 -22.070312 18.417969 -22.894531 19 -23.710938 C 19.574219 -24.511719 20.03125 -25.324219 20.375 -26.148438 C 20.699219 -26.9375 20.863281 -27.792969 20.863281 -28.722656 C 20.863281 -29.457031 20.726562 -30.152344 20.453125 -30.800781 C 20.175781 -31.449219 19.792969 -32.015625 19.296875 -32.496094 C 18.796875 -32.980469 18.199219 -33.363281 17.503906 -33.652344 C 16.808594 -33.9375 16.039062 -34.078125 15.199219 -34.078125 C 14.226562 -34.078125 13.394531 -33.949219 12.703125 -33.695312 C 12.003906 -33.433594 11.394531 -33.09375 10.875 -32.675781 C 10.34375 -32.246094 9.882812 -31.769531 9.496094 -31.238281 C 9.085938 -30.675781 8.703125 -30.113281 8.351562 -29.542969 L 8.0625 -29.070312 L 3.339844 -31.078125 L 3.574219 -31.664062 C 4.042969 -32.832031 4.640625 -33.90625 5.367188 -34.886719 C 6.105469 -35.878906 6.972656 -36.730469 7.96875 -37.449219 C 8.96875 -38.167969 10.105469 -38.726562 11.371094 -39.125 C 12.636719 -39.519531 14.042969 -39.71875 15.585938 -39.71875 C 17.410156 -39.71875 19.046875 -39.390625 20.488281 -38.734375 C 21.921875 -38.082031 23.136719 -37.21875 24.128906 -36.152344 C 25.125 -35.089844 25.878906 -33.882812 26.398438 -32.53125 C 26.917969 -31.1875 27.175781 -29.824219 27.175781 -28.4375 C 27.175781 -27.03125 26.914062 -25.691406 26.394531 -24.417969 C 25.886719 -23.183594 25.257812 -22.011719 24.5 -20.902344 C 23.753906 -19.804688 22.953125 -18.773438 22.09375 -17.808594 C 21.253906 -16.867188 20.484375 -15.988281 19.78125 -15.164062 C 18.886719 -14.117188 17.992188 -13.082031 17.097656 -12.066406 C 16.207031 -11.058594 15.355469 -10.070312 14.542969 -9.101562 C 13.734375 -8.140625 12.980469 -7.210938 12.28125 -6.3125 C 11.589844 -5.429688 10.992188 -4.585938 10.488281 -3.78125 L 9.941406 -4.121094 L 9.941406 -4.765625 L 27.84375 -4.765625 L 27.84375 0.644531 L 3.269531 0.644531 Z M 4.558594 0 L 3.914062 0 L 3.914062 -0.644531 L 27.203125 -0.644531 L 27.203125 0 L 26.558594 0 L 26.558594 -4.121094 L 27.203125 -4.121094 L 27.203125 -3.476562 L 8.78125 -3.476562 L 9.398438 -4.460938 C 9.925781 -5.304688 10.546875 -6.1875 11.265625 -7.105469 C 11.972656 -8.015625 12.738281 -8.957031 13.558594 -9.933594 C 14.378906 -10.90625 15.234375 -11.902344 16.132812 -12.917969 C 17.023438 -13.929688 17.914062 -14.957031 18.804688 -16.003906 C 19.511719 -16.828125 20.285156 -17.71875 21.128906 -18.664062 C 21.953125 -19.589844 22.722656 -20.574219 23.4375 -21.625 C 24.140625 -22.664062 24.730469 -23.757812 25.203125 -24.910156 C 25.660156 -26.023438 25.886719 -27.199219 25.886719 -28.4375 C 25.886719 -29.664062 25.65625 -30.875 25.195312 -32.070312 C 24.738281 -33.261719 24.066406 -34.332031 23.1875 -35.277344 C 22.3125 -36.21875 21.234375 -36.980469 19.953125 -37.5625 C 18.683594 -38.140625 17.226562 -38.433594 15.585938 -38.433594 C 14.171875 -38.433594 12.898438 -38.253906 11.757812 -37.894531 C 10.621094 -37.539062 9.609375 -37.039062 8.722656 -36.402344 C 7.832031 -35.761719 7.058594 -35.003906 6.402344 -34.121094 C 5.742188 -33.230469 5.195312 -32.25 4.769531 -31.1875 L 4.171875 -31.425781 L 4.425781 -32.019531 L 8.058594 -30.472656 L 7.804688 -29.878906 L 7.257812 -30.21875 C 7.625 -30.816406 8.027344 -31.410156 8.457031 -32 C 8.910156 -32.621094 9.449219 -33.179688 10.066406 -33.679688 C 10.695312 -34.1875 11.425781 -34.59375 12.257812 -34.902344 C 13.09375 -35.210938 14.074219 -35.367188 15.199219 -35.367188 C 16.210938 -35.367188 17.140625 -35.191406 17.992188 -34.84375 C 18.839844 -34.492188 19.574219 -34.019531 20.191406 -33.421875 C 20.8125 -32.820312 21.292969 -32.113281 21.636719 -31.304688 C 21.980469 -30.492188 22.152344 -29.632812 22.152344 -28.722656 C 22.152344 -27.621094 21.957031 -26.597656 21.5625 -25.652344 C 21.183594 -24.742188 20.679688 -23.84375 20.050781 -22.964844 C 19.433594 -22.097656 18.71875 -21.230469 17.910156 -20.363281 C 17.121094 -19.511719 16.292969 -18.609375 15.417969 -17.652344 L 12.820312 -14.753906 C 11.878906 -13.707031 10.929688 -12.597656 9.964844 -11.425781 C 9 -10.257812 8.042969 -9.046875 7.09375 -7.789062 C 6.152344 -6.542969 5.273438 -5.273438 4.460938 -3.984375 L 3.914062 -4.328125 L 4.558594 -4.328125 Z M 4.558594 0 "/></g></g></g><g fill="#000000" fill-opacity="1"><g transform="translate(202.377187, 188.767634)"><g><path d="M 12.105469 0 L 12.105469 -34.515625 L 12.75 -34.515625 L 12.75 -33.871094 L 1.417969 -33.871094 L 1.417969 -39.28125 L 29.363281 -39.28125 L 29.363281 -33.871094 L 18.160156 -33.871094 L 18.160156 -34.515625 L 18.804688 -34.515625 L 18.804688 0.644531 L 12.105469 0.644531 Z M 13.394531 0 L 12.75 0 L 12.75 -0.644531 L 18.160156 -0.644531 L 18.160156 0 L 17.515625 0 L 17.515625 -35.160156 L 28.722656 -35.160156 L 28.722656 -34.515625 L 28.078125 -34.515625 L 28.078125 -38.636719 L 28.722656 -38.636719 L 28.722656 -37.996094 L 2.0625 -37.996094 L 2.0625 -38.636719 L 2.703125 -38.636719 L 2.703125 -34.515625 L 2.0625 -34.515625 L 2.0625 -35.160156 L 13.394531 -35.160156 Z M 13.394531 0 "/></g></g></g><g fill="#000000" fill-opacity="1"><g transform="translate(233.287725, 188.767634)"><g><path d="M 25.5 0 L 25.5 -18.675781 L 26.144531 -18.675781 L 26.144531 -18.03125 L 9.917969 -18.03125 L 9.917969 -18.675781 L 10.5625 -18.675781 L 10.5625 0.644531 L 3.992188 0.644531 L 3.992188 -33.230469 L 4.636719 -33.230469 L 4 -33.140625 L 3.160156 -39.222656 L 10.5625 -39.855469 L 10.5625 -22.796875 L 9.917969 -22.796875 L 9.917969 -23.441406 L 26.144531 -23.441406 L 26.144531 -22.796875 L 25.5 -22.796875 L 25.5 -39.28125 L 32.070312 -39.855469 L 32.070312 0.644531 L 25.5 0.644531 Z M 26.789062 0 L 26.144531 0 L 26.144531 -0.644531 L 31.425781 -0.644531 L 31.425781 0 L 30.78125 0 L 30.78125 -39.152344 L 31.425781 -39.152344 L 31.480469 -38.511719 L 26.203125 -38.046875 L 26.144531 -38.691406 L 26.789062 -38.691406 L 26.789062 -22.152344 L 9.273438 -22.152344 L 9.273438 -39.152344 L 9.917969 -39.152344 L 9.972656 -38.511719 L 3.945312 -37.996094 L 3.890625 -38.636719 L 4.527344 -38.726562 L 5.28125 -33.273438 L 5.28125 0 L 4.636719 0 L 4.636719 -0.644531 L 9.917969 -0.644531 L 9.917969 0 L 9.273438 0 L 9.273438 -19.320312 L 26.789062 -19.320312 Z M 26.789062 0 "/></g></g></g><g fill="#000000" fill-opacity="1"><g transform="translate(269.350003, 188.767634)"><g/></g></g><g fill="#000000" fill-opacity="1"><g transform="translate(287.381141, 188.767634)"><g><path d="M 31.386719 -4.640625 C 30.65625 -3.839844 29.839844 -3.089844 28.933594 -2.390625 C 28.019531 -1.679688 27.019531 -1.074219 25.929688 -0.5625 C 24.839844 -0.0546875 23.65625 0.347656 22.375 0.640625 C 21.089844 0.933594 19.710938 1.082031 18.238281 1.082031 C 15.65625 1.082031 13.328125 0.519531 11.257812 -0.605469 C 9.203125 -1.722656 7.453125 -3.238281 6.015625 -5.152344 C 4.585938 -7.050781 3.496094 -9.265625 2.746094 -11.792969 C 1.996094 -14.308594 1.621094 -16.988281 1.621094 -19.835938 C 1.621094 -22.488281 1.960938 -25.003906 2.640625 -27.390625 C 3.324219 -29.796875 4.371094 -31.914062 5.789062 -33.738281 C 7.214844 -35.578125 9.011719 -37.035156 11.175781 -38.109375 C 13.34375 -39.183594 15.894531 -39.71875 18.828125 -39.71875 C 20.878906 -39.71875 22.816406 -39.394531 24.648438 -38.742188 C 26.496094 -38.085938 28.070312 -37.132812 29.371094 -35.882812 L 29.808594 -35.464844 L 26.730469 -31.808594 L 26.25 -32.125 C 25.476562 -32.644531 24.492188 -33.097656 23.300781 -33.492188 C 22.125 -33.882812 20.769531 -34.078125 19.242188 -34.078125 C 17.253906 -34.078125 15.582031 -33.710938 14.214844 -32.972656 C 12.847656 -32.230469 11.730469 -31.230469 10.859375 -29.964844 C 9.976562 -28.683594 9.335938 -27.1875 8.933594 -25.46875 C 8.523438 -23.722656 8.320312 -21.871094 8.320312 -19.910156 C 8.320312 -18.757812 8.414062 -17.578125 8.597656 -16.363281 C 8.78125 -15.152344 9.058594 -13.972656 9.433594 -12.820312 C 9.808594 -11.679688 10.285156 -10.605469 10.871094 -9.597656 C 11.453125 -8.601562 12.136719 -7.730469 12.921875 -6.984375 C 13.703125 -6.246094 14.589844 -5.660156 15.582031 -5.226562 C 16.566406 -4.800781 17.675781 -4.585938 18.90625 -4.585938 C 19.632812 -4.585938 20.332031 -4.660156 21.007812 -4.8125 C 21.691406 -4.96875 22.324219 -5.167969 22.910156 -5.410156 C 23.492188 -5.652344 24.011719 -5.921875 24.46875 -6.21875 C 24.914062 -6.511719 25.273438 -6.800781 25.550781 -7.089844 L 26.015625 -6.644531 L 25.371094 -6.644531 L 25.371094 -16.613281 L 26.015625 -16.613281 L 25.976562 -15.972656 L 17.386719 -16.527344 L 17.386719 -21.378906 L 31.554688 -21.378906 L 31.554688 -4.824219 Z M 30.433594 -5.507812 L 30.910156 -5.074219 L 30.265625 -5.074219 L 30.265625 -20.734375 L 30.910156 -20.734375 L 30.910156 -20.09375 L 18.03125 -20.09375 L 18.03125 -20.734375 L 18.675781 -20.734375 L 18.675781 -17.128906 L 18.03125 -17.128906 L 18.074219 -17.773438 L 26.660156 -17.21875 L 26.660156 -6.390625 L 26.484375 -6.203125 C 26.140625 -5.839844 25.703125 -5.484375 25.167969 -5.140625 C 24.648438 -4.800781 24.058594 -4.496094 23.40625 -4.222656 C 22.753906 -3.949219 22.046875 -3.730469 21.289062 -3.558594 C 20.523438 -3.382812 19.726562 -3.296875 18.90625 -3.296875 C 17.496094 -3.296875 16.214844 -3.546875 15.070312 -4.046875 C 13.933594 -4.539062 12.925781 -5.207031 12.035156 -6.050781 C 11.160156 -6.882812 10.402344 -7.847656 9.761719 -8.949219 C 9.128906 -10.035156 8.609375 -11.195312 8.210938 -12.421875 C 7.8125 -13.640625 7.515625 -14.890625 7.324219 -16.171875 C 7.128906 -17.445312 7.03125 -18.695312 7.03125 -19.910156 C 7.03125 -21.96875 7.25 -23.921875 7.679688 -25.765625 C 8.121094 -27.636719 8.824219 -29.28125 9.796875 -30.695312 C 10.785156 -32.128906 12.054688 -33.265625 13.601562 -34.105469 C 15.160156 -34.945312 17.039062 -35.367188 19.242188 -35.367188 C 20.90625 -35.367188 22.398438 -35.148438 23.707031 -34.714844 C 25.007812 -34.285156 26.09375 -33.78125 26.964844 -33.199219 L 26.609375 -32.664062 L 26.117188 -33.078125 L 28.433594 -35.832031 L 28.925781 -35.417969 L 28.480469 -34.953125 C 27.3125 -36.074219 25.890625 -36.933594 24.214844 -37.527344 C 22.527344 -38.132812 20.730469 -38.433594 18.828125 -38.433594 C 16.097656 -38.433594 13.738281 -37.9375 11.75 -36.953125 C 9.757812 -35.96875 8.113281 -34.632812 6.808594 -32.949219 C 5.492188 -31.253906 4.515625 -29.285156 3.878906 -27.039062 C 3.234375 -24.769531 2.910156 -22.367188 2.910156 -19.835938 C 2.910156 -17.113281 3.265625 -14.558594 3.980469 -12.160156 C 4.6875 -9.78125 5.707031 -7.699219 7.042969 -5.925781 C 8.371094 -4.164062 9.980469 -2.765625 11.875 -1.738281 C 13.753906 -0.714844 15.875 -0.207031 18.238281 -0.207031 C 19.613281 -0.207031 20.898438 -0.34375 22.085938 -0.613281 C 23.277344 -0.886719 24.378906 -1.257812 25.382812 -1.730469 C 26.386719 -2.199219 27.308594 -2.757812 28.144531 -3.40625 C 28.992188 -4.0625 29.753906 -4.761719 30.433594 -5.507812 Z M 30.433594 -5.507812 "/></g></g></g><g fill="#000000" fill-opacity="1"><g transform="translate(320.867559, 188.767634)"><g><path d="M 10.949219 -15.816406 L 10.949219 0.644531 L 4.25 0.644531 L 4.25 -33.230469 L 4.894531 -33.230469 L 4.261719 -33.117188 L 3.242188 -38.9375 L 3.914062 -39.019531 C 4.488281 -39.089844 5.179688 -39.160156 5.984375 -39.226562 C 6.789062 -39.296875 7.628906 -39.359375 8.5 -39.410156 C 9.371094 -39.460938 10.25 -39.503906 11.128906 -39.539062 C 12.011719 -39.574219 12.828125 -39.589844 13.574219 -39.589844 C 15.792969 -39.589844 17.820312 -39.355469 19.660156 -38.890625 C 21.519531 -38.414062 23.121094 -37.707031 24.453125 -36.769531 C 25.808594 -35.816406 26.863281 -34.628906 27.617188 -33.207031 C 28.371094 -31.78125 28.746094 -30.148438 28.746094 -28.308594 C 28.746094 -26.421875 28.453125 -24.753906 27.863281 -23.300781 C 27.269531 -21.84375 26.433594 -20.597656 25.355469 -19.5625 C 24.285156 -18.539062 23.015625 -17.707031 21.546875 -17.066406 C 20.101562 -16.4375 18.519531 -15.972656 16.804688 -15.671875 L 16.691406 -16.304688 L 16.867188 -16.925781 L 20.734375 -15.835938 L 33.046875 0.644531 L 25.691406 0.644531 L 14.089844 -14.941406 L 14.605469 -15.328125 L 14.097656 -14.929688 C 14.011719 -15.039062 13.925781 -15.101562 13.847656 -15.117188 C 13.644531 -15.152344 13.492188 -15.171875 13.394531 -15.171875 L 10.304688 -15.171875 L 10.304688 -15.816406 Z M 9.660156 -16.460938 L 13.394531 -16.460938 C 13.570312 -16.460938 13.796875 -16.433594 14.074219 -16.386719 C 14.476562 -16.3125 14.820312 -16.09375 15.113281 -15.722656 L 15.117188 -15.71875 L 26.53125 -0.382812 L 26.015625 0 L 26.015625 -0.644531 L 31.761719 -0.644531 L 31.761719 0 L 31.246094 0.386719 L 19.832031 -14.890625 L 20.347656 -15.273438 L 20.175781 -14.65625 L 16.515625 -15.683594 L 16.582031 -16.941406 C 18.195312 -17.222656 19.679688 -17.660156 21.03125 -18.25 C 22.363281 -18.828125 23.503906 -19.574219 24.464844 -20.492188 C 25.410156 -21.398438 26.144531 -22.496094 26.667969 -23.785156 C 27.195312 -25.082031 27.457031 -26.589844 27.457031 -28.308594 C 27.457031 -29.9375 27.132812 -31.367188 26.476562 -32.605469 C 25.820312 -33.84375 24.902344 -34.882812 23.714844 -35.714844 C 22.507812 -36.5625 21.050781 -37.203125 19.339844 -37.640625 C 17.605469 -38.082031 15.683594 -38.304688 13.574219 -38.304688 C 12.84375 -38.304688 12.046875 -38.285156 11.179688 -38.253906 C 10.308594 -38.21875 9.441406 -38.175781 8.578125 -38.125 C 7.714844 -38.074219 6.886719 -38.011719 6.09375 -37.945312 C 5.304688 -37.878906 4.628906 -37.808594 4.070312 -37.742188 L 3.992188 -38.378906 L 4.625 -38.492188 L 5.539062 -33.285156 L 5.539062 0 L 4.894531 0 L 4.894531 -0.644531 L 10.304688 -0.644531 L 10.304688 0 L 9.660156 0 Z M 10.949219 -29.546875 L 10.949219 -19.707031 L 10.304688 -19.707031 L 10.304688 -20.347656 L 14.117188 -20.347656 C 15.597656 -20.347656 16.878906 -20.554688 17.957031 -20.964844 C 19.023438 -21.371094 19.902344 -21.914062 20.59375 -22.597656 C 21.28125 -23.28125 21.800781 -24.070312 22.144531 -24.972656 C 22.492188 -25.886719 22.667969 -26.859375 22.667969 -27.898438 C 22.667969 -29.242188 22.421875 -30.351562 21.925781 -31.222656 C 21.429688 -32.105469 20.785156 -32.804688 19.996094 -33.320312 C 19.1875 -33.851562 18.28125 -34.226562 17.277344 -34.441406 C 16.242188 -34.664062 15.222656 -34.773438 14.21875 -34.773438 C 13.863281 -34.773438 13.488281 -34.769531 13.097656 -34.761719 C 12.710938 -34.753906 12.320312 -34.742188 11.929688 -34.722656 C 11.550781 -34.707031 11.183594 -34.679688 10.828125 -34.636719 C 10.472656 -34.597656 10.167969 -34.550781 9.90625 -34.503906 L 9.789062 -35.136719 L 10.429688 -35.195312 L 10.949219 -29.574219 Z M 9.660156 -29.546875 L 10.304688 -29.546875 L 9.664062 -29.484375 L 9.09375 -35.660156 L 9.667969 -35.769531 C 9.960938 -35.820312 10.296875 -35.871094 10.679688 -35.917969 C 11.066406 -35.960938 11.460938 -35.992188 11.871094 -36.011719 C 12.273438 -36.027344 12.671875 -36.039062 13.070312 -36.050781 C 13.472656 -36.058594 13.855469 -36.0625 14.21875 -36.0625 C 15.3125 -36.0625 16.421875 -35.941406 17.546875 -35.699219 C 18.707031 -35.453125 19.761719 -35.019531 20.703125 -34.398438 C 21.664062 -33.765625 22.445312 -32.917969 23.046875 -31.859375 C 23.652344 -30.789062 23.957031 -29.46875 23.957031 -27.898438 C 23.957031 -26.703125 23.753906 -25.574219 23.347656 -24.511719 C 22.933594 -23.4375 22.320312 -22.492188 21.496094 -21.683594 C 20.675781 -20.871094 19.648438 -20.230469 18.414062 -19.761719 C 17.191406 -19.292969 15.757812 -19.0625 14.117188 -19.0625 L 9.660156 -19.0625 Z M 9.660156 -29.546875 "/></g></g></g><g fill="#000000" fill-opacity="1"><g transform="translate(354.353957, 188.767634)"><g><path d="M 0.984375 -0.199219 L 11.878906 -33.6875 L 12.492188 -33.488281 L 11.859375 -33.597656 L 12.84375 -39.234375 L 19.4375 -39.839844 L 32.699219 0.644531 L 26.195312 0.644531 L 22.234375 -11.390625 L 22.847656 -11.589844 L 22.847656 -10.949219 L 10.097656 -10.949219 L 10.097656 -11.589844 L 10.710938 -11.394531 L 6.804688 0.644531 L 0.710938 0.644531 Z M 2.210938 0.199219 L 1.597656 0 L 1.597656 -0.644531 L 6.335938 -0.644531 L 6.335938 0 L 5.722656 -0.199219 L 9.628906 -12.234375 L 23.3125 -12.234375 L 27.273438 -0.203125 L 26.660156 0 L 26.660156 -0.644531 L 31.8125 -0.644531 L 31.8125 0 L 31.199219 0.199219 L 18.371094 -38.953125 L 18.984375 -39.152344 L 19.042969 -38.511719 L 13.453125 -37.996094 L 13.394531 -38.636719 L 14.027344 -38.527344 L 13.121094 -33.332031 Z M 17.097656 -34.945312 L 16.164062 -28.191406 L 11.972656 -15.257812 L 11.359375 -15.457031 L 11.359375 -16.097656 L 21.585938 -16.097656 L 21.585938 -15.457031 L 20.972656 -15.253906 L 16.757812 -28.191406 L 15.820312 -34.945312 L 16.460938 -35.03125 Z M 15.820312 -35.121094 L 17.097656 -35.121094 L 18.023438 -28.421875 L 17.386719 -28.335938 L 18 -28.535156 L 22.472656 -14.8125 L 10.472656 -14.8125 L 14.921875 -28.53125 L 15.53125 -28.335938 L 14.894531 -28.421875 Z M 15.820312 -35.121094 "/></g></g></g><g fill="#000000" fill-opacity="1"><g transform="translate(387.840355, 188.767634)"><g><path d="M 4.316406 -39.277344 C 4.859375 -39.332031 5.507812 -39.375 6.253906 -39.410156 C 6.996094 -39.445312 7.757812 -39.476562 8.542969 -39.5 C 9.328125 -39.527344 10.105469 -39.542969 10.875 -39.550781 C 11.640625 -39.5625 12.308594 -39.566406 12.878906 -39.566406 C 15.671875 -39.566406 18.257812 -39.222656 20.644531 -38.535156 C 23.058594 -37.839844 25.152344 -36.730469 26.925781 -35.210938 C 28.703125 -33.6875 30.089844 -31.734375 31.09375 -29.355469 C 32.085938 -26.992188 32.585938 -24.164062 32.585938 -20.863281 C 32.585938 -18.304688 32.339844 -16.003906 31.847656 -13.953125 C 31.351562 -11.894531 30.664062 -10.070312 29.789062 -8.472656 C 28.902344 -6.867188 27.839844 -5.488281 26.597656 -4.332031 C 25.355469 -3.183594 23.992188 -2.238281 22.503906 -1.496094 C 21.019531 -0.757812 19.445312 -0.21875 17.777344 0.128906 C 16.117188 0.472656 14.410156 0.644531 12.648438 0.644531 L 4.507812 0.644531 L 4.507812 -33.230469 L 5.152344 -33.230469 L 4.515625 -33.136719 L 3.644531 -39.214844 Z M 4.441406 -37.996094 L 4.378906 -38.636719 L 5.015625 -38.730469 L 5.796875 -33.273438 L 5.796875 0 L 5.152344 0 L 5.152344 -0.644531 L 12.648438 -0.644531 C 14.320312 -0.644531 15.941406 -0.808594 17.515625 -1.132812 C 19.074219 -1.457031 20.546875 -1.960938 21.929688 -2.648438 C 23.308594 -3.335938 24.570312 -4.210938 25.71875 -5.277344 C 26.863281 -6.335938 27.84375 -7.609375 28.660156 -9.09375 C 29.480469 -10.589844 30.125 -12.308594 30.59375 -14.253906 C 31.0625 -16.203125 31.296875 -18.410156 31.296875 -20.863281 C 31.296875 -23.988281 30.832031 -26.652344 29.90625 -28.859375 C 28.984375 -31.046875 27.710938 -32.839844 26.085938 -34.234375 C 24.457031 -35.632812 22.523438 -36.652344 20.289062 -37.296875 C 18.019531 -37.949219 15.550781 -38.277344 12.878906 -38.277344 C 12.316406 -38.277344 11.652344 -38.273438 10.890625 -38.265625 C 10.128906 -38.257812 9.363281 -38.238281 8.585938 -38.214844 C 7.808594 -38.1875 7.050781 -38.15625 6.316406 -38.125 C 5.585938 -38.089844 4.960938 -38.046875 4.441406 -37.996094 Z M 11.203125 -29.621094 L 11.203125 -4.121094 L 10.5625 -4.121094 L 10.5625 -4.765625 L 11.078125 -4.765625 C 13.503906 -4.765625 15.554688 -5.015625 17.230469 -5.511719 C 18.890625 -6.003906 20.261719 -6.652344 21.34375 -7.457031 C 22.414062 -8.257812 23.25 -9.171875 23.851562 -10.203125 C 24.464844 -11.261719 24.925781 -12.355469 25.226562 -13.484375 C 25.535156 -14.625 25.71875 -15.761719 25.785156 -16.882812 C 25.855469 -18.039062 25.886719 -19.109375 25.886719 -20.09375 C 25.886719 -22.230469 25.703125 -24.191406 25.335938 -25.976562 C 24.976562 -27.707031 24.320312 -29.191406 23.367188 -30.425781 C 22.425781 -31.648438 21.105469 -32.601562 19.402344 -33.289062 C 17.664062 -33.988281 15.414062 -34.335938 12.648438 -34.335938 C 12.382812 -34.335938 12.105469 -34.328125 11.808594 -34.3125 C 11.511719 -34.296875 11.234375 -34.269531 10.976562 -34.238281 C 10.660156 -34.203125 10.328125 -34.167969 9.980469 -34.132812 L 9.917969 -34.773438 L 10.554688 -34.855469 L 11.203125 -29.664062 Z M 9.917969 -29.621094 L 10.5625 -29.621094 L 9.921875 -29.542969 L 9.195312 -35.347656 L 9.851562 -35.414062 C 10.195312 -35.449219 10.515625 -35.484375 10.816406 -35.515625 C 11.105469 -35.550781 11.414062 -35.578125 11.734375 -35.597656 C 12.058594 -35.617188 12.359375 -35.625 12.648438 -35.625 C 15.582031 -35.625 17.992188 -35.242188 19.882812 -34.484375 C 21.800781 -33.710938 23.304688 -32.621094 24.386719 -31.214844 C 25.460938 -29.820312 26.199219 -28.164062 26.59375 -26.238281 C 26.980469 -24.363281 27.175781 -22.316406 27.175781 -20.09375 C 27.175781 -19.082031 27.140625 -17.988281 27.070312 -16.808594 C 27 -15.597656 26.800781 -14.378906 26.472656 -13.152344 C 26.136719 -11.910156 25.636719 -10.710938 24.964844 -9.554688 C 24.273438 -8.371094 23.324219 -7.328125 22.113281 -6.425781 C 20.910156 -5.53125 19.402344 -4.8125 17.597656 -4.277344 C 15.800781 -3.742188 13.628906 -3.476562 11.078125 -3.476562 L 9.917969 -3.476562 Z M 9.917969 -29.621094 "/></g></g></g><g fill="#000000" fill-opacity="1"><g transform="translate(421.326792, 188.767634)"><g><path d="M 27.558594 -4.042969 L 26.972656 0.644531 L 3.8125 0.644531 L 4.253906 -5.199219 L 4.894531 -5.152344 L 4.25 -5.152344 L 4.25 -33.230469 L 4.894531 -33.230469 L 4.257812 -33.136719 L 3.378906 -39.28125 L 26.660156 -39.28125 L 26.660156 -33.871094 L 9.789062 -33.871094 L 9.789062 -34.515625 L 10.429688 -34.585938 L 10.949219 -29.65625 L 10.949219 -22.796875 L 10.304688 -22.796875 L 10.304688 -23.441406 L 24.855469 -23.441406 L 24.855469 -18.417969 L 10.304688 -18.417969 L 10.304688 -19.0625 L 10.949219 -19.0625 L 10.949219 -8.738281 L 10.6875 -4.085938 L 10.046875 -4.121094 L 10.046875 -4.765625 L 27.648438 -4.765625 Z M 26.277344 -4.203125 L 26.917969 -4.121094 L 26.917969 -3.476562 L 9.363281 -3.476562 L 9.660156 -8.792969 L 10.304688 -8.757812 L 9.660156 -8.757812 L 9.660156 -19.707031 L 24.214844 -19.707031 L 24.214844 -19.0625 L 23.570312 -19.0625 L 23.570312 -22.796875 L 24.214844 -22.796875 L 24.214844 -22.152344 L 9.660156 -22.152344 L 9.660156 -29.621094 L 10.304688 -29.621094 L 9.664062 -29.554688 L 9.074219 -35.160156 L 26.015625 -35.160156 L 26.015625 -34.515625 L 25.371094 -34.515625 L 25.371094 -38.636719 L 26.015625 -38.636719 L 26.015625 -37.996094 L 4.121094 -37.996094 L 4.121094 -38.636719 L 4.757812 -38.730469 L 5.539062 -33.273438 L 5.539062 -5.128906 L 5.148438 0.046875 L 4.507812 0 L 4.507812 -0.644531 L 26.402344 -0.644531 L 26.402344 0 L 25.765625 -0.078125 Z M 26.277344 -4.203125 "/></g></g></g><g fill="#5cbf3b" fill-opacity="1"><g transform="translate(11.76226, 188.767634)"><g><path d="M 23.921875 -34.625 C 23.804688 -34.65625 23.628906 -34.675781 23.390625 -34.6875 C 23.160156 -34.695312 22.953125 -34.703125 22.765625 -34.703125 C 21.535156 -34.703125 20.332031 -34.503906 19.15625 -34.109375 C 17.988281 -33.722656 16.890625 -33.175781 15.859375 -32.46875 C 14.835938 -31.769531 13.890625 -30.929688 13.015625 -29.953125 C 12.148438 -28.972656 11.382812 -27.894531 10.71875 -26.71875 C 10.0625 -25.539062 9.519531 -24.28125 9.09375 -22.9375 C 8.664062 -21.601562 8.382812 -20.222656 8.25 -18.796875 L 10.375 -21.8125 C 10.8125 -22.09375 11.316406 -22.351562 11.890625 -22.59375 C 12.460938 -22.84375 13.066406 -23.0625 13.703125 -23.25 C 14.335938 -23.445312 14.976562 -23.597656 15.625 -23.703125 C 16.28125 -23.816406 16.898438 -23.875 17.484375 -23.875 C 18.984375 -23.875 20.421875 -23.664062 21.796875 -23.25 C 23.179688 -22.84375 24.410156 -22.207031 25.484375 -21.34375 C 26.554688 -20.488281 27.414062 -19.382812 28.0625 -18.03125 C 28.707031 -16.6875 29.03125 -15.082031 29.03125 -13.21875 C 29.03125 -11.363281 28.71875 -9.601562 28.09375 -7.9375 C 27.46875 -6.28125 26.585938 -4.828125 25.453125 -3.578125 C 24.316406 -2.335938 22.957031 -1.359375 21.375 -0.640625 C 19.800781 0.078125 18.050781 0.4375 16.125 0.4375 C 14.4375 0.4375 12.941406 0.164062 11.640625 -0.375 C 10.347656 -0.914062 9.222656 -1.628906 8.265625 -2.515625 C 7.304688 -3.410156 6.503906 -4.429688 5.859375 -5.578125 C 5.210938 -6.734375 4.6875 -7.914062 4.28125 -9.125 C 3.882812 -10.34375 3.597656 -11.539062 3.421875 -12.71875 C 3.253906 -13.90625 3.171875 -14.988281 3.171875 -15.96875 C 3.171875 -18.007812 3.378906 -20 3.796875 -21.9375 C 4.222656 -23.882812 4.832031 -25.710938 5.625 -27.421875 C 6.425781 -29.128906 7.398438 -30.695312 8.546875 -32.125 C 9.703125 -33.5625 11.015625 -34.789062 12.484375 -35.8125 C 13.953125 -36.832031 15.566406 -37.628906 17.328125 -38.203125 C 19.085938 -38.785156 20.976562 -39.078125 23 -39.078125 C 23.257812 -39.078125 23.539062 -39.070312 23.84375 -39.0625 C 24.15625 -39.050781 24.398438 -39.03125 24.578125 -39 Z M 8.46875 -15.375 C 8.46875 -14.894531 8.472656 -14.457031 8.484375 -14.0625 C 8.492188 -13.664062 8.519531 -13.28125 8.5625 -12.90625 C 8.601562 -12.53125 8.65625 -12.144531 8.71875 -11.75 C 8.789062 -11.363281 8.890625 -10.941406 9.015625 -10.484375 C 9.253906 -9.503906 9.578125 -8.613281 9.984375 -7.8125 C 10.398438 -7.019531 10.90625 -6.332031 11.5 -5.75 C 12.09375 -5.175781 12.78125 -4.726562 13.5625 -4.40625 C 14.34375 -4.09375 15.222656 -3.9375 16.203125 -3.9375 C 17.554688 -3.9375 18.707031 -4.191406 19.65625 -4.703125 C 20.613281 -5.222656 21.394531 -5.90625 22 -6.75 C 22.601562 -7.601562 23.046875 -8.570312 23.328125 -9.65625 C 23.609375 -10.738281 23.75 -11.835938 23.75 -12.953125 C 23.75 -14.035156 23.585938 -14.988281 23.265625 -15.8125 C 22.953125 -16.632812 22.503906 -17.316406 21.921875 -17.859375 C 21.335938 -18.398438 20.632812 -18.804688 19.8125 -19.078125 C 19 -19.359375 18.097656 -19.5 17.109375 -19.5 C 16.179688 -19.5 15.273438 -19.382812 14.390625 -19.15625 C 13.515625 -18.9375 12.695312 -18.640625 11.9375 -18.265625 C 11.175781 -17.890625 10.5 -17.453125 9.90625 -16.953125 C 9.3125 -16.453125 8.832031 -15.925781 8.46875 -15.375 Z M 8.46875 -15.375 "/></g></g></g><g fill="#5cbf3b" fill-opacity="1"><g transform="translate(45.248668, 188.767634)"><g><path d="M 12.75 0 L 12.75 -34.515625 L 2.0625 -34.515625 L 2.0625 -38.640625 L 28.71875 -38.640625 L 28.71875 -34.515625 L 18.15625 -34.515625 L 18.15625 0 Z M 12.75 0 "/></g></g></g><g fill="#5cbf3b" fill-opacity="1"><g transform="translate(76.159196, 188.767634)"><g><path d="M 26.140625 0 L 26.140625 -18.671875 L 9.921875 -18.671875 L 9.921875 0 L 4.640625 0 L 4.640625 -33.234375 L 3.890625 -38.640625 L 9.921875 -39.15625 L 9.921875 -22.796875 L 26.140625 -22.796875 L 26.140625 -38.6875 L 31.421875 -39.15625 L 31.421875 0 Z M 26.140625 0 "/></g></g></g><g fill="#5cbf3b" fill-opacity="1"><g transform="translate(112.221473, 188.767634)"><g><path d="M 5.15625 -15.453125 L 18.03125 -15.453125 L 18.03125 -11.46875 L 5.15625 -11.46875 Z M 5.15625 -15.453125 "/></g></g></g><g fill="#5cbf3b" fill-opacity="1"><g transform="translate(135.404372, 188.767634)"><g><path d="M 9.015625 0 L 9.015625 -4.125 L 15.328125 -4.125 L 15.328125 -29 L 16.8125 -34.84375 L 13.3125 -30.0625 L 7.859375 -25.21875 L 5.078125 -28.328125 L 16.875 -39.15625 L 20.734375 -38.640625 L 20.734375 -4.125 L 27.046875 -4.125 L 27.046875 0 Z M 9.015625 0 "/></g></g></g><g fill="#5cbf3b" fill-opacity="1"><g transform="translate(168.890789, 188.767634)"><g><path d="M 3.921875 0 L 3.921875 -4.328125 C 4.742188 -5.628906 5.628906 -6.910156 6.578125 -8.171875 C 7.535156 -9.441406 8.5 -10.660156 9.46875 -11.828125 C 10.4375 -13.003906 11.390625 -14.117188 12.328125 -15.171875 C 13.273438 -16.234375 14.144531 -17.203125 14.9375 -18.078125 C 15.8125 -19.046875 16.644531 -19.953125 17.4375 -20.796875 C 18.226562 -21.648438 18.921875 -22.492188 19.515625 -23.328125 C 20.117188 -24.171875 20.597656 -25.023438 20.953125 -25.890625 C 21.316406 -26.765625 21.5 -27.707031 21.5 -28.71875 C 21.5 -29.539062 21.34375 -30.316406 21.03125 -31.046875 C 20.726562 -31.773438 20.296875 -32.410156 19.734375 -32.953125 C 19.179688 -33.492188 18.519531 -33.921875 17.75 -34.234375 C 16.976562 -34.554688 16.128906 -34.71875 15.203125 -34.71875 C 14.148438 -34.71875 13.238281 -34.578125 12.46875 -34.296875 C 11.707031 -34.015625 11.039062 -33.640625 10.46875 -33.171875 C 9.894531 -32.710938 9.394531 -32.191406 8.96875 -31.609375 C 8.550781 -31.035156 8.160156 -30.457031 7.796875 -29.875 L 4.171875 -31.421875 C 4.617188 -32.535156 5.1875 -33.5625 5.875 -34.5 C 6.570312 -35.4375 7.394531 -36.242188 8.34375 -36.921875 C 9.289062 -37.597656 10.363281 -38.125 11.5625 -38.5 C 12.769531 -38.882812 14.109375 -39.078125 15.578125 -39.078125 C 17.316406 -39.078125 18.863281 -38.765625 20.21875 -38.140625 C 21.570312 -37.523438 22.71875 -36.710938 23.65625 -35.703125 C 24.59375 -34.703125 25.304688 -33.566406 25.796875 -32.296875 C 26.285156 -31.023438 26.53125 -29.738281 26.53125 -28.4375 C 26.53125 -27.113281 26.285156 -25.851562 25.796875 -24.65625 C 25.304688 -23.46875 24.695312 -22.335938 23.96875 -21.265625 C 23.238281 -20.191406 22.453125 -19.179688 21.609375 -18.234375 C 20.765625 -17.285156 19.992188 -16.398438 19.296875 -15.578125 C 18.398438 -14.535156 17.503906 -13.503906 16.609375 -12.484375 C 15.722656 -11.472656 14.867188 -10.484375 14.046875 -9.515625 C 13.234375 -8.546875 12.472656 -7.609375 11.765625 -6.703125 C 11.066406 -5.804688 10.457031 -4.945312 9.9375 -4.125 L 27.203125 -4.125 L 27.203125 0 Z M 3.921875 0 "/></g></g></g><g fill="#5cbf3b" fill-opacity="1"><g transform="translate(202.377187, 188.767634)"><g><path d="M 12.75 0 L 12.75 -34.515625 L 2.0625 -34.515625 L 2.0625 -38.640625 L 28.71875 -38.640625 L 28.71875 -34.515625 L 18.15625 -34.515625 L 18.15625 0 Z M 12.75 0 "/></g></g></g><g fill="#5cbf3b" fill-opacity="1"><g transform="translate(233.287725, 188.767634)"><g><path d="M 26.140625 0 L 26.140625 -18.671875 L 9.921875 -18.671875 L 9.921875 0 L 4.640625 0 L 4.640625 -33.234375 L 3.890625 -38.640625 L 9.921875 -39.15625 L 9.921875 -22.796875 L 26.140625 -22.796875 L 26.140625 -38.6875 L 31.421875 -39.15625 L 31.421875 0 Z M 26.140625 0 "/></g></g></g><g fill="#5cbf3b" fill-opacity="1"><g transform="translate(269.350003, 188.767634)"><g/></g></g><g fill="#5cbf3b" fill-opacity="1"><g transform="translate(287.381141, 188.767634)"><g><path d="M 30.90625 -5.078125 C 30.207031 -4.304688 29.414062 -3.578125 28.53125 -2.890625 C 27.65625 -2.210938 26.691406 -1.628906 25.640625 -1.140625 C 24.597656 -0.648438 23.457031 -0.265625 22.21875 0.015625 C 20.988281 0.296875 19.660156 0.4375 18.234375 0.4375 C 15.765625 0.4375 13.539062 -0.0976562 11.5625 -1.171875 C 9.59375 -2.242188 7.914062 -3.695312 6.53125 -5.53125 C 5.144531 -7.375 4.085938 -9.519531 3.359375 -11.96875 C 2.628906 -14.425781 2.265625 -17.046875 2.265625 -19.828125 C 2.265625 -22.421875 2.59375 -24.878906 3.25 -27.203125 C 3.914062 -29.535156 4.929688 -31.582031 6.296875 -33.34375 C 7.660156 -35.101562 9.378906 -36.5 11.453125 -37.53125 C 13.535156 -38.5625 15.992188 -39.078125 18.828125 -39.078125 C 20.804688 -39.078125 22.675781 -38.757812 24.4375 -38.125 C 26.195312 -37.5 27.691406 -36.597656 28.921875 -35.421875 L 26.609375 -32.65625 C 25.785156 -33.207031 24.75 -33.6875 23.5 -34.09375 C 22.257812 -34.507812 20.835938 -34.71875 19.234375 -34.71875 C 17.140625 -34.71875 15.363281 -34.320312 13.90625 -33.53125 C 12.445312 -32.75 11.253906 -31.679688 10.328125 -30.328125 C 9.398438 -28.984375 8.722656 -27.410156 8.296875 -25.609375 C 7.878906 -23.816406 7.671875 -21.914062 7.671875 -19.90625 C 7.671875 -18.726562 7.765625 -17.515625 7.953125 -16.265625 C 8.148438 -15.023438 8.441406 -13.8125 8.828125 -12.625 C 9.210938 -11.4375 9.707031 -10.316406 10.3125 -9.265625 C 10.925781 -8.222656 11.648438 -7.304688 12.484375 -6.515625 C 13.316406 -5.722656 14.265625 -5.09375 15.328125 -4.625 C 16.390625 -4.164062 17.582031 -3.9375 18.90625 -3.9375 C 19.675781 -3.9375 20.421875 -4.019531 21.140625 -4.1875 C 21.867188 -4.351562 22.539062 -4.5625 23.15625 -4.8125 C 23.769531 -5.070312 24.320312 -5.359375 24.8125 -5.671875 C 25.300781 -5.992188 25.703125 -6.316406 26.015625 -6.640625 L 26.015625 -16.609375 L 18.03125 -17.125 L 18.03125 -20.734375 L 30.90625 -20.734375 Z M 30.90625 -5.078125 "/></g></g></g><g fill="#5cbf3b" fill-opacity="1"><g transform="translate(320.867559, 188.767634)"><g><path d="M 10.296875 -15.8125 L 10.296875 0 L 4.890625 0 L 4.890625 -33.234375 L 4 -38.375 C 4.5625 -38.445312 5.238281 -38.515625 6.03125 -38.578125 C 6.832031 -38.648438 7.664062 -38.710938 8.53125 -38.765625 C 9.40625 -38.816406 10.28125 -38.859375 11.15625 -38.890625 C 12.03125 -38.929688 12.835938 -38.953125 13.578125 -38.953125 C 15.734375 -38.953125 17.703125 -38.722656 19.484375 -38.265625 C 21.273438 -37.804688 22.804688 -37.128906 24.078125 -36.234375 C 25.347656 -35.347656 26.335938 -34.238281 27.046875 -32.90625 C 27.753906 -31.570312 28.109375 -30.039062 28.109375 -28.3125 C 28.109375 -26.507812 27.828125 -24.921875 27.265625 -23.546875 C 26.703125 -22.171875 25.914062 -21 24.90625 -20.03125 C 23.894531 -19.0625 22.6875 -18.269531 21.28125 -17.65625 C 19.882812 -17.050781 18.351562 -16.597656 16.6875 -16.296875 L 20.34375 -15.28125 L 31.765625 0 L 26.015625 0 L 14.609375 -15.328125 C 14.421875 -15.566406 14.203125 -15.707031 13.953125 -15.75 C 13.710938 -15.789062 13.523438 -15.8125 13.390625 -15.8125 Z M 10.296875 -29.546875 L 10.296875 -19.703125 L 14.109375 -19.703125 C 15.671875 -19.703125 17.023438 -19.921875 18.171875 -20.359375 C 19.328125 -20.796875 20.28125 -21.390625 21.03125 -22.140625 C 21.789062 -22.890625 22.359375 -23.753906 22.734375 -24.734375 C 23.117188 -25.722656 23.3125 -26.773438 23.3125 -27.890625 C 23.3125 -29.347656 23.035156 -30.5625 22.484375 -31.53125 C 21.929688 -32.507812 21.21875 -33.285156 20.34375 -33.859375 C 19.46875 -34.429688 18.488281 -34.832031 17.40625 -35.0625 C 16.332031 -35.300781 15.269531 -35.421875 14.21875 -35.421875 C 13.851562 -35.421875 13.472656 -35.414062 13.078125 -35.40625 C 12.691406 -35.394531 12.300781 -35.378906 11.90625 -35.359375 C 11.507812 -35.347656 11.125 -35.316406 10.75 -35.265625 C 10.382812 -35.222656 10.0625 -35.179688 9.78125 -35.140625 Z M 10.296875 -29.546875 "/></g></g></g><g fill="#5cbf3b" fill-opacity="1"><g transform="translate(354.353957, 188.767634)"><g><path d="M 1.59375 0 L 12.5 -33.484375 L 13.390625 -38.640625 L 18.984375 -39.15625 L 31.8125 0 L 26.65625 0 L 22.84375 -11.59375 L 10.09375 -11.59375 L 6.34375 0 Z M 16.453125 -35.03125 L 15.53125 -28.328125 L 11.359375 -15.453125 L 21.578125 -15.453125 L 17.390625 -28.328125 Z M 16.453125 -35.03125 "/></g></g></g><g fill="#5cbf3b" fill-opacity="1"><g transform="translate(387.840355, 188.767634)"><g><path d="M 4.375 -38.640625 C 4.90625 -38.691406 5.539062 -38.734375 6.28125 -38.765625 C 7.019531 -38.796875 7.78125 -38.820312 8.5625 -38.84375 C 9.34375 -38.875 10.113281 -38.894531 10.875 -38.90625 C 11.644531 -38.914062 12.3125 -38.921875 12.875 -38.921875 C 15.601562 -38.921875 18.128906 -38.582031 20.453125 -37.90625 C 22.785156 -37.238281 24.800781 -36.175781 26.5 -34.71875 C 28.207031 -33.257812 29.539062 -31.390625 30.5 -29.109375 C 31.457031 -26.828125 31.9375 -24.078125 31.9375 -20.859375 C 31.9375 -18.359375 31.695312 -16.109375 31.21875 -14.109375 C 30.738281 -12.109375 30.070312 -10.332031 29.21875 -8.78125 C 28.375 -7.238281 27.351562 -5.910156 26.15625 -4.796875 C 24.957031 -3.691406 23.640625 -2.78125 22.203125 -2.0625 C 20.773438 -1.351562 19.253906 -0.832031 17.640625 -0.5 C 16.023438 -0.164062 14.359375 0 12.640625 0 L 5.15625 0 L 5.15625 -33.234375 Z M 10.5625 -29.625 L 10.5625 -4.125 L 11.078125 -4.125 C 13.566406 -4.125 15.675781 -4.378906 17.40625 -4.890625 C 19.144531 -5.410156 20.582031 -6.09375 21.71875 -6.9375 C 22.863281 -7.789062 23.757812 -8.769531 24.40625 -9.875 C 25.050781 -10.988281 25.53125 -12.132812 25.84375 -13.3125 C 26.164062 -14.5 26.359375 -15.675781 26.421875 -16.84375 C 26.492188 -18.007812 26.53125 -19.09375 26.53125 -20.09375 C 26.53125 -22.269531 26.335938 -24.269531 25.953125 -26.09375 C 25.578125 -27.925781 24.882812 -29.5 23.875 -30.8125 C 22.863281 -32.132812 21.453125 -33.160156 19.640625 -33.890625 C 17.828125 -34.617188 15.492188 -34.984375 12.640625 -34.984375 C 12.367188 -34.984375 12.078125 -34.972656 11.765625 -34.953125 C 11.460938 -34.929688 11.171875 -34.90625 10.890625 -34.875 C 10.585938 -34.84375 10.265625 -34.804688 9.921875 -34.765625 Z M 10.5625 -29.625 "/></g></g><g transform="translate(421.326792, 188.767634)"><g><path d="M 26.921875 -4.125 L 26.40625 0 L 4.5 0 L 4.890625 -5.15625 L 4.890625 -33.234375 L 4.125 -38.640625 L 26.015625 -38.640625 L 26.015625 -34.515625 L 9.78125 -34.515625 L 10.296875 -29.625 L 10.296875 -22.796875 L 24.21875 -22.796875 L 24.21875 -19.0625 L 10.296875 -19.0625 L 10.296875 -8.75 L 10.046875 -4.125 Z M 26.921875 -4.125 "/></g></g></g></g></g><g clip-path="url(#05b81f5e55)"><path fill="#5cbf3b" d="M 717.628906 300.015625 C 717.660156 317.648438 717.933594 331.226562 718.210938 344.8125 C 718.484375 358.546875 718.757812 372.285156 718.789062 390.1875 C 718.808594 400.730469 718.199219 411.660156 710.71875 419.238281 C 701.808594 428.261719 688.890625 429.78125 679.949219 430.140625 C 659.742188 430.941406 639.160156 430.984375 619.25 431.023438 C 612.484375 431.039062 605.722656 431.054688 598.96875 431.09375 L 598.921875 422.828125 C 605.683594 422.789062 612.457031 422.773438 619.238281 422.757812 C 639.0625 422.71875 659.574219 422.675781 679.617188 421.878906 C 691.605469 421.402344 699.617188 418.714844 704.835938 413.425781 C 710.113281 408.082031 710.542969 399.027344 710.523438 390.207031 C 710.492188 372.359375 710.21875 358.667969 709.945312 344.972656 C 709.671875 331.347656 709.394531 317.722656 709.363281 300.027344 L 717.628906 300.015625 " fill-opacity="1" fill-rule="nonzero"/></g><g clip-path="url(#07627c60d0)"><path fill="#5cbf3b" d="M 622.679688 407.148438 L 626.707031 414.363281 C 626.539062 414.453125 612.710938 422.191406 603.765625 428.875 C 611.238281 433.628906 619.226562 437.488281 627.582031 440.378906 L 624.878906 448.191406 C 614.066406 444.445312 603.824219 439.191406 594.441406 432.570312 L 590.226562 429.601562 L 594.042969 426.140625 C 602.570312 418.398438 621.863281 407.597656 622.679688 407.148438 " fill-opacity="1" fill-rule="nonzero"/></g></svg>