<svg xmlns="http://www.w3.org/2000/svg" xmlns:xlink="http://www.w3.org/1999/xlink" width="2400" zoomAndPan="magnify" viewBox="0 0 1800 1799.999925" height="2400" preserveAspectRatio="xMidYMid meet" version="1.0"><defs><g/><clipPath id="e2f3f52f59"><path d="M 179 211 L 1656 211 L 1656 943.519531 L 179 943.519531 Z M 179 211 " clip-rule="nonzero"/></clipPath><clipPath id="016bab62ac"><rect x="0" width="1274" y="0" height="210"/></clipPath><clipPath id="a3bd624e92"><path d="M 228.738281 900 L 1696.488281 900 L 1696.488281 1707.75 L 228.738281 1707.75 Z M 228.738281 900 " clip-rule="nonzero"/></clipPath></defs><path fill="#a1aab3" d="M 1482.148438 281.410156 C 1476.867188 288.273438 1465.527344 287.542969 1459.359375 282.796875 C 1451.992188 277.089844 1451.414062 268.414062 1454.921875 260.390625 C 1461.710938 244.8125 1468.304688 229.15625 1475.015625 213.496094 C 1498.230469 159.160156 1522.335938 104.667969 1556.039062 55.84375 C 1560.359375 47.667969 1572.007812 44.929688 1579.796875 49.636719 C 1601.585938 62.863281 1621.367188 79.523438 1637.757812 99.074219 C 1643.234375 105.59375 1645.546875 117.433594 1637.757812 123.640625 C 1624.992188 133.824219 1612.460938 144.351562 1600.234375 155.226562 C 1557.082031 193.519531 1517.550781 235.828125 1482.148438 281.410156 Z M 1482.148438 281.410156 " fill-opacity="1" fill-rule="nonzero"/><path fill="#a1aab3" d="M 1704.667969 268.992188 C 1636.449219 287.964844 1568.265625 306.980469 1500.042969 325.953125 C 1491.675781 328.304688 1482.921875 323.753906 1479.605469 315.925781 C 1476.367188 308.289062 1479.066406 298.339844 1486.699219 294.253906 C 1551.105469 259.773438 1611.84375 218.820312 1669.84375 174.46875 C 1672.890625 172.117188 1676.554688 171.539062 1680.140625 172.078125 C 1683.804688 172.464844 1687.238281 174.160156 1689.976562 176.667969 C 1691.402344 177.863281 1692.636719 179.25 1693.601562 180.71875 C 1694.71875 182.453125 1695.414062 184.265625 1695.761719 186.078125 C 1702.742188 206.59375 1709.757812 227.109375 1716.777344 247.628906 C 1719.824219 256.535156 1713.269531 266.5625 1704.667969 268.992188 Z M 1704.667969 268.992188 " fill-opacity="1" fill-rule="nonzero"/><g clip-path="url(#e2f3f52f59)"><path fill="#a1aab3" d="M 1655.496094 614.335938 C 1655.339844 638.671875 1652.796875 664.625 1637.410156 684.523438 C 1620.59375 706.3125 1593.945312 712.328125 1567.800781 714.027344 C 1538.375 715.992188 1508.832031 716.417969 1479.371094 717.574219 C 1417.242188 719.964844 1355.113281 722.316406 1292.988281 724.707031 C 1174.863281 729.257812 1056.738281 733.808594 938.65625 738.320312 C 945.980469 799.449219 953.308594 860.570312 960.636719 921.660156 C 960.753906 922.199219 960.789062 922.777344 960.828125 923.316406 C 960.945312 924.203125 961.058594 925.089844 961.175781 926.015625 C 962.332031 935.660156 952.269531 942.984375 943.820312 943.371094 C 937.34375 943.640625 932.5625 940.171875 929.589844 935.3125 C 929.167969 934.808594 928.742188 934.308594 928.359375 933.769531 C 916.519531 917.957031 904.988281 901.914062 893.765625 885.714844 C 858.75 835.273438 825.929688 783.40625 789.5625 733.925781 C 762.527344 732.460938 735.457031 730.996094 708.421875 729.492188 C 585.285156 722.78125 462.148438 716.03125 339.011719 709.320312 C 323.277344 708.472656 307.542969 707.625 291.769531 706.738281 C 279.738281 706.042969 267.398438 705.15625 255.75 701.878906 C 229.0625 694.4375 212.558594 674.226562 207.699219 647.308594 C 202.339844 617.5 200.0625 586.878906 196.4375 556.796875 C 192.695312 525.945312 188.996094 495.09375 185.253906 464.28125 C 179.46875 416.421875 171.332031 362.164062 197.554688 318.546875 C 224.589844 273.578125 277.191406 262.550781 325.628906 258.191406 C 385.597656 252.832031 445.757812 249.167969 505.804688 244.847656 C 567.277344 240.414062 628.785156 236.171875 690.296875 232.238281 C 813.28125 224.445312 936.339844 218.007812 1059.554688 214.460938 C 1182.652344 210.910156 1305.867188 210.253906 1428.964844 213.917969 C 1476.902344 215.308594 1526.226562 217.46875 1570.578125 237.636719 C 1591.59375 247.199219 1609.835938 261.816406 1623.601562 280.367188 C 1638.875 300.960938 1646.703125 326.179688 1650.25 351.324219 C 1654.109375 378.359375 1654.03125 405.585938 1654.222656 432.8125 C 1654.453125 463.472656 1654.648438 494.09375 1654.878906 524.75 C 1655.109375 554.601562 1655.648438 584.488281 1655.496094 614.335938 Z M 1655.496094 614.335938 " fill-opacity="1" fill-rule="nonzero"/></g><path fill="#ffffff" d="M 1618.261719 553.285156 C 1618.109375 577.621094 1615.5625 603.574219 1600.175781 623.472656 C 1583.359375 645.261719 1556.710938 651.277344 1530.566406 652.976562 C 1501.140625 654.941406 1471.601562 655.367188 1442.136719 656.523438 C 1380.007812 658.914062 1317.882812 661.265625 1255.753906 663.65625 C 1137.628906 668.210938 1019.503906 672.757812 901.421875 677.269531 C 908.746094 738.398438 916.074219 799.519531 923.402344 860.609375 C 923.519531 861.148438 923.558594 861.726562 923.59375 862.265625 C 923.710938 863.152344 923.828125 864.039062 923.941406 864.964844 C 925.097656 874.609375 915.035156 881.933594 906.589844 882.320312 C 900.109375 882.589844 895.328125 879.121094 892.359375 874.261719 C 891.933594 873.757812 891.507812 873.257812 891.125 872.71875 C 879.285156 856.90625 867.753906 840.863281 856.53125 824.664062 C 821.515625 774.222656 788.695312 722.355469 752.328125 672.875 C 725.296875 671.410156 698.222656 669.945312 671.1875 668.441406 C 548.050781 661.730469 424.914062 654.980469 301.777344 648.273438 C 286.042969 647.421875 270.308594 646.574219 254.535156 645.6875 C 242.503906 644.992188 230.164062 644.105469 218.515625 640.828125 C 191.828125 633.386719 175.324219 613.175781 170.464844 586.257812 C 165.105469 556.449219 162.828125 525.828125 159.203125 495.746094 C 155.464844 464.894531 151.761719 434.042969 148.019531 403.230469 C 142.234375 355.371094 134.097656 301.113281 160.324219 257.496094 C 187.355469 212.527344 239.957031 201.5 288.394531 197.140625 C 348.363281 191.78125 408.523438 188.117188 468.570312 183.796875 C 530.042969 179.363281 591.554688 175.121094 653.0625 171.1875 C 776.046875 163.394531 899.105469 156.957031 1022.320312 153.410156 C 1145.421875 149.859375 1268.632812 149.203125 1391.734375 152.867188 C 1439.667969 154.257812 1488.992188 156.417969 1533.34375 176.585938 C 1554.359375 186.148438 1572.601562 200.765625 1586.367188 219.316406 C 1601.640625 239.910156 1609.46875 265.128906 1613.015625 290.273438 C 1616.875 317.308594 1616.796875 344.535156 1616.988281 371.761719 C 1617.222656 402.421875 1617.414062 433.042969 1617.644531 463.699219 C 1617.875 493.550781 1618.417969 523.4375 1618.261719 553.285156 Z M 1618.261719 553.285156 " fill-opacity="1" fill-rule="nonzero"/><path fill="#000000" d="M 1617.652344 463.683594 C 1617.433594 433.046875 1617.214844 402.410156 1616.996094 371.773438 C 1616.800781 344.519531 1616.863281 317.316406 1613.035156 290.273438 C 1609.476562 265.125 1601.65625 239.90625 1586.367188 219.304688 C 1572.605469 200.757812 1554.375 186.164062 1533.347656 176.59375 C 1489.003906 156.417969 1439.679688 154.277344 1391.730469 152.851562 C 1268.621094 149.195312 1145.40625 149.875 1022.300781 153.421875 C 899.121094 156.96875 776.039062 163.390625 653.0625 171.203125 C 591.546875 175.109375 530.054688 179.371094 468.570312 183.792969 C 408.527344 188.113281 348.359375 191.785156 288.398438 197.148438 C 239.960938 201.484375 187.367188 212.53125 160.339844 257.496094 C 134.113281 301.125 142.253906 355.375 148.03125 403.222656 C 151.753906 434.0625 155.480469 464.898438 159.203125 495.738281 C 162.832031 525.808594 165.105469 556.441406 170.480469 586.257812 C 175.335938 613.175781 191.839844 633.378906 218.507812 640.839844 C 230.171875 644.101562 242.5 645.003906 254.542969 645.691406 C 270.292969 646.585938 286.042969 647.410156 301.792969 648.273438 C 424.921875 654.996094 548.054688 661.726562 671.183594 668.453125 C 698.234375 669.929688 725.289062 671.410156 752.339844 672.886719 C 788.707031 722.359375 821.519531 774.230469 856.515625 824.664062 C 867.765625 840.878906 879.289062 856.902344 891.109375 872.710938 C 891.503906 873.242188 891.929688 873.75 892.371094 874.25 C 895.3125 879.117188 900.121094 882.59375 906.570312 882.304688 C 915.046875 881.925781 925.082031 874.605469 923.925781 864.949219 C 923.816406 864.058594 923.710938 863.167969 923.605469 862.277344 C 923.570312 861.71875 923.503906 861.167969 923.40625 860.617188 C 916.074219 799.507812 908.742188 738.398438 901.40625 677.289062 C 1019.519531 672.75 1137.632812 668.210938 1255.746094 663.671875 C 1317.878906 661.285156 1380.007812 658.898438 1442.136719 656.511719 C 1471.582031 655.378906 1501.148438 654.9375 1530.554688 652.996094 C 1556.710938 651.265625 1583.351562 645.257812 1600.191406 623.46875 C 1615.5625 603.578125 1618.113281 577.621094 1618.253906 553.285156 C 1618.425781 523.425781 1617.863281 493.542969 1617.652344 463.683594 Z M 1583.546875 553.285156 C 1583.484375 563.476562 1583.132812 573.539062 1581.164062 582.492188 C 1578.972656 592.4375 1575.972656 600.21875 1568.769531 606.710938 C 1553.746094 620.253906 1527.96875 618.503906 1508.089844 619.265625 C 1448.828125 621.542969 1389.566406 623.820312 1330.304688 626.097656 C 1211.300781 630.671875 1092.296875 635.242188 973.296875 639.816406 C 947.949219 640.789062 922.605469 641.765625 897.261719 642.738281 C 896.441406 635.894531 895.621094 629.050781 894.800781 622.207031 C 893.722656 613.222656 887.589844 604.398438 877.445312 604.851562 C 868.96875 605.230469 858.933594 612.550781 860.089844 622.207031 C 867.175781 681.25 874.261719 740.296875 881.34375 799.339844 C 857.691406 764.804688 834.839844 729.722656 810.960938 695.3125 C 799.710938 679.097656 788.1875 663.074219 776.371094 647.269531 C 776.234375 647.085938 776.082031 646.910156 775.9375 646.730469 C 773.792969 643.5 770.554688 641.113281 766.785156 639.804688 C 766.152344 639.554688 765.511719 639.347656 764.859375 639.171875 C 764.84375 639.167969 764.828125 639.164062 764.8125 639.160156 C 763.378906 638.78125 761.910156 638.589844 760.425781 638.621094 C 641.910156 632.144531 523.394531 625.671875 404.878906 619.195312 C 375.289062 617.578125 345.699219 615.960938 316.109375 614.34375 C 301.316406 613.535156 286.519531 612.726562 271.726562 611.921875 C 259.867188 611.273438 246.492188 611.144531 235.9375 609.230469 C 226.246094 607.472656 217.683594 605.175781 211.890625 598.316406 C 206.210938 591.597656 204.441406 581.042969 203.226562 572.75 C 198.988281 543.890625 196.203125 514.734375 192.707031 485.773438 C 189.15625 456.359375 185.605469 426.945312 182.054688 397.53125 C 179.207031 373.953125 176.164062 350.253906 177.074219 326.453125 C 177.851562 306.179688 181.964844 285.414062 194.304688 268.902344 C 206.4375 252.667969 225.132812 244.042969 244.460938 238.9375 C 266.628906 233.085938 288.324219 231.78125 311.347656 230.066406 C 341.359375 227.832031 371.371094 225.601562 401.382812 223.394531 C 460.472656 219.046875 519.566406 214.796875 578.679688 210.796875 C 697.359375 202.765625 816.117188 195.765625 934.976562 191.105469 C 1053.746094 186.453125 1172.628906 184.148438 1291.492188 185.511719 C 1321.089844 185.847656 1350.6875 186.417969 1380.273438 187.230469 C 1404.289062 187.894531 1428.363281 188.382812 1452.265625 191.007812 C 1471.4375 193.113281 1493.390625 197.488281 1512.550781 205.160156 C 1528.578125 211.574219 1545.660156 223.039062 1556.398438 236.820312 C 1586.316406 275.207031 1581.992188 330.332031 1582.316406 376.082031 C 1582.738281 435.132812 1583.886719 494.230469 1583.546875 553.285156 Z M 1583.546875 553.285156 " fill-opacity="1" fill-rule="nonzero"/><path fill="#ffffff" d="M 1469.441406 262.003906 C 1464.160156 268.867188 1452.820312 268.136719 1446.648438 263.390625 C 1439.285156 257.683594 1438.707031 249.007812 1442.214844 240.984375 C 1449.003906 225.40625 1455.597656 209.746094 1462.308594 194.089844 C 1485.523438 139.753906 1509.625 85.261719 1543.332031 36.4375 C 1547.652344 28.261719 1559.296875 25.523438 1567.085938 30.230469 C 1588.875 43.457031 1608.660156 60.117188 1625.050781 79.667969 C 1630.527344 86.1875 1632.839844 98.023438 1625.050781 104.234375 C 1612.285156 114.414062 1599.753906 124.945312 1587.527344 135.820312 C 1544.371094 174.113281 1504.84375 216.417969 1469.441406 262.003906 Z M 1469.441406 262.003906 " fill-opacity="1" fill-rule="nonzero"/><path fill="#ffffff" d="M 1691.960938 249.585938 C 1623.738281 268.558594 1555.554688 287.570312 1487.335938 306.546875 C 1478.96875 308.898438 1470.214844 304.347656 1466.894531 296.519531 C 1463.65625 288.882812 1466.355469 278.933594 1473.992188 274.84375 C 1538.394531 240.367188 1599.136719 199.414062 1657.136719 155.0625 C 1660.183594 152.710938 1663.847656 152.132812 1667.433594 152.671875 C 1671.097656 153.058594 1674.527344 154.753906 1677.265625 157.261719 C 1678.695312 158.457031 1679.929688 159.84375 1680.890625 161.308594 C 1682.011719 163.046875 1682.703125 164.859375 1683.050781 166.671875 C 1690.03125 187.1875 1697.050781 207.703125 1704.070312 228.21875 C 1707.117188 237.128906 1700.558594 247.15625 1691.960938 249.585938 Z M 1691.960938 249.585938 " fill-opacity="1" fill-rule="nonzero"/><path fill="#000000" d="M 1587.519531 135.816406 C 1599.753906 124.953125 1612.28125 114.429688 1625.066406 104.21875 C 1632.824219 98.019531 1630.53125 86.191406 1625.066406 79.675781 C 1608.667969 60.132812 1588.882812 43.460938 1567.082031 30.226562 C 1559.3125 25.511719 1547.667969 28.261719 1543.339844 36.453125 C 1509.613281 85.265625 1485.523438 139.738281 1462.296875 194.089844 C 1455.613281 209.730469 1448.984375 225.390625 1442.195312 240.984375 C 1438.695312 249.023438 1439.28125 257.667969 1446.664062 263.371094 C 1452.808594 268.117188 1464.144531 268.851562 1469.453125 262.015625 C 1504.832031 216.4375 1544.359375 174.121094 1587.519531 135.816406 Z M 1587.683594 90.179688 C 1563.179688 110.464844 1539.707031 131.976562 1517.390625 154.636719 C 1526.425781 135.140625 1535.96875 115.886719 1546.488281 97.121094 C 1551.800781 87.648438 1557.394531 78.339844 1563.242188 69.191406 C 1563.691406 69.511719 1564.15625 69.808594 1564.601562 70.128906 C 1565.707031 70.929688 1566.789062 71.769531 1567.898438 72.5625 C 1568.074219 72.6875 1568.179688 72.761719 1568.25 72.808594 C 1568.40625 72.9375 1568.621094 73.109375 1568.925781 73.355469 C 1571.265625 75.238281 1573.589844 77.140625 1575.863281 79.109375 C 1579.953125 82.644531 1583.878906 86.347656 1587.683594 90.179688 Z M 1587.683594 90.179688 " fill-opacity="1" fill-rule="nonzero"/><path fill="#000000" d="M 1704.070312 228.21875 C 1697.058594 207.699219 1690.050781 187.179688 1683.039062 166.660156 C 1682.691406 164.851562 1682.003906 163.046875 1680.875 161.292969 C 1679.929688 159.828125 1678.6875 158.464844 1677.253906 157.257812 C 1674.519531 154.738281 1671.105469 153.042969 1667.429688 152.671875 C 1663.847656 152.121094 1660.195312 152.722656 1657.128906 155.066406 C 1599.148438 199.410156 1538.386719 240.367188 1473.980469 274.835938 C 1466.359375 278.914062 1463.660156 288.871094 1466.882812 296.507812 C 1470.195312 304.359375 1478.949219 308.898438 1487.355469 306.554688 C 1555.550781 287.558594 1623.75 268.5625 1691.949219 249.566406 C 1700.578125 247.164062 1707.117188 237.140625 1704.070312 228.21875 Z M 1657.1875 198.175781 C 1659.789062 205.796875 1662.394531 213.417969 1664.996094 221.035156 C 1643.085938 227.136719 1621.179688 233.242188 1599.269531 239.34375 C 1618.890625 226.074219 1638.195312 212.332031 1657.1875 198.175781 Z M 1657.1875 198.175781 " fill-opacity="1" fill-rule="nonzero"/><g transform="matrix(1, 0, 0, 1, 233, 312)"><g clip-path="url(#016bab62ac)"><g fill="#000000" fill-opacity="1"><g transform="translate(0.70598, 161.296311)"><g><path d="M 0.46875 -17.578125 L 13.625 -34.046875 C 20.0625 -28.453125 26.257812 -24.359375 32.21875 -21.765625 C 38.1875 -19.179688 44.5 -17.890625 51.15625 -17.890625 C 58.019531 -17.890625 63.507812 -19.15625 67.625 -21.6875 C 71.738281 -24.226562 73.796875 -27.609375 73.796875 -31.828125 C 73.796875 -35.628906 72.394531 -38.585938 69.59375 -40.703125 C 66.800781 -42.816406 62.132812 -44.398438 55.59375 -45.453125 L 33.578125 -49.25 C 24.078125 -50.832031 16.867188 -54.15625 11.953125 -59.21875 C 7.046875 -64.289062 4.59375 -70.84375 4.59375 -78.875 C 4.59375 -89.21875 8.523438 -97.398438 16.390625 -103.421875 C 24.253906 -109.441406 34.890625 -112.453125 48.296875 -112.453125 C 56.328125 -112.453125 64.429688 -111.078125 72.609375 -108.328125 C 80.796875 -105.578125 87.953125 -101.773438 94.078125 -96.921875 L 81.71875 -79.828125 C 75.8125 -84.359375 70.003906 -87.707031 64.296875 -89.875 C 58.597656 -92.039062 52.738281 -93.125 46.71875 -93.125 C 40.59375 -93.125 35.679688 -91.988281 31.984375 -89.71875 C 28.296875 -87.445312 26.453125 -84.410156 26.453125 -80.609375 C 26.453125 -77.234375 27.664062 -74.59375 30.09375 -72.6875 C 32.519531 -70.789062 36.582031 -69.421875 42.28125 -68.578125 L 63.1875 -65.09375 C 74.164062 -63.300781 82.425781 -59.789062 87.96875 -54.5625 C 93.519531 -49.332031 96.296875 -42.441406 96.296875 -33.890625 C 96.296875 -23.117188 92.046875 -14.515625 83.546875 -8.078125 C 75.046875 -1.640625 63.722656 1.578125 49.578125 1.578125 C 40.703125 1.578125 31.960938 -0.109375 23.359375 -3.484375 C 14.753906 -6.859375 7.125 -11.554688 0.46875 -17.578125 Z M 0.46875 -17.578125 "/></g></g></g><g fill="#000000" fill-opacity="1"><g transform="translate(100.789787, 161.296311)"><g><path d="M 69.53125 -7.921875 L 31.203125 -81.5625 L 31.203125 0 L 9.984375 0 L 9.984375 -110.859375 L 39.4375 -110.859375 L 69.84375 -51.3125 L 100.25 -110.859375 L 129.703125 -110.859375 L 129.703125 0 L 108.015625 0 L 108.015625 -81.40625 Z M 69.53125 -7.921875 "/></g></g></g><g fill="#000000" fill-opacity="1"><g transform="translate(240.463685, 161.296311)"><g><path d="M -0.640625 0 L 44.984375 -110.859375 L 71.578125 -110.859375 L 116.5625 0 L 91.703125 0 L 80.453125 -29.140625 L 34.6875 -29.140625 L 23.28125 0 Z M 41.8125 -47.515625 L 73.484375 -47.515625 L 57.8125 -88.375 Z M 41.8125 -47.515625 "/></g></g></g><g fill="#000000" fill-opacity="1"><g transform="translate(356.383546, 161.296311)"><g><path d="M 9.984375 0 L 9.984375 -110.859375 L 32.9375 -110.859375 L 32.9375 -20.265625 L 93.59375 -20.265625 L 93.59375 0 Z M 9.984375 0 "/></g></g></g><g fill="#000000" fill-opacity="1"><g transform="translate(455.83392, 161.296311)"><g><path d="M 9.984375 0 L 9.984375 -110.859375 L 32.9375 -110.859375 L 32.9375 -20.265625 L 93.59375 -20.265625 L 93.59375 0 Z M 9.984375 0 "/></g></g></g><g fill="#000000" fill-opacity="1"><g transform="translate(555.28427, 161.296311)"><g/></g></g><g fill="#000000" fill-opacity="1"><g transform="translate(587.114722, 161.296311)"><g><path d="M 120.046875 -55.265625 C 120.046875 -47.140625 118.644531 -39.566406 115.84375 -32.546875 C 113.050781 -25.523438 109.195312 -19.503906 104.28125 -14.484375 C 99.375 -9.472656 93.488281 -5.515625 86.625 -2.609375 C 79.769531 0.285156 72.378906 1.734375 64.453125 1.734375 C 56.222656 1.734375 48.515625 0.257812 41.328125 -2.6875 C 34.148438 -5.644531 27.945312 -9.679688 22.71875 -14.796875 C 17.5 -19.921875 13.359375 -25.96875 10.296875 -32.9375 C 7.234375 -39.90625 5.703125 -47.40625 5.703125 -55.4375 C 5.703125 -63.457031 7.207031 -70.953125 10.21875 -77.921875 C 13.226562 -84.890625 17.34375 -90.929688 22.5625 -96.046875 C 27.789062 -101.171875 33.992188 -105.210938 41.171875 -108.171875 C 48.359375 -111.128906 56.015625 -112.609375 64.140625 -112.609375 C 73.328125 -112.609375 81.984375 -110.757812 90.109375 -107.0625 C 98.242188 -103.363281 104.953125 -98.296875 110.234375 -91.859375 L 94.234375 -77.125 C 90.328125 -81.769531 85.8125 -85.332031 80.6875 -87.8125 C 75.570312 -90.300781 70.054688 -91.546875 64.140625 -91.546875 C 59.179688 -91.546875 54.5625 -90.617188 50.28125 -88.765625 C 46.007812 -86.921875 42.316406 -84.390625 39.203125 -81.171875 C 36.085938 -77.953125 33.65625 -74.148438 31.90625 -69.765625 C 30.164062 -65.378906 29.296875 -60.601562 29.296875 -55.4375 C 29.296875 -50.257812 30.191406 -45.453125 31.984375 -41.015625 C 33.785156 -36.585938 36.269531 -32.757812 39.4375 -29.53125 C 42.601562 -26.3125 46.375 -23.773438 50.75 -21.921875 C 55.132812 -20.078125 59.8125 -19.15625 64.78125 -19.15625 C 72.59375 -19.15625 79.320312 -21.320312 84.96875 -25.65625 C 90.613281 -29.988281 94.125 -35.53125 95.5 -42.28125 L 62.71875 -42.28125 L 62.71875 -62.234375 L 120.046875 -62.234375 Z M 120.046875 -55.265625 "/></g></g></g><g fill="#000000" fill-opacity="1"><g transform="translate(712.852906, 161.296311)"><g><path d="M 9.984375 0 L 9.984375 -110.859375 L 64.140625 -110.859375 C 69.734375 -110.859375 74.878906 -110.015625 79.578125 -108.328125 C 84.273438 -106.640625 88.3125 -104.289062 91.6875 -101.28125 C 95.070312 -98.269531 97.710938 -94.648438 99.609375 -90.421875 C 101.515625 -86.203125 102.46875 -81.5625 102.46875 -76.5 C 102.46875 -69.53125 100.488281 -63.300781 96.53125 -57.8125 C 92.570312 -52.320312 87.316406 -48.253906 80.765625 -45.609375 L 105.3125 0 L 79.65625 0 L 57.96875 -42.4375 L 32.9375 -42.4375 L 32.9375 0 Z M 62.078125 -91.0625 L 32.9375 -91.0625 L 32.9375 -61.296875 L 62.078125 -61.296875 C 67.253906 -61.296875 71.398438 -62.664062 74.515625 -65.40625 C 77.628906 -68.15625 79.1875 -71.742188 79.1875 -76.171875 C 79.1875 -80.609375 77.628906 -84.195312 74.515625 -86.9375 C 71.398438 -89.6875 67.253906 -91.0625 62.078125 -91.0625 Z M 62.078125 -91.0625 "/></g></g></g><g fill="#000000" fill-opacity="1"><g transform="translate(820.379656, 161.296311)"><g><path d="M 123.0625 -55.4375 C 123.0625 -47.507812 121.53125 -40.035156 118.46875 -33.015625 C 115.40625 -25.992188 111.257812 -19.921875 106.03125 -14.796875 C 100.800781 -9.679688 94.597656 -5.644531 87.421875 -2.6875 C 80.242188 0.257812 72.535156 1.734375 64.296875 1.734375 C 56.171875 1.734375 48.515625 0.257812 41.328125 -2.6875 C 34.148438 -5.644531 27.945312 -9.679688 22.71875 -14.796875 C 17.5 -19.921875 13.359375 -25.992188 10.296875 -33.015625 C 7.234375 -40.035156 5.703125 -47.507812 5.703125 -55.4375 C 5.703125 -63.351562 7.234375 -70.820312 10.296875 -77.84375 C 13.359375 -84.863281 17.5 -90.929688 22.71875 -96.046875 C 27.945312 -101.171875 34.148438 -105.210938 41.328125 -108.171875 C 48.515625 -111.128906 56.171875 -112.609375 64.296875 -112.609375 C 72.535156 -112.609375 80.242188 -111.128906 87.421875 -108.171875 C 94.597656 -105.210938 100.800781 -101.171875 106.03125 -96.046875 C 111.257812 -90.929688 115.40625 -84.863281 118.46875 -77.84375 C 121.53125 -70.820312 123.0625 -63.351562 123.0625 -55.4375 Z M 99.453125 -55.4375 C 99.453125 -60.601562 98.554688 -65.378906 96.765625 -69.765625 C 94.972656 -74.148438 92.519531 -77.953125 89.40625 -81.171875 C 86.289062 -84.390625 82.566406 -86.921875 78.234375 -88.765625 C 73.910156 -90.617188 69.265625 -91.546875 64.296875 -91.546875 C 59.335938 -91.546875 54.71875 -90.617188 50.4375 -88.765625 C 46.164062 -86.921875 42.472656 -84.390625 39.359375 -81.171875 C 36.242188 -77.953125 33.785156 -74.148438 31.984375 -69.765625 C 30.191406 -65.378906 29.296875 -60.601562 29.296875 -55.4375 C 29.296875 -50.363281 30.191406 -45.609375 31.984375 -41.171875 C 33.785156 -36.742188 36.242188 -32.914062 39.359375 -29.6875 C 42.472656 -26.46875 46.164062 -23.9375 50.4375 -22.09375 C 54.71875 -20.25 59.335938 -19.328125 64.296875 -19.328125 C 69.265625 -19.328125 73.910156 -20.25 78.234375 -22.09375 C 82.566406 -23.9375 86.289062 -26.46875 89.40625 -29.6875 C 92.519531 -32.914062 94.972656 -36.742188 96.765625 -41.171875 C 98.554688 -45.609375 99.453125 -50.363281 99.453125 -55.4375 Z M 99.453125 -55.4375 "/></g></g></g><g fill="#000000" fill-opacity="1"><g transform="translate(949.126675, 161.296311)"><g><path d="M 106.421875 -47.984375 C 106.421875 -40.492188 105.257812 -33.660156 102.9375 -27.484375 C 100.613281 -21.304688 97.3125 -16.078125 93.03125 -11.796875 C 88.757812 -7.523438 83.585938 -4.226562 77.515625 -1.90625 C 71.453125 0.414062 64.722656 1.578125 57.328125 1.578125 C 49.835938 1.578125 43.054688 0.414062 36.984375 -1.90625 C 30.910156 -4.226562 25.757812 -7.523438 21.53125 -11.796875 C 17.3125 -16.078125 14.039062 -21.273438 11.71875 -27.390625 C 9.394531 -33.515625 8.234375 -40.378906 8.234375 -47.984375 L 8.234375 -110.859375 L 31.203125 -110.859375 L 31.203125 -47.984375 C 31.203125 -39.429688 33.601562 -32.566406 38.40625 -27.390625 C 43.207031 -22.222656 49.566406 -19.640625 57.484375 -19.640625 C 65.410156 -19.640625 71.722656 -22.222656 76.421875 -27.390625 C 81.117188 -32.566406 83.46875 -39.429688 83.46875 -47.984375 L 83.46875 -110.859375 L 106.421875 -110.859375 Z M 106.421875 -47.984375 "/></g></g></g><g fill="#000000" fill-opacity="1"><g transform="translate(1063.938037, 161.296311)"><g><path d="M 9.984375 0 L 9.984375 -110.859375 L 65.5625 -110.859375 C 70.945312 -110.859375 75.9375 -109.988281 80.53125 -108.25 C 85.125 -106.507812 89.054688 -104.109375 92.328125 -101.046875 C 95.609375 -97.984375 98.171875 -94.3125 100.015625 -90.03125 C 101.859375 -85.757812 102.78125 -81.085938 102.78125 -76.015625 C 102.78125 -71.054688 101.859375 -66.488281 100.015625 -62.3125 C 98.171875 -58.144531 95.582031 -54.53125 92.25 -51.46875 C 88.925781 -48.40625 84.992188 -46.03125 80.453125 -44.34375 C 75.910156 -42.65625 70.945312 -41.8125 65.5625 -41.8125 L 32.9375 -41.8125 L 32.9375 0 Z M 63.03125 -91.0625 L 32.9375 -91.0625 L 32.9375 -60.8125 L 63.03125 -60.8125 C 68 -60.8125 71.984375 -62.179688 74.984375 -64.921875 C 77.992188 -67.671875 79.5 -71.316406 79.5 -75.859375 C 79.5 -80.398438 77.992188 -84.066406 74.984375 -86.859375 C 71.984375 -89.660156 68 -91.0625 63.03125 -91.0625 Z M 63.03125 -91.0625 "/></g></g></g><g fill="#000000" fill-opacity="1"><g transform="translate(1173.365195, 161.296311)"><g><path d="M 0.46875 -17.578125 L 13.625 -34.046875 C 20.0625 -28.453125 26.257812 -24.359375 32.21875 -21.765625 C 38.1875 -19.179688 44.5 -17.890625 51.15625 -17.890625 C 58.019531 -17.890625 63.507812 -19.15625 67.625 -21.6875 C 71.738281 -24.226562 73.796875 -27.609375 73.796875 -31.828125 C 73.796875 -35.628906 72.394531 -38.585938 69.59375 -40.703125 C 66.800781 -42.816406 62.132812 -44.398438 55.59375 -45.453125 L 33.578125 -49.25 C 24.078125 -50.832031 16.867188 -54.15625 11.953125 -59.21875 C 7.046875 -64.289062 4.59375 -70.84375 4.59375 -78.875 C 4.59375 -89.21875 8.523438 -97.398438 16.390625 -103.421875 C 24.253906 -109.441406 34.890625 -112.453125 48.296875 -112.453125 C 56.328125 -112.453125 64.429688 -111.078125 72.609375 -108.328125 C 80.796875 -105.578125 87.953125 -101.773438 94.078125 -96.921875 L 81.71875 -79.828125 C 75.8125 -84.359375 70.003906 -87.707031 64.296875 -89.875 C 58.597656 -92.039062 52.738281 -93.125 46.71875 -93.125 C 40.59375 -93.125 35.679688 -91.988281 31.984375 -89.71875 C 28.296875 -87.445312 26.453125 -84.410156 26.453125 -80.609375 C 26.453125 -77.234375 27.664062 -74.59375 30.09375 -72.6875 C 32.519531 -70.789062 36.582031 -69.421875 42.28125 -68.578125 L 63.1875 -65.09375 C 74.164062 -63.300781 82.425781 -59.789062 87.96875 -54.5625 C 93.519531 -49.332031 96.296875 -42.441406 96.296875 -33.890625 C 96.296875 -23.117188 92.046875 -14.515625 83.546875 -8.078125 C 75.046875 -1.640625 63.722656 1.578125 49.578125 1.578125 C 40.703125 1.578125 31.960938 -0.109375 23.359375 -3.484375 C 14.753906 -6.859375 7.125 -11.554688 0.46875 -17.578125 Z M 0.46875 -17.578125 "/></g></g></g></g></g><g clip-path="url(#a3bd624e92)"><path fill="#192337" d="M 982.226562 775.277344 C 982.226562 786.085938 973.460938 794.851562 962.652344 794.851562 C 951.851562 794.851562 943.085938 786.085938 943.085938 775.277344 L 943.085938 621.179688 C 943.085938 610.371094 951.851562 601.605469 962.652344 601.605469 C 973.460938 601.605469 982.226562 610.371094 982.226562 621.179688 Z M 1347.257812 962.003906 C 1286.191406 962.003906 1236.6875 1011.515625 1236.6875 1072.582031 C 1236.6875 1133.652344 1286.191406 1183.15625 1347.257812 1183.15625 C 1408.328125 1183.15625 1457.839844 1133.652344 1457.839844 1072.582031 C 1457.839844 1011.515625 1408.328125 962.003906 1347.257812 962.003906 Z M 1208.878906 1325.488281 C 1208.773438 1317.199219 1206.984375 1309.675781 1203.515625 1302.945312 C 1199.402344 1294.976562 1193.210938 1288.554688 1184.980469 1283.695312 C 1183.714844 1282.949219 1182.394531 1282.363281 1181.050781 1281.925781 C 1137.328125 1264.960938 1098.96875 1244.238281 1065.742188 1220.46875 C 1035.363281 1198.734375 1009.292969 1174.441406 987.328125 1148.132812 C 1003.460938 1125.648438 1017.128906 1101.996094 1028.429688 1077.441406 C 1058.714844 1116.378906 1091.683594 1145.417969 1126.460938 1168.09375 C 1167.578125 1194.914062 1210.824219 1212.664062 1254.980469 1227.40625 L 1327.820312 1322.210938 C 1328.429688 1323.015625 1329.121094 1323.789062 1329.882812 1324.511719 C 1337.6875 1331.9375 1350.058594 1331.632812 1357.484375 1323.820312 L 1404.515625 1274.378906 C 1442.726562 1288.050781 1480.390625 1304.773438 1516.34375 1328.679688 C 1555.613281 1354.796875 1593.15625 1389.660156 1627.585938 1438.808594 C 1644.3125 1464.535156 1658.234375 1493.53125 1669.328125 1525.917969 L 1669.328125 1525.996094 C 1680.578125 1558.808594 1688.917969 1594.945312 1694.328125 1634.515625 L 1696.4375 1651.59375 C 1694.445312 1661.460938 1689.117188 1669.179688 1682.097656 1674.316406 C 1676.191406 1678.632812 1669.070312 1681.25 1661.644531 1681.925781 C 1654.140625 1682.601562 1646.277344 1681.289062 1638.984375 1677.757812 C 1628.570312 1672.714844 1619.199219 1662.914062 1613.359375 1647.625 C 1601.4375 1591.410156 1585.898438 1544.152344 1566.773438 1505.886719 C 1546.855469 1466.039062 1522.957031 1435.804688 1495.101562 1415.203125 C 1486.449219 1408.789062 1474.222656 1410.601562 1467.808594 1419.257812 C 1465.207031 1422.75 1463.960938 1426.832031 1463.96875 1430.878906 L 1463.90625 1686.109375 C 1463.90625 1692.230469 1461.441406 1697.769531 1457.476562 1701.730469 C 1453.394531 1705.738281 1447.855469 1708.230469 1441.78125 1708.230469 L 1231.03125 1708.230469 C 1224.949219 1708.230469 1219.417969 1705.738281 1215.402344 1701.730469 L 1214.640625 1701.003906 C 1211.078125 1697.109375 1208.898438 1691.863281 1208.898438 1686.109375 Z M 520.804688 1274.378906 C 482.585938 1288.050781 444.917969 1304.777344 408.96875 1328.679688 C 369.699219 1354.796875 332.15625 1389.660156 297.714844 1438.800781 C 281 1464.535156 267.074219 1493.53125 255.957031 1525.980469 C 244.726562 1558.816406 236.382812 1594.945312 230.984375 1634.515625 L 228.867188 1651.589844 C 230.871094 1661.457031 236.183594 1669.179688 243.210938 1674.316406 C 249.113281 1678.632812 256.25 1681.25 263.675781 1681.925781 C 271.175781 1682.601562 279.035156 1681.289062 286.335938 1677.757812 C 296.746094 1672.714844 306.109375 1662.914062 311.957031 1647.621094 C 323.867188 1591.410156 339.40625 1544.152344 358.539062 1505.886719 C 378.457031 1466.039062 402.355469 1435.804688 430.203125 1415.203125 C 438.863281 1408.789062 451.082031 1410.601562 457.5 1419.257812 C 460.097656 1422.75 461.351562 1426.832031 461.402344 1430.878906 L 461.402344 1686.109375 C 461.402344 1692.230469 463.863281 1697.769531 467.910156 1701.730469 C 471.917969 1705.738281 477.453125 1708.230469 483.53125 1708.230469 L 694.28125 1708.230469 C 700.355469 1708.230469 705.894531 1705.738281 709.90625 1701.730469 L 710.675781 1701.003906 C 714.226562 1697.109375 716.40625 1691.863281 716.40625 1686.109375 L 716.433594 1325.589844 C 716.519531 1317.25 718.316406 1309.6875 721.796875 1302.945312 C 725.882812 1295.023438 732.101562 1288.59375 740.410156 1283.695312 C 741.328125 1283.160156 742.277344 1282.703125 743.246094 1282.332031 C 809.054688 1256.917969 862.683594 1223.0625 905.003906 1183.136719 C 949.742188 1140.921875 981.886719 1091.8125 1002.488281 1038.679688 C 1005.273438 1030.773438 1005.042969 1022.410156 1002.308594 1014.988281 C 999.566406 1007.558594 994.339844 1001.074219 987.097656 996.898438 C 979.863281 992.761719 971.617188 991.476562 963.8125 992.8125 C 956.613281 994.050781 949.792969 997.554688 944.507812 1003.128906 C 907.066406 1073.859375 863.382812 1121.746094 815.871094 1156.328125 C 769.734375 1189.914062 720.628906 1210.589844 670.339844 1227.394531 L 597.503906 1322.210938 C 596.882812 1323.015625 596.199219 1323.789062 595.4375 1324.511719 C 587.625 1331.9375 575.257812 1331.632812 567.828125 1323.820312 Z M 578.046875 962.003906 C 639.117188 962.003906 688.628906 1011.515625 688.628906 1072.582031 C 688.628906 1133.648438 639.117188 1183.15625 578.046875 1183.15625 C 516.980469 1183.15625 467.476562 1133.648438 467.476562 1072.582031 C 467.476562 1011.515625 516.980469 962.003906 578.046875 962.003906 Z M 1093 837 C 1085.78125 844.976562 1073.445312 845.59375 1065.472656 838.375 C 1057.488281 831.160156 1056.875 818.824219 1064.097656 810.847656 L 1167.429688 696.523438 C 1174.640625 688.546875 1186.976562 687.933594 1194.957031 695.148438 C 1202.933594 702.367188 1203.546875 714.699219 1196.332031 722.679688 Z M 861.214844 810.847656 C 868.4375 818.824219 867.816406 831.160156 859.84375 838.375 C 851.859375 845.59375 839.527344 844.976562 832.3125 837 L 728.980469 722.679688 C 721.761719 714.699219 722.378906 702.367188 730.355469 695.148438 C 738.339844 687.933594 750.664062 688.546875 757.886719 696.523438 Z M 861.214844 810.847656 " fill-opacity="1" fill-rule="evenodd"/></g></svg>