<?xml version="1.0" encoding="UTF-8"?><svg id="a" xmlns="http://www.w3.org/2000/svg" viewBox="0 0 1000 1538.76"><defs><style>.b{fill:#5cbf3b;}.c{fill:#f0f2ed;}</style></defs><path class="b" d="M40.16,1461.07l-6.02,3.56-18.69,46.49-4.56,1.27.18,3.83h16.04l.18-3.83-5.65-1.27,3.99-11.34c1.49-.05,2.98-.09,4.4-.14,1.82-.06,3.74-.09,5.74-.09s4.04.03,5.93.09c1.23.04,2.38.05,3.56.06l4.55,11.43-5.65,1.27.27,3.83h20.24l.27-3.83-4.65-1.27-20.14-50.04ZM35.79,1494.8c-2.73,0-5.03-.03-6.88-.09-.52-.02-.95-.03-1.41-.05l7.47-20.55,8.47,20.58c-.25,0-.45.02-.71.03-1.88.06-4.19.09-6.93.09Z"/><path class="b" d="M149.23,1508.52c-.06-1.24-.14-2.89-.23-4.92-.09-2.03-.17-4.48-.23-7.34l-.46-16.5c-.06-2.92-.12-5.47-.18-7.66-.06-2.19-.06-3.65,0-4.38l5.74-1.18-.27-3.83h-16.13l-17.3,40.47-18.16-40.47h-16.77l-.27,3.83,5.65,1.28c0,.91.01,2.4.05,4.47.03,2.07.01,4.59-.05,7.57l-.27,17.87c0,2.37-.03,4.48-.09,6.33-.06,1.86-.11,3.39-.14,4.6-.03,1.22-.08,2.04-.14,2.46l-6.29,1.27.27,3.83h18.59l.27-3.83-6.29-1.27c-.06-.55-.11-1.9-.14-4.06-.03-2.16-.05-5.73-.05-10.71l-.07-23.57,19.76,43.72h3.92l19.09-44.44.14,25.2c.06,2.98.09,5.39.09,7.25v4.33c0,1.03-.03,1.79-.09,2.28l-5.65,1.27.27,3.83h20.96l.27-3.83-5.65-1.27c-.06-.49-.12-1.35-.18-2.6Z"/><path class="b" d="M189.45,1508.79c-1.67.82-3.57,1.23-5.7,1.23-3.89,0-7.03-1.37-9.44-4.1-2.22-2.53-3.37-5.96-3.53-10.21h25.82v-1.82c0-5.47-1.35-9.8-4.06-12.99-2.7-3.19-6.55-4.81-11.53-4.88-3.4-.06-6.56.79-9.48,2.55-2.92,1.76-5.29,4.24-7.11,7.43-1.82,3.19-2.73,6.91-2.73,11.16,0,3.95.84,7.42,2.51,10.39,1.67,2.98,3.97,5.29,6.88,6.93,2.92,1.64,6.2,2.46,9.84,2.46,3.4,0,6.49-.82,9.25-2.46,2.77-1.64,5-4.13,6.7-7.48l-2.46-2.28c-1.64,1.88-3.3,3.24-4.97,4.06ZM172.04,1486.05c.88-1.94,2.07-3.4,3.56-4.37,1.49-.97,3.05-1.46,4.69-1.46,2.55,0,4.57.93,6.06,2.78,1.49,1.85,2.23,4.42,2.23,7.7v.73h-17.71c.16-2.04.49-3.9,1.16-5.38Z"/><path class="b" d="M226.16,1509.61c-1.19.52-2.42.77-3.69.77-2.43,0-4.3-.7-5.61-2.1-1.31-1.4-1.96-3.56-1.96-6.47l.08-20.05h13.5v-4.92h-13.45l.14-8.48h-2.19l-12.85,11.21v2.19h6.38l-.27,21.33c0,4.68,1.24,8.16,3.74,10.44,2.49,2.28,5.65,3.42,9.48,3.42,2.43,0,4.71-.62,6.84-1.87,2.13-1.24,3.74-2.96,4.83-5.15l-1.82-2.37c-.91.85-1.96,1.53-3.14,2.05Z"/><path class="b" d="M273.08,1507.65c-.09-1.76-.14-3.71-.14-5.83v-9.66c0-3.58-.62-6.56-1.87-8.93-1.24-2.37-2.87-4.16-4.88-5.38-2.01-1.22-4.19-1.82-6.56-1.82s-4.71.55-6.84,1.64c-2.13,1.1-4.19,2.8-6.2,5.11l-.27-.09c0-3.65.03-6.84.09-9.57.06-2.74.1-5.16.14-7.29.03-2.13.07-4.12.14-5.97.06-1.85.12-3.72.18-5.6l-2.01-1.37-14.22,3.92.18,3.28,6.74.91c.06.67.12,1.82.18,3.46.06,1.64.1,3.53.14,5.65.03,2.13.06,4.33.09,6.61.03,2.28.05,4.45.05,6.52v11.39c0,2.92-.03,5.53-.09,7.84-.06,2.31-.12,4.19-.18,5.65-.06,1.46-.15,2.49-.27,3.1l-5.65,1.46.27,3.56h20.14l.27-3.56-5.56-1.46c-.18-.49-.32-1.61-.41-3.37-.09-1.76-.14-3.98-.14-6.65v-13.58c1.15-1.58,2.55-2.81,4.19-3.69,1.64-.88,3.37-1.32,5.2-1.32,1.52,0,2.93.36,4.24,1.1,1.31.73,2.37,1.87,3.19,3.42.82,1.55,1.23,3.57,1.23,6.06v9.12c0,1.52-.02,2.86-.05,4.01-.03,1.15-.08,2.14-.14,2.96-.06.82-.12,1.47-.18,1.96l-5.29,1.46.27,3.56h19.78l.18-3.56-5.65-1.46c-.12-.61-.23-1.79-.32-3.56Z"/><path class="b" d="M314.13,1478.57c-2.92-1.7-6.29-2.55-10.12-2.55s-7.12.85-10.25,2.55c-3.13,1.7-5.64,4.09-7.52,7.16-1.88,3.07-2.82,6.73-2.82,10.98,0,3.95.85,7.46,2.55,10.53,1.7,3.07,4.06,5.45,7.07,7.15,3.01,1.7,6.55,2.55,10.62,2.55,3.65,0,6.96-.93,9.94-2.78,2.98-1.85,5.33-4.34,7.06-7.48,1.73-3.13,2.6-6.64,2.6-10.53s-.79-7.52-2.37-10.53c-1.58-3.01-3.83-5.36-6.74-7.07ZM312.62,1505.56c-.76,2.13-1.82,3.77-3.19,4.92-1.37,1.15-2.99,1.73-4.88,1.73-2.19,0-4.16-.74-5.93-2.23-1.76-1.49-3.13-3.54-4.1-6.15-.97-2.61-1.46-5.59-1.46-8.93,0-4.31.9-7.78,2.69-10.39,1.79-2.61,4.15-3.92,7.06-3.92,3.34,0,6,1.63,7.98,4.88,1.97,3.25,2.96,7.49,2.96,12.71,0,2.8-.38,5.26-1.14,7.38Z"/><path class="b" d="M367.57,1504.6c-.15-2.1-.23-4.69-.23-7.79l.09-21.05c0-3.71.05-7.28.14-10.71.09-3.43.2-7.03.32-10.8l-1.91-1.37-14.58,3.92.18,3.37,7.02,1.19c.06.55.1,1.52.14,2.92.03,1.4.06,2.98.09,4.74.03,1.76.06,3.46.09,5.11.03,1.64.05,3.01.05,4.1-1.1-.73-2.43-1.26-4.01-1.6-1.58-.33-3.13-.5-4.65-.5-2.61,0-5.17.5-7.66,1.5-2.49,1-4.74,2.46-6.74,4.37-2.01,1.91-3.59,4.21-4.74,6.88-1.16,2.67-1.73,5.68-1.73,9.03,0,3.77.81,7.08,2.42,9.94,1.61,2.86,3.77,5.09,6.47,6.7,2.7,1.61,5.76,2.41,9.16,2.41,2.06,0,4.06-.52,5.97-1.55,1.91-1.03,3.72-2.83,5.42-5.38l.27.09-.09,5.92,1.73,1.19,13.04-3.28v-3.28l-5.83-1.46c-.12-.97-.26-2.51-.41-4.6ZM358.95,1505.28c-1.34,1.76-2.73,3.01-4.19,3.74-1.46.73-2.92,1.1-4.37,1.1-3.22,0-5.94-1.31-8.16-3.92-2.22-2.61-3.33-6.26-3.33-10.94,0-4.44,1.03-7.99,3.1-10.67,2.06-2.67,4.86-4.01,8.39-4.01,1.52,0,3.07.38,4.65,1.14,1.58.76,2.89,2.02,3.92,3.78v19.78Z"/><path class="b" d="M387.46,1466.82c1.82,0,3.3-.59,4.42-1.78,1.12-1.18,1.69-2.6,1.69-4.24s-.56-3.05-1.69-4.24c-1.12-1.19-2.6-1.78-4.42-1.78s-3.33.59-4.51,1.78c-1.19,1.18-1.78,2.6-1.78,4.24s.59,3.05,1.78,4.24c1.19,1.19,2.69,1.78,4.51,1.78Z"/><path class="b" d="M391.79,1507.74c-.09-1.82-.14-4.01-.14-6.56v-11.49c0-2.43.05-4.57.14-6.43.09-1.85.23-3.72.41-5.61l-1.73-1.46-14.22,3.65v3.37l6.11,1.28c.24,1.28.43,2.84.55,4.69.12,1.86.18,3.87.18,6.06v6.47c0,2.07-.03,3.75-.09,5.06-.06,1.31-.12,2.31-.18,3.01-.06.7-.12,1.17-.18,1.41l-6.11,1.37.27,3.65h21.24l.18-3.65-6.11-1.37c-.12-.49-.23-1.64-.32-3.46Z"/><path class="b" d="M421.89,1493.34c-3.52-1.58-5.99-2.9-7.38-3.97-1.4-1.06-2.1-2.45-2.1-4.15,0-1.46.62-2.67,1.87-3.65,1.24-.97,2.9-1.46,4.97-1.46.91,0,1.79.11,2.64.32.85.21,1.58.5,2.19.86l2.1,6.29h4.74l-1-9.75c-1.22-.55-2.74-.99-4.56-1.32-1.82-.33-3.62-.5-5.38-.5-3.22,0-6.05.5-8.48,1.5-2.43,1-4.35,2.37-5.74,4.1-1.4,1.73-2.1,3.72-2.1,5.97,0,2.8.88,5.11,2.64,6.93,1.76,1.82,4.83,3.62,9.21,5.38,3.34,1.34,5.57,2.57,6.7,3.69,1.12,1.12,1.69,2.45,1.69,3.97s-.59,2.82-1.78,3.74c-1.18.91-2.78,1.37-4.78,1.37-2.67,0-5.08-.7-7.2-2.1l-1.91-6.56h-4.92l.46,10.03c1.64.91,3.63,1.63,5.97,2.14,2.34.52,4.66.77,6.97.77,4.68,0,8.52-1.08,11.53-3.24,3.01-2.16,4.51-4.97,4.51-8.43,0-2.61-.81-4.82-2.41-6.61-1.61-1.79-4.42-3.57-8.43-5.33Z"/><path class="b" d="M462.21,1509.61c-1.19.52-2.42.77-3.69.77-2.43,0-4.3-.7-5.61-2.1-1.31-1.4-1.96-3.56-1.96-6.47l.08-20.05h13.5v-4.92h-13.45l.14-8.48h-2.19l-12.85,11.21v2.19h6.38l-.27,21.33c0,4.68,1.24,8.16,3.74,10.44,2.49,2.28,5.65,3.42,9.48,3.42,2.43,0,4.71-.62,6.84-1.87,2.13-1.24,3.74-2.96,4.83-5.15l-1.82-2.37c-.91.85-1.96,1.53-3.14,2.05Z"/><path class="b" d="M526.93,1509.11c-1.34.85-2.83,1.5-4.47,1.96-1.64.46-3.34.68-5.1.68-3.59,0-6.84-.91-9.75-2.73-2.92-1.82-5.24-4.5-6.97-8.02-1.73-3.52-2.6-7.78-2.6-12.76,0-4.01.67-7.63,2.01-10.85,1.34-3.22,3.37-5.76,6.11-7.61,2.73-1.85,6.23-2.78,10.48-2.78,1.7,0,3.42.18,5.15.55,1.73.36,3.18.91,4.33,1.64l2.83,8.93,4.56-.36-.64-12.94c-2.07-.91-4.5-1.63-7.29-2.14-2.8-.52-5.5-.77-8.11-.77-4.68,0-8.9.71-12.67,2.14-3.77,1.43-6.99,3.4-9.66,5.93-2.67,2.52-4.71,5.5-6.11,8.93-1.4,3.43-2.1,7.13-2.1,11.08,0,5.89,1.29,10.86,3.87,14.9,2.58,4.04,6.06,7.08,10.44,9.11,4.37,2.04,9.3,3.05,14.77,3.05,3.28,0,6.43-.43,9.43-1.27,3.01-.85,5.48-1.82,7.43-2.92l2.64-11.67-4.83-.55-3.74,8.48Z"/><path class="b" d="M570.75,1478.57c-2.92-1.7-6.29-2.55-10.12-2.55s-7.12.85-10.25,2.55c-3.13,1.7-5.64,4.09-7.52,7.16-1.88,3.07-2.82,6.73-2.82,10.98,0,3.95.85,7.46,2.55,10.53,1.7,3.07,4.06,5.45,7.07,7.15,3.01,1.7,6.55,2.55,10.62,2.55,3.65,0,6.96-.93,9.94-2.78,2.98-1.85,5.33-4.34,7.06-7.48,1.73-3.13,2.6-6.64,2.6-10.53s-.79-7.52-2.37-10.53c-1.58-3.01-3.83-5.36-6.74-7.07ZM569.24,1505.56c-.76,2.13-1.82,3.77-3.19,4.92-1.37,1.15-2.99,1.73-4.88,1.73-2.19,0-4.16-.74-5.93-2.23-1.76-1.49-3.13-3.54-4.1-6.15-.97-2.61-1.46-5.59-1.46-8.93,0-4.31.9-7.78,2.69-10.39,1.79-2.61,4.15-3.92,7.06-3.92,3.34,0,6,1.63,7.98,4.88,1.97,3.25,2.96,7.49,2.96,12.71,0,2.8-.38,5.26-1.14,7.38Z"/><path class="b" d="M625.96,1507.7c-.06-1.79-.09-3.75-.09-5.88v-9.84c0-3.52-.62-6.47-1.87-8.84-1.24-2.37-2.87-4.15-4.88-5.33-2.01-1.19-4.19-1.78-6.56-1.78s-4.73.55-6.88,1.64c-2.16,1.1-4.24,2.8-6.24,5.11l-.27-.09.46-4.92-1.82-1.55-13.49,3.65v3.37l5.83,1.28c.24,1.28.44,2.81.59,4.6.15,1.79.23,3.66.23,5.61l-.09,7.02c0,1.95-.03,3.56-.09,4.83-.06,1.28-.12,2.29-.18,3.05-.06.76-.12,1.29-.18,1.6l-5.65,1.46.27,3.56h20.24l.27-3.56-5.65-1.46c-.18-.55-.32-1.7-.41-3.46-.09-1.76-.14-3.95-.14-6.56v-13.58c1.15-1.58,2.54-2.81,4.15-3.69,1.61-.88,3.36-1.32,5.24-1.32,1.46,0,2.84.35,4.15,1.05,1.31.7,2.38,1.82,3.23,3.37.85,1.55,1.28,3.6,1.28,6.15v9.12c0,1.52-.02,2.86-.05,4.01-.03,1.15-.08,2.14-.14,2.96-.06.82-.12,1.47-.18,1.96l-5.29,1.46.18,3.56h19.78l.27-3.56-5.65-1.46c-.18-.55-.3-1.72-.36-3.51Z"/><path class="b" d="M663.45,1477.94c-2.52-1.28-5.39-1.91-8.61-1.91s-6.14.67-8.75,2.01c-2.61,1.34-4.68,3.15-6.2,5.42-1.52,2.28-2.28,4.88-2.28,7.79,0,2.67.73,5.06,2.19,7.16,1.31,1.88,3.1,3.38,5.32,4.53-1.63.86-3.03,1.8-4.14,2.85-1.7,1.61-2.55,3.27-2.55,4.97,0,1.82.81,3.31,2.41,4.47,1.16.83,2.56,1.36,4.19,1.59-3.1,1.43-5.5,2.92-7.1,4.47-1.79,1.73-2.69,3.63-2.69,5.7,0,3.04,1.69,5.47,5.06,7.29,3.37,1.82,7.98,2.73,13.81,2.73,4.07,0,7.72-.65,10.94-1.96,3.22-1.31,5.77-3.1,7.66-5.38,1.88-2.28,2.82-4.82,2.82-7.61,0-3.16-1.11-5.64-3.33-7.43-2.22-1.79-5.48-2.9-9.8-3.33l-12.4-1.28c-1.22-.12-2.16-.44-2.82-.96-.67-.51-1-1.17-1-1.96,0-.61.26-1.21.77-1.82.31-.36.72-.73,1.18-1.11,2.01.61,4.21.93,6.61.93,3.22,0,6.11-.62,8.66-1.87,2.55-1.24,4.56-2.98,6.02-5.2,1.46-2.22,2.19-4.69,2.19-7.43s-.73-5.21-2.19-7.43c-.15-.22-.37-.39-.52-.6l8.09.65v-6.29l-13.01,1.36c-.19-.11-.33-.25-.53-.35ZM658.39,1518.22c3.22.24,5.53.84,6.93,1.78,1.4.94,2.1,2.36,2.1,4.24,0,2.49-1.19,4.54-3.56,6.15-2.37,1.61-5.44,2.41-9.21,2.41-3.34,0-5.97-.64-7.88-1.91-1.91-1.27-2.87-3.04-2.87-5.29,0-1.7.51-3.3,1.55-4.78.88-1.27,2.11-2.37,3.57-3.35l9.37.75ZM660.76,1498.26c-1.34,1.76-3.16,2.64-5.47,2.64-2.49,0-4.5-.97-6.02-2.92-1.52-1.94-2.28-4.47-2.28-7.57s.71-5.59,2.14-7.48c1.43-1.88,3.3-2.82,5.61-2.82,2.43,0,4.38,1,5.83,3.01,1.46,2.01,2.19,4.68,2.19,8.02,0,2.98-.67,5.35-2.01,7.11Z"/><path class="b" d="M705.13,1476.29c-1.76,0-3.57.61-5.42,1.82-1.85,1.22-3.66,3.56-5.42,7.02l-.27-.09.36-7.48-1.64-1.37-13.4,3.65v3.37l5.83,1.28c.24,1.28.44,2.8.59,4.56.15,1.76.23,3.65.23,5.65l-.09,7.02c0,1.82-.03,3.4-.09,4.74-.06,1.34-.12,2.4-.18,3.19-.06.79-.12,1.31-.18,1.55l-5.65,1.46.27,3.56h22.6l.27-3.74-7.93-1.28c-.06-.61-.12-1.55-.18-2.83-.06-1.28-.12-2.75-.18-4.42-.06-1.67-.12-3.39-.18-5.15l-.09-8.02c.79-1.76,1.67-3.25,2.64-4.47.77-.96,1.57-1.73,2.38-2.39.63.48,1.27.91,1.91,1.21,1.03.49,2.16.73,3.37.73,1.64,0,3.01-.42,4.1-1.28,1.09-.85,1.64-2.06,1.64-3.65s-.52-2.75-1.55-3.51c-1.03-.76-2.28-1.14-3.74-1.14Z"/><path class="b" d="M740.34,1508.79c-1.67.82-3.57,1.23-5.7,1.23-3.89,0-7.03-1.37-9.44-4.1-2.22-2.53-3.37-5.96-3.53-10.21h25.82v-1.82c0-5.47-1.35-9.8-4.06-12.99-2.7-3.19-6.55-4.81-11.53-4.88-3.4-.06-6.56.79-9.48,2.55-2.92,1.76-5.29,4.24-7.11,7.43-1.82,3.19-2.73,6.91-2.73,11.16,0,3.95.84,7.42,2.51,10.39,1.67,2.98,3.97,5.29,6.88,6.93,2.92,1.64,6.2,2.46,9.84,2.46,3.4,0,6.49-.82,9.25-2.46,2.77-1.64,5-4.13,6.7-7.48l-2.46-2.28c-1.64,1.88-3.3,3.24-4.97,4.06ZM722.93,1486.05c.88-1.94,2.07-3.4,3.56-4.37,1.49-.97,3.05-1.46,4.69-1.46,2.55,0,4.57.93,6.06,2.78,1.49,1.85,2.23,4.42,2.23,7.7v.73h-17.71c.16-2.04.49-3.9,1.16-5.38Z"/><path class="b" d="M780.43,1477.94c-2.52-1.28-5.39-1.91-8.61-1.91s-6.14.67-8.75,2.01c-2.61,1.34-4.68,3.15-6.2,5.42-1.52,2.28-2.28,4.88-2.28,7.79,0,2.67.73,5.06,2.19,7.16,1.31,1.88,3.1,3.38,5.32,4.53-1.63.86-3.03,1.8-4.14,2.85-1.7,1.61-2.55,3.27-2.55,4.97,0,1.82.81,3.31,2.41,4.47,1.16.83,2.56,1.36,4.19,1.59-3.1,1.43-5.5,2.92-7.1,4.47-1.79,1.73-2.69,3.63-2.69,5.7,0,3.04,1.69,5.47,5.06,7.29,3.37,1.82,7.98,2.73,13.81,2.73,4.07,0,7.72-.65,10.94-1.96,3.22-1.31,5.77-3.1,7.66-5.38,1.88-2.28,2.82-4.82,2.82-7.61,0-3.16-1.11-5.64-3.33-7.43-2.22-1.79-5.48-2.9-9.8-3.33l-12.4-1.28c-1.22-.12-2.16-.44-2.82-.96-.67-.51-1-1.17-1-1.96,0-.61.26-1.21.77-1.82.31-.36.72-.73,1.18-1.11,2.01.61,4.21.93,6.61.93,3.22,0,6.11-.62,8.66-1.87,2.55-1.24,4.56-2.98,6.02-5.2,1.46-2.22,2.19-4.69,2.19-7.43s-.73-5.21-2.19-7.43c-.15-.22-.37-.39-.52-.6l8.09.65v-6.29l-13.01,1.36c-.19-.11-.33-.25-.53-.35ZM775.37,1518.22c3.22.24,5.53.84,6.93,1.78,1.4.94,2.1,2.36,2.1,4.24,0,2.49-1.19,4.54-3.56,6.15-2.37,1.61-5.44,2.41-9.21,2.41-3.34,0-5.97-.64-7.88-1.91-1.91-1.27-2.87-3.04-2.87-5.29,0-1.7.51-3.3,1.55-4.78.88-1.27,2.11-2.37,3.57-3.35l9.37.75ZM777.74,1498.26c-1.34,1.76-3.16,2.64-5.47,2.64-2.49,0-4.5-.97-6.02-2.92-1.52-1.94-2.28-4.47-2.28-7.57s.71-5.59,2.14-7.48c1.43-1.88,3.3-2.82,5.61-2.82,2.43,0,4.38,1,5.83,3.01,1.46,2.01,2.19,4.68,2.19,8.02,0,2.98-.67,5.35-2.01,7.11Z"/><path class="b" d="M829.99,1507.15c-.09-1.06-.14-2.23-.14-3.51l.18-14.49c-.06-3.95-1.5-7.12-4.33-9.53-2.83-2.4-6.64-3.6-11.44-3.6-1.58.24-3.25.71-5.01,1.41-1.76.7-3.42,1.53-4.97,2.51-1.55.97-2.83,2.01-3.83,3.1-1,1.09-1.5,2.16-1.5,3.19,0,1.64.84,2.81,2.51,3.51,1.67.7,3.72.77,6.15.23l.27-4.38c.12-1.7.42-2.84.91-3.42.48-.58,1.43-.87,2.82-.87,1.76,0,3.37.37,4.83,1.1,1.46.73,2.63,1.69,3.51,2.87.88,1.19,1.32,2.51,1.32,3.97v4.19l-14.04,4.56c-2.98.91-5.14,2.07-6.47,3.46-1.34,1.4-2.01,3.13-2.01,5.2,0,1.58.52,3.16,1.55,4.74,1.03,1.58,2.52,2.9,4.47,3.97,1.94,1.06,4.19,1.6,6.74,1.6,1.94,0,3.86-.59,5.74-1.78,1.51-.95,3.05-2.35,4.61-3.99l.77,2.48c.73,2.19,2.1,3.28,4.1,3.28.61,0,1.31-.11,2.1-.32.79-.21,1.64-.5,2.55-.86l4.92-1.91v-3.19l-5.93-1.09c-.18-.55-.32-1.35-.41-2.41ZM821.28,1507.38c-.97,1.1-2.01,1.91-3.1,2.46-1.09.55-2.25.82-3.46.82-1.76,0-3.28-.59-4.56-1.78-1.28-1.19-1.91-2.54-1.91-4.06,0-1.22.32-2.2.96-2.96.64-.76,1.69-1.32,3.14-1.69l8.93-2.19v9.39Z"/><path class="b" d="M864.15,1509.61c-1.19.52-2.42.77-3.69.77-2.43,0-4.3-.7-5.61-2.1-1.31-1.4-1.96-3.56-1.96-6.47l.08-20.05h13.5v-4.92h-13.45l.14-8.48h-2.19l-12.85,11.21v2.19h6.38l-.27,21.33c0,4.68,1.24,8.16,3.74,10.44,2.49,2.28,5.65,3.42,9.48,3.42,2.43,0,4.71-.62,6.84-1.87,2.13-1.24,3.74-2.96,4.83-5.15l-1.82-2.37c-.91.85-1.96,1.53-3.14,2.05Z"/><path class="b" d="M884.73,1507.74c-.09-1.82-.14-4.01-.14-6.56v-11.49c0-2.43.05-4.57.14-6.43.09-1.85.23-3.72.41-5.61l-1.73-1.46-14.22,3.65v3.37l6.11,1.28c.24,1.28.43,2.84.55,4.69.12,1.86.18,3.87.18,6.06v6.47c0,2.07-.03,3.75-.09,5.06-.06,1.31-.12,2.31-.18,3.01-.06.7-.12,1.17-.18,1.41l-6.11,1.37.27,3.65h21.24l.18-3.65-6.11-1.37c-.12-.49-.23-1.64-.32-3.46Z"/><path class="b" d="M880.4,1466.82c1.82,0,3.3-.59,4.42-1.78,1.12-1.18,1.69-2.6,1.69-4.24s-.56-3.05-1.69-4.24c-1.12-1.19-2.6-1.78-4.42-1.78s-3.33.59-4.51,1.78c-1.19,1.18-1.78,2.6-1.78,4.24s.59,3.05,1.78,4.24c1.19,1.19,2.69,1.78,4.51,1.78Z"/><path class="b" d="M926.13,1478.57c-2.92-1.7-6.29-2.55-10.12-2.55s-7.12.85-10.25,2.55c-3.13,1.7-5.64,4.09-7.52,7.16-1.88,3.07-2.82,6.73-2.82,10.98,0,3.95.85,7.46,2.55,10.53,1.7,3.07,4.06,5.45,7.07,7.15,3.01,1.7,6.55,2.55,10.62,2.55,3.65,0,6.96-.93,9.94-2.78,2.98-1.85,5.33-4.34,7.06-7.48,1.73-3.13,2.6-6.64,2.6-10.53s-.79-7.52-2.37-10.53c-1.58-3.01-3.83-5.36-6.74-7.07ZM924.63,1505.56c-.76,2.13-1.82,3.77-3.19,4.92-1.37,1.15-2.99,1.73-4.88,1.73-2.19,0-4.16-.74-5.93-2.23-1.76-1.49-3.13-3.54-4.1-6.15-.97-2.61-1.46-5.59-1.46-8.93,0-4.31.9-7.78,2.69-10.39,1.79-2.61,4.15-3.92,7.06-3.92,3.34,0,6,1.63,7.98,4.88,1.97,3.25,2.96,7.49,2.96,12.71,0,2.8-.38,5.26-1.14,7.38Z"/><path class="b" d="M981.71,1511.21c-.18-.55-.3-1.72-.36-3.51-.06-1.79-.09-3.75-.09-5.88v-9.84c0-3.52-.62-6.47-1.87-8.84-1.24-2.37-2.87-4.15-4.88-5.33-2.01-1.19-4.19-1.78-6.56-1.78s-4.73.55-6.88,1.64c-2.16,1.1-4.24,2.8-6.24,5.11l-.27-.09.46-4.92-1.82-1.55-13.49,3.65v3.37l5.83,1.28c.24,1.28.44,2.81.59,4.6.15,1.79.23,3.66.23,5.61l-.09,7.02c0,1.95-.03,3.56-.09,4.83-.06,1.28-.12,2.29-.18,3.05-.06.76-.12,1.29-.18,1.6l-5.65,1.46.27,3.56h20.24l.27-3.56-5.65-1.46c-.18-.55-.32-1.7-.41-3.46-.09-1.76-.14-3.95-.14-6.56v-13.58c1.15-1.58,2.54-2.81,4.15-3.69,1.61-.88,3.36-1.32,5.24-1.32,1.46,0,2.84.35,4.15,1.05,1.31.7,2.38,1.82,3.23,3.37.85,1.55,1.28,3.6,1.28,6.15v9.12c0,1.52-.02,2.86-.05,4.01-.03,1.15-.08,2.14-.14,2.96-.06.82-.12,1.47-.18,1.96l-5.29,1.46.18,3.56h19.78l.27-3.56-5.65-1.46Z"/><polygon class="c" points="36.78 1191.19 87.97 1246.27 117.4 1246.27 57.19 1183.1 115.39 1124.38 87.98 1124.38 36.78 1178.11 36.78 1124.38 14.63 1124.38 14.63 1246.27 36.78 1246.27 36.78 1191.19"/><polygon class="c" points="219.24 1227.22 153.03 1227.22 153.03 1194.16 198.77 1194.16 198.77 1175.45 153.03 1175.45 153.03 1143.43 218.55 1143.43 218.55 1124.38 130.88 1124.38 130.88 1246.27 219.24 1246.27 219.24 1227.22"/><polygon class="c" points="328.3 1210.31 266.68 1124.38 245.42 1124.38 245.42 1246.27 266.36 1246.27 266.02 1157.93 329.36 1246.27 348.91 1246.27 348.91 1124.38 327.96 1124.38 328.3 1210.31"/><polygon class="c" points="464.04 1210.31 402.42 1124.38 381.16 1124.38 381.16 1246.27 402.1 1246.27 401.76 1157.93 465.1 1246.27 484.65 1246.27 484.65 1124.38 463.7 1124.38 464.04 1210.31"/><polygon class="c" points="607.64 1227.22 541.43 1227.22 541.43 1194.16 587.18 1194.16 587.18 1175.45 541.43 1175.45 541.43 1143.43 606.96 1143.43 606.96 1124.38 519.29 1124.38 519.29 1246.27 607.64 1246.27 607.64 1227.22"/><path class="c" d="M700.4,1243.28c7.31-3.25,13.12-7.84,17.25-13.66,4.14-5.84,6.25-12.58,6.25-20.04,0-9.34-3-16.88-8.93-22.39-5.87-5.46-15.06-9.35-27.3-11.54l-21.49-3.61c-6.38-1.12-11.03-2.83-13.85-5.09-2.76-2.22-4.1-5.32-4.1-9.47,0-3.03.96-5.83,2.86-8.31,1.91-2.51,4.64-4.52,8.11-5.95,3.51-1.45,7.66-2.18,12.35-2.18,6.64,0,13.2,1.17,19.52,3.48,6.32,2.32,12.56,5.78,18.55,10.3l.63.48,11.35-16.74-.59-.43c-6.91-5.06-14.56-8.98-22.74-11.63-8.18-2.65-16.94-3.99-26.03-3.99s-17.13,1.56-23.79,4.63c-6.69,3.08-11.97,7.45-15.7,12.99-3.74,5.55-5.63,12.08-5.63,19.42,0,8.31,2.65,15.23,7.87,20.56,5.19,5.31,13.17,8.94,23.71,10.79l22.18,3.78c7.86,1.35,13.45,3.29,16.6,5.78,3.11,2.45,4.61,5.94,4.61,10.67,0,3.59-1.07,6.79-3.19,9.51-2.14,2.75-5.22,4.92-9.14,6.47-3.96,1.56-8.58,2.35-13.74,2.35-6.86,0-13.39-1.31-19.39-3.89-6.04-2.6-13.01-7.07-20.72-13.31l-.61-.5-12.07,16.34.55.45c7.7,6.44,15.84,11.37,24.2,14.66,8.36,3.29,17.4,4.95,26.85,4.95s18.3-1.64,25.58-4.88Z"/><path class="c" d="M805,1124.38h-24.93l-47.88,121.89h23.13l12.38-33.71h48.3l12.38,33.71h23.81l-47.19-121.89ZM774.27,1194.88l17.67-47.98,17.83,47.98h-35.5Z"/><polygon class="c" points="899.2 1246.27 924.94 1157.25 950.69 1246.27 973.36 1246.27 1000 1124.38 978.15 1124.38 960.75 1210.05 935.65 1124.38 914.92 1124.38 889.82 1210.21 872.42 1124.38 849.88 1124.38 876.53 1246.27 899.2 1246.27"/><path class="c" d="M132.8,1386.55c-5.46,6.79-11.97,12.07-19.35,15.68-7.37,3.61-15.3,5.44-23.56,5.44-7.52,0-14.59-1.42-20.99-4.22-6.41-2.8-12.09-6.8-16.88-11.88-4.79-5.09-8.57-11.11-11.23-17.9-2.66-6.79-4-14.28-4-22.26s1.35-15.47,4-22.26c2.66-6.79,6.44-12.81,11.23-17.9,4.78-5.08,10.46-9.08,16.88-11.88,6.42-2.8,13.48-4.22,20.99-4.22,8.26,0,16.19,1.79,23.56,5.33,7.37,3.54,13.88,8.85,19.34,15.79l.52.66,19.12-18.64-.43-.53c-4.85-6.05-10.63-11.22-17.2-15.38-6.57-4.15-13.72-7.4-21.26-9.66-7.55-2.26-15.51-3.41-23.66-3.41-11.46,0-22.33,2.1-32.29,6.26-9.96,4.15-18.8,10.05-26.27,17.52-7.47,7.47-13.36,16.27-17.51,26.16-4.15,9.88-6.26,20.71-6.26,32.18s2.11,22.3,6.26,32.18c4.15,9.88,10.04,18.68,17.51,26.16,7.48,7.48,16.32,13.37,26.27,17.52,9.96,4.15,20.83,6.25,32.29,6.25,8.15,0,16.11-1.15,23.66-3.41,7.55-2.27,14.7-5.56,21.26-9.78,6.56-4.22,12.34-9.36,17.19-15.26l.44-.54-19.12-18.64-.52.65Z"/><polygon class="c" points="285.34 1338.04 208.43 1338.04 208.43 1271.78 179.87 1271.78 179.87 1431.04 208.43 1431.04 208.43 1363.66 285.34 1363.66 285.34 1431.04 313.9 1431.04 313.9 1271.78 285.34 1271.78 285.34 1338.04"/><path class="c" d="M456.09,1362.68c0,9.16-1.57,17.16-4.66,23.79-3.08,6.6-7.58,11.84-13.36,15.57-5.79,3.73-12.66,5.63-20.44,5.63s-14.61-1.89-20.32-5.62c-5.72-3.74-10.21-8.98-13.37-15.58-3.17-6.62-4.77-14.63-4.77-23.79v-90.9h-28.55v90.9c0,14.33,2.76,26.96,8.2,37.53,5.45,10.6,13.32,18.9,23.4,24.65,10.05,5.75,21.97,8.66,35.42,8.66s25.78-2.91,35.76-8.66c10-5.76,17.79-14.05,23.17-24.65,5.36-10.58,8.09-23.2,8.09-37.53v-90.9h-28.55v90.9Z"/><path class="c" d="M635.02,1347.47c5.71-7.68,8.6-16.82,8.6-27.15,0-9.56-2.28-18.07-6.76-25.3-4.49-7.22-10.84-12.96-18.89-17.06-8.04-4.09-17.4-6.17-27.84-6.17h-70.84v159.26h28.55v-63.1h36.18l30.42,63.1h31.67l-33.52-67.04c9.34-3.51,16.89-9.07,22.43-16.53ZM547.84,1296.05h39.81c8.18,0,14.84,2.25,19.78,6.68,4.92,4.42,7.41,10.41,7.41,17.81s-2.49,13.17-7.41,17.58c-4.94,4.43-11.59,6.68-19.78,6.68h-39.81v-48.75Z"/><path class="c" d="M793.76,1386.55c-5.46,6.79-11.97,12.07-19.35,15.68-7.37,3.61-15.29,5.44-23.56,5.44-7.53,0-14.59-1.42-20.99-4.22-6.41-2.8-12.09-6.8-16.88-11.88-4.79-5.09-8.57-11.11-11.23-17.9-2.66-6.79-4-14.28-4-22.26s1.35-15.47,4-22.26c2.66-6.79,6.44-12.81,11.23-17.9,4.79-5.08,10.47-9.08,16.88-11.88,6.41-2.8,13.48-4.22,20.99-4.22,8.26,0,16.19,1.79,23.56,5.33,7.37,3.54,13.88,8.85,19.34,15.79l.52.66,19.12-18.64-.43-.53c-4.84-6.05-10.63-11.22-17.2-15.38-6.57-4.15-13.72-7.4-21.26-9.66-7.55-2.26-15.51-3.41-23.66-3.41-11.46,0-22.33,2.1-32.29,6.26-9.96,4.15-18.8,10.05-26.27,17.52-7.47,7.47-13.36,16.27-17.51,26.16-4.15,9.88-6.26,20.71-6.26,32.18s2.11,22.3,6.26,32.18c4.15,9.88,10.04,18.68,17.51,26.16,7.48,7.48,16.32,13.37,26.27,17.52,9.97,4.15,20.83,6.25,32.29,6.25,8.15,0,16.11-1.15,23.66-3.41,7.55-2.27,14.7-5.56,21.26-9.78,6.56-4.22,12.35-9.36,17.19-15.26l.44-.54-19.12-18.64-.52.65Z"/><polygon class="c" points="952.02 1338.04 875.11 1338.04 875.11 1271.78 846.55 1271.78 846.55 1431.04 875.11 1431.04 875.11 1363.66 952.02 1363.66 952.02 1431.04 980.58 1431.04 980.58 1271.78 952.02 1271.78 952.02 1338.04"/><polygon class="c" points="582.62 974.79 526.95 1006.26 526.95 422.06 770.39 422.06 738.92 477.73 582.62 477.73 582.62 974.79"/><polygon class="c" points="801.47 367.07 526.95 367.07 526.94 31.47 582.61 0 582.62 311.4 832.94 311.4 801.47 367.07"/><path class="c" d="M356.03,331.22c6.77,6.76,15.21,14.29,24.15,22.26,4.8,4.28,9.88,8.85,15.07,13.59h72.05V65.19l-55.67,31.47v214.74h-72.32c5.47,7.43,11.08,14.18,16.72,19.82Z"/><path class="b" d="M350.38,633.14c-32.12-45.77-72.38-86.35-96.18-137.62-25.39-50.98-32.72-110.87-23.06-166.47l2.62.18c1.68,108.06,47.43,174.62,119.41,248.45,42.4,48.28,86.07,105.28,119.07,166.18h.49v-174.35c0-116.61-91.82-175.32-135.77-219.18-43.95-43.86-83.26-141.35-87.38-156.55h-1.9s-29.17,54.97-43.25,79.79c-37.81,66.68-55.59,128.54-56.33,195.47-.74,66.45,16.85,130.47,60.11,177.1,42.67,46,66.42,49.25,129.77,90.67,63.35,41.42,133.29,117.96,133.29,117.96h1.47c-21.45-78.81-77.01-155.53-122.36-221.63Z"/></svg>