<?xml version="1.0" encoding="UTF-8"?><svg id="a" xmlns="http://www.w3.org/2000/svg" viewBox="0 0 1000 341.15"><defs><style>.b{fill:#a1aab3;}</style></defs><path class="b" d="M540.86,288.53c1.37,0,2.47-.44,3.31-1.33.84-.89,1.26-1.95,1.26-3.18s-.42-2.29-1.26-3.18c-.84-.89-1.95-1.33-3.31-1.33s-2.49.44-3.38,1.33c-.89.89-1.33,1.95-1.33,3.18s.44,2.29,1.33,3.18c.89.89,2.02,1.33,3.38,1.33Z"/><path class="b" d="M910.4,288.53c1.37,0,2.47-.44,3.31-1.33.84-.89,1.26-1.95,1.26-3.18s-.42-2.29-1.26-3.18c-.84-.89-1.95-1.33-3.31-1.33s-2.49.44-3.38,1.33c-.89.89-1.33,1.95-1.33,3.18s.44,2.29,1.33,3.18c.89.89,2.02,1.33,3.38,1.33Z"/><path class="b" d="M280.5,284.23l-4.51,2.67-14.01,34.85-3.42.96.14,2.87h12.03l.14-2.87-4.24-.96,2.99-8.5c1.12-.03,2.23-.07,3.3-.11,1.37-.04,2.8-.07,4.3-.07s3.03.02,4.44.07c.92.03,1.79.03,2.67.04l3.41,8.57-4.24.96.21,2.87h15.17l.21-2.87-3.48-.96-15.1-37.52ZM277.22,309.51c-2.05,0-3.77-.02-5.16-.07-.39-.01-.71-.03-1.06-.04l5.6-15.41,6.35,15.43c-.19,0-.34.01-.54.02-1.41.05-3.14.07-5.19.07ZM362.4,321.75l4.24.96-.21,2.87h-15.72l-.21-2.87,4.24-.96c.04-.36.07-.93.07-1.71v-3.25c0-1.39-.02-3.2-.07-5.43l-.11-18.89-14.31,33.31h-2.94l-14.81-32.77.05,17.67c0,3.74.01,6.41.03,8.03.02,1.62.06,2.63.1,3.04l4.71.96-.21,2.87h-13.94l-.21-2.87,4.71-.96c.04-.32.08-.93.1-1.85.02-.91.06-2.06.1-3.45.04-1.39.07-2.97.07-4.75l.21-13.39c.04-2.23.06-4.12.03-5.67-.02-1.55-.03-2.67-.03-3.35l-4.24-.96.21-2.87h12.57l13.61,30.34,12.97-30.34h12.09l.21,2.87-4.3.89c-.05.55-.05,1.64,0,3.28.04,1.64.09,3.55.14,5.74l.34,12.37c.04,2.14.1,3.98.17,5.5.07,1.53.13,2.76.17,3.69.04.93.09,1.58.14,1.95ZM392.42,320c-1.25.61-2.68.92-4.27.92-2.92,0-5.27-1.02-7.07-3.07-1.67-1.9-2.53-4.47-2.65-7.65h19.36v-1.37c0-4.1-1.01-7.35-3.04-9.74-2.03-2.39-4.91-3.61-8.64-3.66-2.55-.04-4.92.59-7.11,1.91-2.19,1.32-3.96,3.18-5.33,5.57-1.37,2.39-2.05,5.18-2.05,8.37,0,2.96.63,5.56,1.88,7.79,1.25,2.23,2.97,3.96,5.16,5.19,2.19,1.23,4.65,1.84,7.38,1.84,2.55,0,4.86-.61,6.94-1.84,2.07-1.23,3.75-3.1,5.02-5.6l-1.84-1.71c-1.23,1.41-2.47,2.43-3.72,3.04ZM379.37,302.95c.66-1.46,1.55-2.55,2.67-3.28,1.12-.73,2.29-1.09,3.52-1.09,1.91,0,3.43.7,4.55,2.08,1.12,1.39,1.67,3.31,1.67,5.77v.55h-13.28c.12-1.53.37-2.92.87-4.03ZM422.3,319.08l1.37,1.78c-.82,1.64-2.03,2.93-3.62,3.86-1.59.93-3.3,1.4-5.13,1.4-2.87,0-5.24-.85-7.11-2.56-1.87-1.71-2.8-4.32-2.8-7.82l.21-15.99h-4.78v-1.64l9.64-8.41h1.64l-.1,6.36h10.08v3.69h-10.12l-.06,15.03c0,2.19.49,3.81,1.47,4.85.98,1.05,2.38,1.57,4.2,1.57.96,0,1.88-.19,2.77-.58.89-.39,1.67-.9,2.36-1.54ZM455.36,321.81l4.24,1.09-.14,2.67h-14.83l-.21-2.67,3.96-1.09c.05-.36.09-.85.14-1.47.04-.62.08-1.36.1-2.22.02-.87.03-1.87.03-3.01v-6.83c0-1.87-.31-3.38-.92-4.54-.62-1.16-1.41-2.02-2.39-2.56-.98-.55-2.04-.82-3.18-.82-1.37,0-2.67.33-3.9.99-1.23.66-2.28,1.58-3.14,2.77v10.18c0,2,.03,3.67.1,4.99.07,1.32.17,2.16.31,2.53l4.17,1.09-.21,2.67h-15.1l-.2-2.67,4.24-1.09c.09-.45.16-1.23.21-2.32.04-1.09.09-2.5.14-4.24.04-1.73.07-3.69.07-5.88v-8.54c0-1.55-.01-3.18-.03-4.89-.02-1.71-.05-3.36-.07-4.95-.02-1.59-.06-3.01-.1-4.24-.05-1.23-.09-2.09-.14-2.6l-5.06-.68-.14-2.46,10.66-2.94,1.5,1.03c-.05,1.41-.09,2.81-.14,4.2-.05,1.39-.08,2.88-.1,4.48-.02,1.59-.06,3.42-.1,5.47-.05,2.05-.07,4.44-.07,7.18l.21.07c1.5-1.73,3.05-3.01,4.65-3.83,1.59-.82,3.3-1.23,5.13-1.23s3.42.46,4.92,1.37c1.5.91,2.72,2.25,3.65,4.03.93,1.78,1.4,4.01,1.4,6.7v7.24c0,1.6.03,3.05.1,4.37.07,1.32.15,2.21.24,2.67ZM485.88,297.35c-2.19-1.27-4.71-1.91-7.59-1.91s-5.34.64-7.69,1.91c-2.35,1.28-4.23,3.06-5.64,5.36-1.41,2.3-2.12,5.05-2.12,8.23,0,2.96.64,5.59,1.91,7.89,1.28,2.3,3.04,4.09,5.3,5.36,2.25,1.28,4.91,1.91,7.96,1.91,2.73,0,5.22-.69,7.45-2.08,2.23-1.39,4-3.26,5.3-5.6,1.3-2.35,1.95-4.98,1.95-7.89s-.59-5.64-1.78-7.89c-1.19-2.26-2.87-4.02-5.06-5.3ZM484.76,317.58c-.57,1.59-1.37,2.82-2.39,3.69-1.02.87-2.24,1.3-3.65,1.3-1.64,0-3.12-.56-4.44-1.67-1.32-1.12-2.35-2.65-3.08-4.61-.73-1.96-1.09-4.19-1.09-6.7,0-3.23.67-5.83,2.02-7.79,1.34-1.96,3.11-2.94,5.3-2.94,2.51,0,4.5,1.22,5.98,3.66,1.48,2.44,2.22,5.62,2.22,9.53,0,2.1-.29,3.94-.85,5.54ZM525.95,316.86c-.12-1.57-.17-3.52-.17-5.84l.07-15.78c0-2.78.04-5.45.1-8.03.07-2.57.15-5.27.24-8.1l-1.44-1.03-10.93,2.94.14,2.53,5.26.89c.04.41.08,1.14.1,2.19.02,1.05.04,2.23.07,3.55.02,1.32.05,2.6.07,3.83.02,1.23.03,2.25.03,3.07-.82-.55-1.82-.95-3.01-1.2-1.19-.25-2.35-.38-3.48-.38-1.96,0-3.87.38-5.74,1.13-1.87.75-3.55,1.85-5.06,3.28-1.5,1.44-2.69,3.16-3.55,5.16-.87,2.01-1.3,4.26-1.3,6.77,0,2.82.6,5.31,1.81,7.45,1.21,2.14,2.82,3.82,4.85,5.02,2.03,1.21,4.32,1.81,6.87,1.81,1.55,0,3.04-.39,4.48-1.16,1.44-.78,2.79-2.12,4.07-4.03l.2.07-.07,4.44,1.3.89,9.77-2.46v-2.46l-4.37-1.09c-.09-.73-.19-1.88-.31-3.45ZM519.49,317.37c-1,1.32-2.05,2.25-3.14,2.8-1.09.55-2.19.82-3.28.82-2.42,0-4.45-.98-6.12-2.94-1.66-1.96-2.49-4.69-2.49-8.2,0-3.33.77-5.99,2.32-8,1.55-2,3.64-3.01,6.29-3.01,1.14,0,2.3.28,3.48.85,1.18.57,2.16,1.52,2.94,2.84v14.83ZM544.35,321.81l4.58,1.02-.14,2.73h-15.92l-.2-2.73,4.58-1.02c.04-.18.09-.53.14-1.06.04-.52.09-1.28.14-2.26.04-.98.07-2.24.07-3.79v-4.85c0-1.64-.05-3.15-.14-4.55-.09-1.39-.23-2.56-.41-3.52l-4.58-.96v-2.53l10.66-2.73,1.3,1.09c-.14,1.41-.24,2.81-.31,4.2-.07,1.39-.1,3-.1,4.82v8.61c0,1.91.03,3.55.1,4.92.07,1.37.15,2.23.24,2.6ZM572.99,312.42c1.21,1.34,1.81,3,1.81,4.95,0,2.6-1.13,4.7-3.38,6.32-2.25,1.62-5.14,2.43-8.64,2.43-1.73,0-3.47-.19-5.23-.58-1.75-.39-3.25-.92-4.48-1.61l-.34-7.52h3.69l1.44,4.92c1.59,1.05,3.39,1.57,5.4,1.57,1.5,0,2.7-.34,3.59-1.02.89-.68,1.33-1.62,1.33-2.8s-.42-2.13-1.27-2.97c-.84-.84-2.52-1.76-5.02-2.77-3.28-1.32-5.58-2.67-6.9-4.03-1.32-1.37-1.98-3.1-1.98-5.19,0-1.68.52-3.18,1.57-4.48,1.05-1.3,2.48-2.32,4.3-3.07s3.94-1.13,6.36-1.13c1.32,0,2.66.13,4.03.38,1.37.25,2.5.58,3.42.99l.75,7.31h-3.55l-1.57-4.71c-.46-.27-1-.49-1.64-.65-.64-.16-1.3-.24-1.98-.24-1.55,0-2.79.36-3.72,1.09-.93.73-1.4,1.64-1.4,2.73,0,1.28.52,2.31,1.57,3.11,1.05.8,2.89,1.79,5.53,2.97,3.01,1.32,5.11,2.65,6.32,4ZM599.25,319.08l1.37,1.78c-.82,1.64-2.03,2.93-3.62,3.86-1.59.93-3.3,1.4-5.13,1.4-2.87,0-5.24-.85-7.11-2.56-1.87-1.71-2.8-4.32-2.8-7.82l.21-15.99h-4.78v-1.64l9.64-8.41h1.64l-.1,6.36h10.08v3.69h-10.12l-.06,15.03c0,2.19.49,3.81,1.47,4.85.98,1.05,2.38,1.57,4.2,1.57.96,0,1.88-.19,2.77-.58.89-.39,1.67-.9,2.36-1.54ZM648.22,313.89l3.62.41-1.98,8.75c-1.46.82-3.32,1.55-5.57,2.19-2.25.64-4.61.96-7.07.96-4.1,0-7.79-.76-11.07-2.29-3.28-1.53-5.89-3.8-7.82-6.83-1.94-3.03-2.9-6.75-2.9-11.17,0-2.96.52-5.73,1.57-8.3,1.05-2.57,2.57-4.81,4.58-6.7,2-1.89,4.42-3.37,7.24-4.44,2.82-1.07,5.99-1.61,9.5-1.61,1.96,0,3.99.19,6.08.58,2.09.39,3.92.92,5.47,1.61l.48,9.7-3.42.27-2.12-6.7c-.87-.55-1.95-.96-3.25-1.23-1.3-.27-2.59-.41-3.86-.41-3.19,0-5.81.7-7.86,2.08-2.05,1.39-3.58,3.29-4.58,5.71-1,2.41-1.5,5.12-1.5,8.13,0,3.74.65,6.93,1.95,9.57,1.3,2.64,3.04,4.65,5.23,6.01,2.19,1.37,4.62,2.05,7.31,2.05,1.32,0,2.6-.17,3.83-.51,1.23-.34,2.35-.83,3.35-1.47l2.8-6.35ZM678.27,297.35c-2.19-1.27-4.71-1.91-7.59-1.91s-5.34.64-7.69,1.91c-2.35,1.28-4.23,3.06-5.64,5.36-1.41,2.3-2.12,5.05-2.12,8.23,0,2.96.64,5.59,1.91,7.89s3.04,4.09,5.3,5.36c2.25,1.28,4.91,1.91,7.96,1.91,2.73,0,5.22-.69,7.45-2.08,2.23-1.39,4-3.26,5.3-5.6,1.3-2.35,1.95-4.98,1.95-7.89s-.59-5.64-1.78-7.89c-1.19-2.26-2.87-4.02-5.06-5.3ZM677.14,317.58c-.57,1.59-1.37,2.82-2.39,3.69-1.02.87-2.24,1.3-3.65,1.3-1.64,0-3.12-.56-4.44-1.67-1.32-1.12-2.35-2.65-3.08-4.61-.73-1.96-1.09-4.19-1.09-6.7,0-3.23.67-5.83,2.02-7.79,1.34-1.96,3.11-2.94,5.3-2.94,2.51,0,4.5,1.22,5.98,3.66,1.48,2.44,2.22,5.62,2.22,9.53,0,2.1-.29,3.94-.85,5.54ZM719.93,321.81l4.24,1.09-.2,2.67h-14.83l-.14-2.67,3.96-1.09c.05-.36.09-.85.14-1.47.04-.62.08-1.36.1-2.22.02-.87.03-1.87.03-3.01v-6.83c0-1.91-.32-3.45-.96-4.61-.64-1.16-1.45-2.01-2.42-2.53-.98-.52-2.02-.79-3.11-.79-1.41,0-2.72.33-3.93.99-1.21.66-2.24,1.58-3.11,2.77v10.18c0,1.96.03,3.6.1,4.92.07,1.32.17,2.19.31,2.6l4.24,1.09-.2,2.67h-15.17l-.2-2.67,4.24-1.09c.04-.23.09-.63.14-1.2.05-.57.09-1.33.14-2.29.04-.96.07-2.16.07-3.62l.07-5.26c0-1.46-.06-2.86-.17-4.2-.12-1.34-.26-2.49-.44-3.45l-4.37-.96v-2.53l10.11-2.73,1.37,1.16-.34,3.69.21.07c1.5-1.73,3.06-3.01,4.68-3.83,1.62-.82,3.34-1.23,5.16-1.23s3.42.44,4.92,1.33c1.5.89,2.72,2.22,3.65,4,.93,1.78,1.4,3.99,1.4,6.63v7.38c0,1.6.02,3.07.07,4.41.05,1.35.14,2.22.27,2.63ZM747.76,296.87c-1.89-.96-4.04-1.44-6.46-1.44s-4.6.5-6.56,1.5c-1.96,1-3.51,2.36-4.65,4.07-1.14,1.71-1.71,3.66-1.71,5.84,0,2.01.55,3.79,1.64,5.36.98,1.41,2.33,2.53,3.99,3.4-1.22.64-2.27,1.35-3.1,2.14-1.28,1.21-1.91,2.45-1.91,3.72,0,1.37.6,2.48,1.81,3.35.87.62,1.92,1.02,3.14,1.19-2.32,1.07-4.12,2.19-5.32,3.35-1.35,1.3-2.02,2.72-2.02,4.27,0,2.28,1.27,4.1,3.79,5.47,2.53,1.37,5.98,2.05,10.35,2.05,3.05,0,5.78-.49,8.2-1.47,2.41-.98,4.33-2.32,5.74-4.03,1.41-1.71,2.12-3.61,2.12-5.71,0-2.37-.83-4.23-2.49-5.57-1.66-1.34-4.11-2.18-7.35-2.49l-9.29-.96c-.91-.09-1.62-.33-2.12-.72-.5-.39-.75-.88-.75-1.47,0-.45.19-.91.58-1.37.23-.27.54-.55.88-.83,1.51.46,3.16.7,4.96.7,2.41,0,4.58-.47,6.49-1.4,1.91-.93,3.42-2.23,4.51-3.9,1.09-1.66,1.64-3.52,1.64-5.57s-.55-3.91-1.64-5.57c-.11-.17-.27-.29-.39-.45l6.06.49v-4.71l-9.75,1.02c-.14-.08-.25-.19-.4-.27ZM743.97,327.07c2.41.18,4.15.63,5.19,1.33,1.05.71,1.57,1.77,1.57,3.18,0,1.87-.89,3.41-2.67,4.61-1.78,1.21-4.08,1.81-6.9,1.81-2.51,0-4.48-.48-5.91-1.44-1.43-.96-2.15-2.28-2.15-3.96,0-1.28.39-2.47,1.16-3.59.66-.95,1.58-1.77,2.68-2.51l7.03.56ZM745.75,312.11c-1,1.32-2.37,1.98-4.1,1.98-1.87,0-3.37-.73-4.51-2.19-1.14-1.46-1.71-3.35-1.71-5.67s.53-4.19,1.61-5.6c1.07-1.41,2.47-2.12,4.2-2.12,1.82,0,3.28.75,4.37,2.25,1.09,1.5,1.64,3.51,1.64,6.01,0,2.23-.5,4.01-1.5,5.33ZM781.81,296.5c.77.57,1.16,1.45,1.16,2.63s-.41,2.1-1.23,2.73c-.82.64-1.85.96-3.08.96-.91,0-1.75-.18-2.53-.55-.48-.22-.95-.54-1.43-.9-.61.49-1.21,1.07-1.78,1.79-.73.91-1.39,2.03-1.98,3.35l.07,6.01c.05,1.32.09,2.61.14,3.86.04,1.25.09,2.36.14,3.31s.09,1.66.14,2.12l5.95.96-.21,2.8h-16.95l-.21-2.67,4.24-1.09c.04-.18.09-.57.14-1.16.04-.59.09-1.39.14-2.39.04-1,.07-2.19.07-3.55l.07-5.26c0-1.5-.06-2.92-.17-4.24-.11-1.32-.26-2.46-.44-3.42l-4.37-.96v-2.53l10.04-2.73,1.23,1.02-.27,5.6.21.07c1.32-2.6,2.68-4.35,4.07-5.26,1.39-.91,2.74-1.37,4.07-1.37,1.09,0,2.03.28,2.8.85ZM805.4,320c-1.25.61-2.68.92-4.27.92-2.92,0-5.27-1.02-7.07-3.07-1.67-1.9-2.53-4.47-2.65-7.65h19.36v-1.37c0-4.1-1.01-7.35-3.04-9.74-2.03-2.39-4.91-3.61-8.64-3.66-2.55-.04-4.92.59-7.11,1.91-2.19,1.32-3.96,3.18-5.33,5.57-1.37,2.39-2.05,5.18-2.05,8.37,0,2.96.63,5.56,1.88,7.79,1.25,2.23,2.97,3.96,5.16,5.19,2.19,1.23,4.65,1.84,7.38,1.84,2.55,0,4.86-.61,6.94-1.84,2.07-1.23,3.75-3.1,5.02-5.6l-1.84-1.71c-1.23,1.41-2.47,2.43-3.72,3.04ZM792.35,302.95c.66-1.46,1.55-2.55,2.67-3.28,1.12-.73,2.29-1.09,3.52-1.09,1.91,0,3.43.7,4.55,2.08,1.12,1.39,1.67,3.31,1.67,5.77v.55h-13.28c.12-1.53.37-2.92.87-4.03ZM835.45,296.87c-1.89-.96-4.04-1.44-6.46-1.44s-4.6.5-6.56,1.5c-1.96,1-3.51,2.36-4.65,4.07-1.14,1.71-1.71,3.66-1.71,5.84,0,2.01.55,3.79,1.64,5.36.98,1.41,2.33,2.53,3.99,3.4-1.22.64-2.27,1.35-3.1,2.14-1.28,1.21-1.91,2.45-1.91,3.72,0,1.37.6,2.48,1.81,3.35.87.62,1.92,1.02,3.14,1.19-2.32,1.07-4.12,2.19-5.32,3.35-1.35,1.3-2.02,2.72-2.02,4.27,0,2.28,1.27,4.1,3.79,5.47,2.53,1.37,5.98,2.05,10.35,2.05,3.05,0,5.78-.49,8.2-1.47,2.41-.98,4.33-2.32,5.74-4.03,1.41-1.71,2.12-3.61,2.12-5.71,0-2.37-.83-4.23-2.49-5.57-1.66-1.34-4.11-2.18-7.35-2.49l-9.29-.96c-.91-.09-1.62-.33-2.12-.72-.5-.39-.75-.88-.75-1.47,0-.45.19-.91.58-1.37.23-.27.54-.55.88-.83,1.51.46,3.16.7,4.96.7,2.41,0,4.58-.47,6.49-1.4,1.91-.93,3.42-2.23,4.51-3.9,1.09-1.66,1.64-3.52,1.64-5.57s-.55-3.91-1.64-5.57c-.11-.17-.27-.29-.39-.45l6.06.49v-4.71l-9.75,1.02c-.14-.08-.25-.19-.4-.27ZM831.66,327.07c2.41.18,4.15.63,5.19,1.33,1.05.71,1.57,1.77,1.57,3.18,0,1.87-.89,3.41-2.67,4.61-1.78,1.21-4.08,1.81-6.9,1.81-2.51,0-4.48-.48-5.91-1.44-1.43-.96-2.15-2.28-2.15-3.96,0-1.28.39-2.47,1.16-3.59.66-.95,1.58-1.77,2.68-2.51l7.03.56ZM833.44,312.11c-1,1.32-2.37,1.98-4.1,1.98-1.87,0-3.37-.73-4.51-2.19-1.14-1.46-1.71-3.35-1.71-5.67s.53-4.19,1.61-5.6c1.07-1.41,2.47-2.12,4.2-2.12,1.82,0,3.28.75,4.37,2.25,1.09,1.5,1.64,3.51,1.64,6.01,0,2.23-.5,4.01-1.5,5.33ZM872.61,318.77c-.07-.8-.1-1.67-.1-2.63l.14-10.87c-.05-2.96-1.13-5.34-3.25-7.14-2.12-1.8-4.98-2.7-8.58-2.7-1.18.18-2.44.54-3.76,1.06-1.32.52-2.56,1.15-3.72,1.88-1.16.73-2.12,1.5-2.87,2.32-.75.82-1.13,1.62-1.13,2.39,0,1.23.63,2.11,1.88,2.63,1.25.52,2.79.58,4.61.17l.21-3.28c.09-1.27.32-2.13.68-2.56.36-.43,1.07-.65,2.12-.65,1.32,0,2.53.27,3.62.82,1.09.55,1.97,1.26,2.63,2.15.66.89.99,1.88.99,2.97v3.14l-10.52,3.42c-2.23.68-3.85,1.55-4.85,2.6-1,1.05-1.5,2.35-1.5,3.9,0,1.19.39,2.37,1.16,3.55.77,1.19,1.89,2.18,3.35,2.97,1.46.8,3.14,1.2,5.06,1.2,1.46,0,2.89-.44,4.3-1.33,1.14-.71,2.29-1.76,3.46-2.99l.58,1.86c.55,1.64,1.57,2.46,3.07,2.46.45,0,.98-.08,1.57-.24.59-.16,1.23-.38,1.91-.65l3.69-1.44v-2.39l-4.44-.82c-.14-.41-.24-1.01-.31-1.81ZM866.08,318.94c-.73.82-1.5,1.44-2.32,1.85-.82.41-1.69.61-2.6.61-1.32,0-2.46-.44-3.42-1.33-.96-.89-1.44-1.9-1.44-3.04,0-.91.24-1.65.72-2.22s1.26-.99,2.36-1.27l6.7-1.64v7.04ZM900.58,319.08l1.37,1.78c-.82,1.64-2.03,2.93-3.62,3.86-1.59.93-3.3,1.4-5.13,1.4-2.87,0-5.24-.85-7.11-2.56-1.87-1.71-2.8-4.32-2.8-7.82l.21-15.99h-4.78v-1.64l9.64-8.41h1.64l-.1,6.36h10.08v3.69h-10.12l-.06,15.03c0,2.19.49,3.81,1.47,4.85.98,1.05,2.38,1.57,4.2,1.57.96,0,1.88-.19,2.77-.58.89-.39,1.67-.9,2.36-1.54ZM913.89,321.81l4.58,1.02-.14,2.73h-15.92l-.2-2.73,4.58-1.02c.04-.18.09-.53.14-1.06.04-.52.09-1.28.14-2.26.04-.98.07-2.24.07-3.79v-4.85c0-1.64-.05-3.15-.14-4.55-.09-1.39-.23-2.56-.41-3.52l-4.58-.96v-2.53l10.66-2.73,1.3,1.09c-.14,1.41-.24,2.81-.31,4.2-.07,1.39-.1,3-.1,4.82v8.61c0,1.91.03,3.55.1,4.92.07,1.37.15,2.23.24,2.6ZM944.69,297.35c-2.19-1.27-4.71-1.91-7.59-1.91s-5.34.64-7.69,1.91c-2.35,1.28-4.23,3.06-5.64,5.36-1.41,2.3-2.12,5.05-2.12,8.23,0,2.96.64,5.59,1.91,7.89,1.28,2.3,3.04,4.09,5.3,5.36,2.25,1.28,4.91,1.91,7.96,1.91,2.73,0,5.22-.69,7.45-2.08,2.23-1.39,4-3.26,5.3-5.6,1.3-2.35,1.95-4.98,1.95-7.89s-.59-5.64-1.78-7.89c-1.19-2.26-2.87-4.02-5.06-5.3ZM943.56,317.58c-.57,1.59-1.37,2.82-2.39,3.69-1.02.87-2.24,1.3-3.65,1.3-1.64,0-3.12-.56-4.44-1.67-1.32-1.12-2.35-2.65-3.08-4.61-.73-1.96-1.09-4.19-1.09-6.7,0-3.23.67-5.83,2.02-7.79,1.34-1.96,3.11-2.94,5.3-2.94,2.51,0,4.5,1.22,5.98,3.66,1.48,2.44,2.22,5.62,2.22,9.53,0,2.1-.29,3.94-.85,5.54ZM990.59,322.91l-.2,2.67h-14.83l-.14-2.67,3.96-1.09c.05-.36.09-.85.14-1.47.04-.62.08-1.36.1-2.22.02-.87.03-1.87.03-3.01v-6.83c0-1.91-.32-3.45-.96-4.61-.64-1.16-1.45-2.01-2.42-2.53-.98-.52-2.02-.79-3.11-.79-1.41,0-2.72.33-3.93.99-1.21.66-2.24,1.58-3.11,2.77v10.18c0,1.96.03,3.6.1,4.92.07,1.32.17,2.19.31,2.6l4.24,1.09-.2,2.67h-15.17l-.2-2.67,4.24-1.09c.04-.23.09-.63.14-1.2.05-.57.09-1.33.14-2.29.04-.96.07-2.16.07-3.62l.07-5.26c0-1.46-.06-2.86-.17-4.2-.12-1.34-.26-2.49-.44-3.45l-4.37-.96v-2.53l10.11-2.73,1.37,1.16-.34,3.69.21.07c1.5-1.73,3.06-3.01,4.68-3.83,1.62-.82,3.34-1.23,5.16-1.23s3.42.44,4.92,1.33c1.5.89,2.72,2.22,3.65,4,.93,1.78,1.4,3.99,1.4,6.63v7.38c0,1.6.02,3.07.07,4.41.05,1.35.14,2.22.27,2.63l4.24,1.09Z"/><path class="b" d="M261.93,122.61V32.29h15.48v41.16l39.23-41.16h18.97l-43.1,43.48,44.65,46.84h-20.52l-39.23-42.19v42.19h-15.48ZM349.16,122.61V32.29h64.65v13.16h-49.16v25.16h34.32v12.9h-34.32v25.94h49.68v13.16h-65.16ZM435.09,122.61V32.29h15.1l47.1,65.68-.26-65.68h14.58v90.32h-13.81l-48.39-67.48.26,67.48h-14.58ZM536.94,122.61V32.29h15.1l47.1,65.68-.26-65.68h14.58v90.32h-13.81l-48.39-67.48.26,67.48h-14.58ZM640.58,122.61V32.29h64.65v13.16h-49.16v25.16h34.32v12.9h-34.32v25.94h49.68v13.16h-65.16ZM756.71,124.03c-7.05,0-13.7-1.23-19.94-3.68-6.24-2.45-12.24-6.08-18-10.9l8.39-11.35c5.85,4.73,11.07,8.09,15.68,10.06,4.6,1.98,9.53,2.97,14.77,2.97,3.96,0,7.46-.6,10.52-1.81,3.05-1.2,5.42-2.88,7.1-5.03,1.68-2.15,2.52-4.64,2.52-7.48,0-3.7-1.23-6.52-3.68-8.45-2.45-1.94-6.69-3.42-12.71-4.45l-16.65-2.84c-7.83-1.37-13.66-4.02-17.48-7.94-3.83-3.91-5.74-8.92-5.74-15.03,0-5.42,1.38-10.17,4.13-14.26,2.75-4.08,6.6-7.27,11.55-9.55,4.95-2.28,10.82-3.42,17.61-3.42s13.25.99,19.36,2.97c6.11,1.98,11.74,4.86,16.9,8.65l-7.87,11.61c-4.56-3.44-9.25-6.04-14.06-7.81-4.82-1.76-9.76-2.64-14.84-2.64-3.61,0-6.77.56-9.48,1.68-2.71,1.12-4.82,2.67-6.32,4.65-1.51,1.98-2.26,4.17-2.26,6.58,0,3.27,1.1,5.79,3.29,7.55,2.19,1.76,5.74,3.08,10.65,3.93l16.13,2.71c9.12,1.64,15.85,4.47,20.19,8.52,4.34,4.04,6.52,9.51,6.52,16.39,0,5.51-1.53,10.41-4.58,14.71-3.05,4.3-7.29,7.66-12.71,10.06-5.42,2.41-11.74,3.61-18.97,3.61ZM800.59,122.61l35.48-90.32h17.94l34.97,90.32h-16.64l-9.29-25.29h-37.03l-9.29,25.29h-16.13ZM830.52,85.19h28.26l-14.19-38.19-14.06,38.19ZM908.51,122.61l-19.74-90.32h15.74l13.42,66.19,19.35-66.19h14.71l19.36,66.06,13.42-66.06h15.23l-19.74,90.32h-16.13l-19.74-68.26-19.74,68.26h-16.13ZM317.84,263.11c-8.57,0-16.57-1.55-24.01-4.65-7.44-3.1-13.95-7.44-19.53-13.02-5.58-5.58-9.92-12.06-13.02-19.45-3.1-7.38-4.65-15.36-4.65-23.93s1.55-16.54,4.65-23.93c3.1-7.38,7.44-13.86,13.02-19.44,5.58-5.58,12.09-9.92,19.53-13.02,7.44-3.1,15.44-4.65,24.01-4.65,6.09,0,11.95.84,17.59,2.54,5.64,1.69,10.91,4.09,15.81,7.19,4.9,3.1,9.16,6.91,12.77,11.41l-13.53,13.19c-4.17-5.3-9.08-9.3-14.71-12.01-5.64-2.71-11.61-4.06-17.92-4.06-5.75,0-11.08,1.07-15.98,3.21-4.9,2.14-9.19,5.16-12.85,9.05-3.66,3.89-6.51,8.43-8.54,13.61-2.03,5.19-3.04,10.82-3.04,16.91s1.02,11.73,3.04,16.91c2.03,5.19,4.88,9.72,8.54,13.61,3.66,3.89,7.95,6.91,12.85,9.05,4.9,2.14,10.23,3.21,15.98,3.21,6.31,0,12.29-1.38,17.92-4.14,5.64-2.76,10.54-6.73,14.71-11.92l13.53,13.19c-3.61,4.4-7.86,8.17-12.77,11.33-4.9,3.16-10.17,5.58-15.81,7.27-5.64,1.69-11.5,2.54-17.59,2.54ZM385.92,261.25v-118.36h20.29v49.71h58.84v-49.71h20.29v118.36h-20.29v-50.56h-58.84v50.56h-20.29ZM563.75,263.11c-10.04,0-18.8-2.14-26.29-6.43-7.5-4.28-13.27-10.37-17.33-18.26-4.06-7.89-6.09-17.19-6.09-27.9v-67.64h20.29v67.64c0,6.99,1.21,13.02,3.64,18.09,2.42,5.07,5.83,9.05,10.23,11.92,4.4,2.87,9.58,4.31,15.56,4.31s11.19-1.44,15.64-4.31c4.45-2.87,7.86-6.85,10.23-11.92,2.37-5.07,3.55-11.1,3.55-18.09v-67.64h20.29v67.64c0,10.71-2,20.01-6,27.9-4,7.89-9.72,13.98-17.16,18.26-7.44,4.29-16.29,6.43-26.55,6.43ZM640.58,261.25v-118.36h52.59c7.78,0,14.65,1.52,20.63,4.57,5.97,3.04,10.62,7.24,13.95,12.6,3.32,5.36,4.99,11.58,4.99,18.68,0,7.67-2.11,14.35-6.34,20.04-4.23,5.69-9.95,9.84-17.16,12.43l25.03,50.05h-22.49l-22.83-47.35h-28.07v47.35h-20.29ZM660.87,197.67h30.44c6.31,0,11.38-1.72,15.22-5.16,3.83-3.44,5.75-7.97,5.75-13.61s-1.92-10.34-5.75-13.78c-3.83-3.44-8.91-5.16-15.22-5.16h-30.44v37.71ZM813.77,263.11c-8.57,0-16.57-1.55-24.01-4.65-7.44-3.1-13.95-7.44-19.53-13.02-5.58-5.58-9.92-12.06-13.02-19.45-3.1-7.38-4.65-15.36-4.65-23.93s1.55-16.54,4.65-23.93c3.1-7.38,7.44-13.86,13.02-19.44,5.58-5.58,12.09-9.92,19.53-13.02,7.44-3.1,15.44-4.65,24.01-4.65,6.09,0,11.95.84,17.59,2.54,5.64,1.69,10.91,4.09,15.81,7.19,4.9,3.1,9.16,6.91,12.77,11.41l-13.53,13.19c-4.17-5.3-9.08-9.3-14.71-12.01-5.64-2.71-11.61-4.06-17.92-4.06-5.75,0-11.08,1.07-15.98,3.21-4.9,2.14-9.19,5.16-12.85,9.05-3.66,3.89-6.51,8.43-8.54,13.61-2.03,5.19-3.04,10.82-3.04,16.91s1.02,11.73,3.04,16.91c2.03,5.19,4.88,9.72,8.54,13.61,3.66,3.89,7.95,6.91,12.85,9.05,4.9,2.14,10.23,3.21,15.98,3.21,6.31,0,12.29-1.38,17.92-4.14,5.64-2.76,10.54-6.73,14.71-11.92l13.53,13.19c-3.61,4.4-7.86,8.17-12.77,11.33-4.9,3.16-10.17,5.58-15.81,7.27-5.64,1.69-11.5,2.54-17.59,2.54ZM886.14,261.25v-118.36h20.29v49.71h58.84v-49.71h20.29v118.36h-20.29v-50.56h-58.84v50.56h-20.29Z"/><path class="b" d="M145.15,325.6l-18.6,10.51v-195.14h81.32l-10.51,18.6h-52.21v166.03ZM228.76,104.01h-83.61V0s-18.6,10.51-18.6,10.51v112.1h91.7l10.51-18.6ZM69.46,110.63c2.26,2.26,5.08,4.77,8.07,7.44,1.6,1.43,3.3,2.96,5.03,4.54h24.07V21.77l-18.6,10.51v71.73h-24.16c1.83,2.48,3.7,4.74,5.59,6.62Z"/><path class="b" d="M67.57,211.48c-10.73-15.29-24.18-28.84-32.13-45.97-8.48-17.03-10.93-37.03-7.7-55.61l.87.06c.56,36.09,15.84,58.33,39.89,82.99,14.16,16.13,28.75,35.16,39.77,55.51h.16v-58.24c0-38.95-30.67-58.56-45.35-73.21-14.68-14.65-27.81-47.21-29.19-52.29h-.64s-9.74,18.36-14.45,26.65C6.19,113.65.26,134.32,0,156.67c-.25,22.2,5.63,43.58,20.08,59.16,14.25,15.36,22.19,16.45,43.35,30.28,21.16,13.84,44.52,39.4,44.52,39.4h.49c-7.16-26.32-25.72-51.95-40.87-74.03Z"/></svg>