<?xml version="1.0" encoding="UTF-8"?><svg id="a" xmlns="http://www.w3.org/2000/svg" viewBox="0 0 1000 1538.76"><defs><style>.b{fill:#28333b;}</style></defs><path class="b" d="M41.32,1459.34l-6,3.55-18.64,46.37-4.55,1.27.18,3.82h16l.18-3.82-5.64-1.27,3.98-11.32c1.49-.05,2.97-.09,4.39-.14,1.82-.06,3.73-.09,5.73-.09s4.03.03,5.91.09c1.22.04,2.38.05,3.55.06l4.54,11.4-5.64,1.27.27,3.82h20.18l.27-3.82-4.64-1.27-20.09-49.92ZM36.96,1492.98c-2.73,0-5.02-.03-6.87-.09-.52-.02-.94-.03-1.41-.05l7.45-20.5,8.45,20.52c-.25,0-.45.02-.71.03-1.88.06-4.18.09-6.91.09Z"/><path class="b" d="M150.12,1506.67c-.06-1.24-.14-2.88-.23-4.91-.09-2.03-.17-4.47-.23-7.32l-.46-16.46c-.06-2.91-.12-5.46-.18-7.64-.06-2.18-.06-3.64,0-4.37l5.73-1.18-.27-3.82h-16.09l-17.25,40.37-18.12-40.37h-16.73l-.27,3.82,5.64,1.27c0,.91.01,2.4.05,4.45.03,2.06.01,4.58-.05,7.55l-.27,17.82c0,2.36-.03,4.47-.09,6.32-.06,1.85-.11,3.38-.14,4.59-.03,1.21-.08,2.03-.14,2.46l-6.27,1.27.27,3.82h18.55l.27-3.82-6.27-1.27c-.06-.55-.11-1.89-.14-4.05-.03-2.15-.05-5.71-.05-10.68l-.07-23.51,19.71,43.61h3.91l19.04-44.32.14,25.14c.06,2.97.09,5.38.09,7.23v4.32c0,1.03-.03,1.79-.09,2.27l-5.64,1.27.27,3.82h20.91l.27-3.82-5.64-1.27c-.06-.49-.12-1.35-.18-2.59Z"/><path class="b" d="M190.24,1506.94c-1.67.82-3.56,1.23-5.68,1.23-3.88,0-7.02-1.36-9.41-4.09-2.22-2.52-3.36-5.95-3.52-10.18h25.76v-1.82c0-5.45-1.35-9.77-4.05-12.96-2.7-3.18-6.53-4.8-11.5-4.86-3.4-.06-6.55.79-9.45,2.55-2.91,1.76-5.27,4.23-7.09,7.41-1.82,3.18-2.73,6.89-2.73,11.14,0,3.94.83,7.4,2.5,10.37,1.67,2.97,3.96,5.27,6.86,6.91,2.91,1.64,6.18,2.45,9.82,2.45,3.4,0,6.47-.82,9.23-2.45,2.76-1.64,4.98-4.12,6.68-7.46l-2.45-2.27c-1.64,1.88-3.29,3.23-4.96,4.05ZM172.87,1484.25c.88-1.94,2.06-3.4,3.55-4.36,1.49-.97,3.05-1.46,4.68-1.46,2.55,0,4.56.93,6.05,2.77,1.48,1.85,2.23,4.41,2.23,7.68v.73h-17.66c.16-2.04.49-3.89,1.16-5.36Z"/><path class="b" d="M226.86,1507.76c-1.18.52-2.41.77-3.68.77-2.42,0-4.29-.7-5.59-2.09-1.3-1.39-1.95-3.55-1.95-6.46l.08-20h13.47v-4.91h-13.41l.14-8.46h-2.18l-12.82,11.18v2.18h6.36l-.27,21.28c0,4.67,1.24,8.14,3.73,10.41,2.48,2.27,5.64,3.41,9.45,3.41,2.42,0,4.7-.62,6.82-1.86,2.12-1.24,3.73-2.96,4.82-5.14l-1.82-2.36c-.91.85-1.95,1.53-3.14,2.05Z"/><path class="b" d="M273.66,1505.8c-.09-1.76-.14-3.7-.14-5.82v-9.64c0-3.58-.62-6.55-1.86-8.91-1.24-2.36-2.86-4.15-4.86-5.36-2-1.21-4.18-1.82-6.55-1.82s-4.7.55-6.82,1.64c-2.12,1.09-4.18,2.79-6.18,5.09l-.27-.09c0-3.64.03-6.82.09-9.55.06-2.73.1-5.15.14-7.27.03-2.12.07-4.11.14-5.96.06-1.85.12-3.71.18-5.59l-2-1.37-14.18,3.91.18,3.27,6.73.91c.06.67.12,1.82.18,3.45.06,1.64.1,3.52.14,5.64.03,2.12.06,4.32.09,6.59.03,2.27.05,4.44.05,6.5v11.37c0,2.91-.03,5.52-.09,7.82-.06,2.3-.12,4.18-.18,5.64-.06,1.46-.15,2.49-.27,3.09l-5.64,1.45.27,3.55h20.09l.27-3.55-5.55-1.45c-.18-.49-.32-1.61-.41-3.36-.09-1.76-.14-3.97-.14-6.64v-13.55c1.15-1.57,2.54-2.8,4.18-3.68,1.64-.88,3.37-1.32,5.18-1.32,1.51,0,2.92.36,4.23,1.09,1.3.73,2.36,1.86,3.18,3.41.82,1.55,1.23,3.56,1.23,6.05v9.09c0,1.51-.02,2.85-.05,4-.03,1.15-.08,2.14-.14,2.96-.06.82-.12,1.47-.18,1.95l-5.27,1.45.27,3.55h19.73l.18-3.55-5.64-1.45c-.12-.61-.23-1.79-.32-3.55Z"/><path class="b" d="M314.6,1476.8c-2.91-1.7-6.27-2.55-10.09-2.55s-7.11.85-10.23,2.55c-3.12,1.7-5.62,4.08-7.5,7.14-1.88,3.06-2.82,6.71-2.82,10.96,0,3.94.85,7.44,2.54,10.5,1.7,3.06,4.05,5.44,7.05,7.14,3,1.7,6.53,2.55,10.59,2.55,3.64,0,6.94-.92,9.91-2.77,2.97-1.85,5.32-4.33,7.05-7.46,1.73-3.12,2.59-6.62,2.59-10.5s-.79-7.5-2.36-10.5c-1.58-3-3.82-5.35-6.73-7.05ZM313.1,1503.71c-.76,2.12-1.82,3.76-3.18,4.91-1.36,1.15-2.98,1.73-4.86,1.73-2.18,0-4.15-.74-5.91-2.23-1.76-1.48-3.12-3.53-4.09-6.14-.97-2.61-1.45-5.58-1.45-8.91,0-4.3.89-7.76,2.68-10.36,1.79-2.61,4.14-3.91,7.05-3.91,3.33,0,5.99,1.62,7.96,4.86,1.97,3.24,2.96,7.47,2.96,12.68,0,2.79-.38,5.24-1.14,7.37Z"/><path class="b" d="M367.91,1502.76c-.15-2.09-.23-4.68-.23-7.77l.09-21c0-3.7.05-7.26.14-10.68.09-3.42.2-7.01.32-10.77l-1.91-1.37-14.55,3.91.18,3.36,7,1.18c.06.55.1,1.52.14,2.91.03,1.39.06,2.97.09,4.73.03,1.76.06,3.46.09,5.09.03,1.64.05,3,.05,4.09-1.09-.73-2.42-1.26-4-1.59-1.58-.33-3.12-.5-4.64-.5-2.61,0-5.15.5-7.64,1.5s-4.73,2.46-6.73,4.36c-2,1.91-3.58,4.2-4.73,6.87-1.15,2.67-1.73,5.67-1.73,9,0,3.76.8,7.06,2.41,9.91,1.61,2.85,3.76,5.08,6.45,6.68,2.7,1.61,5.74,2.41,9.14,2.41,2.06,0,4.05-.51,5.96-1.54,1.91-1.03,3.71-2.82,5.41-5.37l.27.09-.09,5.91,1.73,1.18,13-3.27v-3.27l-5.82-1.45c-.12-.97-.26-2.5-.41-4.59ZM359.31,1503.44c-1.33,1.76-2.73,3-4.18,3.73-1.45.73-2.91,1.09-4.36,1.09-3.21,0-5.93-1.3-8.14-3.91-2.21-2.61-3.32-6.24-3.32-10.91,0-4.42,1.03-7.97,3.09-10.64,2.06-2.67,4.85-4,8.36-4,1.51,0,3.06.38,4.64,1.14,1.58.76,2.88,2.02,3.91,3.77v19.73Z"/><path class="b" d="M387.75,1465.07c1.82,0,3.29-.59,4.41-1.77,1.12-1.18,1.68-2.59,1.68-4.23s-.56-3.05-1.68-4.23c-1.12-1.18-2.59-1.77-4.41-1.77s-3.32.59-4.5,1.77c-1.18,1.18-1.77,2.59-1.77,4.23s.59,3.05,1.77,4.23c1.18,1.18,2.68,1.77,4.5,1.77Z"/><path class="b" d="M392.07,1505.89c-.09-1.82-.14-4-.14-6.55v-11.46c0-2.42.05-4.56.14-6.41.09-1.85.23-3.71.41-5.59l-1.73-1.45-14.18,3.64v3.36l6.09,1.27c.24,1.27.42,2.84.55,4.68.12,1.85.18,3.86.18,6.05v6.45c0,2.06-.03,3.74-.09,5.05-.06,1.3-.12,2.3-.18,3-.06.7-.12,1.17-.18,1.41l-6.09,1.36.27,3.64h21.19l.18-3.64-6.09-1.36c-.12-.49-.23-1.64-.32-3.46Z"/><path class="b" d="M422.1,1491.53c-3.52-1.58-5.97-2.89-7.36-3.96-1.39-1.06-2.09-2.44-2.09-4.14,0-1.45.62-2.67,1.86-3.64,1.24-.97,2.89-1.45,4.96-1.45.91,0,1.79.11,2.64.32.85.21,1.58.5,2.18.86l2.09,6.27h4.73l-1-9.73c-1.21-.55-2.73-.98-4.55-1.32-1.82-.33-3.61-.5-5.36-.5-3.21,0-6.03.5-8.46,1.5-2.42,1-4.33,2.36-5.73,4.09-1.39,1.73-2.09,3.72-2.09,5.96,0,2.79.88,5.09,2.64,6.91,1.76,1.82,4.82,3.61,9.18,5.37,3.33,1.33,5.56,2.56,6.68,3.68,1.12,1.12,1.68,2.44,1.68,3.96s-.59,2.82-1.77,3.73c-1.18.91-2.77,1.36-4.77,1.36-2.67,0-5.06-.7-7.18-2.09l-1.91-6.55h-4.91l.46,10c1.64.91,3.62,1.62,5.96,2.14,2.33.51,4.65.77,6.96.77,4.67,0,8.5-1.07,11.5-3.23,3-2.15,4.5-4.96,4.5-8.41,0-2.61-.8-4.8-2.41-6.59-1.61-1.79-4.41-3.56-8.41-5.32Z"/><path class="b" d="M462.31,1507.76c-1.18.52-2.41.77-3.68.77-2.42,0-4.29-.7-5.59-2.09-1.3-1.39-1.95-3.55-1.95-6.46l.08-20h13.47v-4.91h-13.41l.14-8.46h-2.18l-12.82,11.18v2.18h6.36l-.27,21.28c0,4.67,1.24,8.14,3.73,10.41,2.48,2.27,5.64,3.41,9.45,3.41,2.42,0,4.7-.62,6.82-1.86,2.12-1.24,3.73-2.96,4.82-5.14l-1.82-2.36c-.91.85-1.95,1.53-3.14,2.05Z"/><path class="b" d="M526.87,1507.26c-1.33.85-2.82,1.5-4.46,1.95-1.64.46-3.33.68-5.09.68-3.58,0-6.82-.91-9.73-2.73-2.91-1.82-5.23-4.48-6.96-8-1.73-3.52-2.59-7.76-2.59-12.73,0-4,.67-7.61,2-10.82,1.33-3.21,3.37-5.74,6.09-7.59,2.73-1.85,6.21-2.77,10.46-2.77,1.7,0,3.41.18,5.14.55,1.73.36,3.17.91,4.32,1.64l2.82,8.91,4.55-.36-.64-12.91c-2.06-.91-4.49-1.62-7.27-2.14-2.79-.51-5.49-.77-8.09-.77-4.67,0-8.88.71-12.64,2.14-3.76,1.42-6.97,3.4-9.64,5.91-2.67,2.52-4.7,5.49-6.09,8.91-1.39,3.42-2.09,7.11-2.09,11.05,0,5.88,1.29,10.83,3.86,14.87,2.57,4.03,6.05,7.06,10.41,9.09,4.36,2.03,9.27,3.05,14.73,3.05,3.27,0,6.41-.42,9.41-1.27,3-.85,5.47-1.82,7.41-2.91l2.64-11.64-4.82-.55-3.73,8.45Z"/><path class="b" d="M570.58,1476.8c-2.91-1.7-6.27-2.55-10.09-2.55s-7.11.85-10.23,2.55c-3.12,1.7-5.62,4.08-7.5,7.14-1.88,3.06-2.82,6.71-2.82,10.96,0,3.94.85,7.44,2.54,10.5,1.7,3.06,4.05,5.44,7.05,7.14,3,1.7,6.53,2.55,10.59,2.55,3.64,0,6.94-.92,9.91-2.77,2.97-1.85,5.32-4.33,7.05-7.46,1.73-3.12,2.59-6.62,2.59-10.5s-.79-7.5-2.36-10.5c-1.58-3-3.82-5.35-6.73-7.05ZM569.08,1503.71c-.76,2.12-1.82,3.76-3.18,4.91-1.36,1.15-2.98,1.73-4.86,1.73-2.18,0-4.15-.74-5.91-2.23-1.76-1.48-3.12-3.53-4.09-6.14-.97-2.61-1.45-5.58-1.45-8.91,0-4.3.89-7.76,2.68-10.36,1.79-2.61,4.14-3.91,7.05-3.91,3.33,0,5.99,1.62,7.96,4.86,1.97,3.24,2.96,7.47,2.96,12.68,0,2.79-.38,5.24-1.14,7.37Z"/><path class="b" d="M625.66,1505.85c-.06-1.79-.09-3.74-.09-5.86v-9.82c0-3.52-.62-6.46-1.86-8.82-1.24-2.36-2.86-4.14-4.86-5.32-2-1.18-4.18-1.77-6.55-1.77s-4.71.55-6.87,1.64c-2.15,1.09-4.23,2.79-6.23,5.09l-.27-.09.46-4.91-1.82-1.55-13.46,3.64v3.36l5.82,1.27c.24,1.27.44,2.8.59,4.59.15,1.79.23,3.65.23,5.59l-.09,7c0,1.94-.03,3.55-.09,4.82-.06,1.27-.12,2.29-.18,3.05-.06.76-.12,1.29-.18,1.59l-5.64,1.45.27,3.55h20.19l.27-3.55-5.64-1.45c-.18-.55-.32-1.7-.41-3.46-.09-1.76-.14-3.94-.14-6.55v-13.55c1.15-1.57,2.53-2.8,4.14-3.68,1.61-.88,3.35-1.32,5.23-1.32,1.46,0,2.83.35,4.14,1.05,1.3.7,2.38,1.82,3.23,3.37.85,1.54,1.27,3.59,1.27,6.14v9.09c0,1.51-.02,2.85-.05,4-.03,1.15-.08,2.14-.14,2.96-.06.82-.12,1.47-.18,1.95l-5.27,1.45.18,3.55h19.73l.27-3.55-5.64-1.45c-.18-.55-.3-1.71-.36-3.5Z"/><path class="b" d="M663.05,1476.16c-2.52-1.27-5.38-1.91-8.59-1.91s-6.12.67-8.73,2c-2.61,1.33-4.67,3.14-6.18,5.41-1.52,2.27-2.27,4.86-2.27,7.77,0,2.67.73,5.05,2.18,7.14,1.31,1.88,3.1,3.37,5.31,4.52-1.63.86-3.02,1.8-4.13,2.85-1.7,1.61-2.55,3.26-2.55,4.96,0,1.82.8,3.3,2.41,4.46,1.16.83,2.56,1.35,4.18,1.58-3.09,1.43-5.48,2.91-7.08,4.46-1.79,1.73-2.68,3.62-2.68,5.68,0,3.03,1.68,5.45,5.05,7.27,3.36,1.82,7.96,2.73,13.78,2.73,4.06,0,7.7-.65,10.91-1.95,3.21-1.3,5.76-3.09,7.64-5.36,1.88-2.27,2.82-4.81,2.82-7.59,0-3.15-1.11-5.62-3.32-7.41-2.21-1.79-5.47-2.89-9.77-3.32l-12.37-1.27c-1.21-.12-2.15-.44-2.82-.95-.67-.51-1-1.17-1-1.95,0-.61.26-1.21.77-1.82.3-.36.71-.73,1.18-1.11,2.01.61,4.2.93,6.6.93,3.21,0,6.09-.62,8.64-1.86,2.54-1.24,4.54-2.97,6-5.18,1.45-2.21,2.18-4.68,2.18-7.41s-.73-5.2-2.18-7.41c-.15-.22-.36-.39-.52-.6l8.07.65v-6.27l-12.98,1.35c-.19-.11-.33-.25-.53-.35ZM658.01,1516.35c3.21.24,5.52.83,6.91,1.77,1.39.94,2.09,2.35,2.09,4.23,0,2.49-1.18,4.53-3.55,6.14-2.36,1.61-5.42,2.41-9.18,2.41-3.33,0-5.96-.64-7.87-1.91-1.91-1.27-2.86-3.03-2.86-5.27,0-1.7.51-3.29,1.54-4.77.88-1.27,2.11-2.36,3.56-3.34l9.35.75ZM660.37,1496.44c-1.33,1.76-3.15,2.64-5.46,2.64-2.49,0-4.49-.97-6-2.91-1.52-1.94-2.27-4.46-2.27-7.55s.71-5.58,2.14-7.46c1.42-1.88,3.29-2.82,5.59-2.82,2.42,0,4.37,1,5.82,3,1.45,2,2.18,4.67,2.18,8,0,2.97-.67,5.33-2,7.09Z"/><path class="b" d="M704.63,1474.52c-1.76,0-3.56.61-5.41,1.82-1.85,1.21-3.65,3.55-5.41,7l-.27-.09.36-7.46-1.64-1.36-13.36,3.64v3.36l5.82,1.27c.24,1.27.44,2.79.59,4.55.15,1.76.23,3.64.23,5.64l-.09,7c0,1.82-.03,3.4-.09,4.73-.06,1.33-.12,2.4-.18,3.18-.06.79-.12,1.3-.18,1.55l-5.64,1.45.27,3.55h22.55l.27-3.73-7.91-1.27c-.06-.61-.12-1.55-.18-2.82-.06-1.27-.12-2.74-.18-4.41-.06-1.67-.12-3.38-.18-5.14l-.09-8c.79-1.76,1.67-3.24,2.64-4.45.77-.96,1.56-1.73,2.37-2.39.63.48,1.27.9,1.9,1.2,1.03.49,2.15.73,3.36.73,1.64,0,3-.42,4.09-1.27,1.09-.85,1.64-2.06,1.64-3.64s-.52-2.74-1.55-3.5c-1.03-.76-2.27-1.14-3.73-1.14Z"/><path class="b" d="M739.75,1506.94c-1.67.82-3.56,1.23-5.68,1.23-3.88,0-7.02-1.36-9.41-4.09-2.22-2.52-3.36-5.95-3.52-10.18h25.76v-1.82c0-5.45-1.35-9.77-4.05-12.96-2.7-3.18-6.53-4.8-11.5-4.86-3.4-.06-6.55.79-9.45,2.55-2.91,1.76-5.27,4.23-7.09,7.41-1.82,3.18-2.73,6.89-2.73,11.14,0,3.94.83,7.4,2.5,10.37,1.67,2.97,3.96,5.27,6.86,6.91,2.91,1.64,6.18,2.45,9.82,2.45,3.4,0,6.47-.82,9.23-2.45,2.76-1.64,4.98-4.12,6.68-7.46l-2.45-2.27c-1.64,1.88-3.29,3.23-4.96,4.05ZM722.38,1484.25c.88-1.94,2.06-3.4,3.55-4.36,1.49-.97,3.05-1.46,4.68-1.46,2.55,0,4.56.93,6.05,2.77,1.48,1.85,2.23,4.41,2.23,7.68v.73h-17.66c.16-2.04.49-3.89,1.16-5.36Z"/><path class="b" d="M779.73,1476.16c-2.52-1.27-5.38-1.91-8.59-1.91s-6.12.67-8.73,2c-2.61,1.33-4.67,3.14-6.18,5.41-1.52,2.27-2.27,4.86-2.27,7.77,0,2.67.73,5.05,2.18,7.14,1.31,1.88,3.1,3.37,5.31,4.52-1.63.86-3.02,1.8-4.13,2.85-1.7,1.61-2.55,3.26-2.55,4.96,0,1.82.8,3.3,2.41,4.46,1.16.83,2.56,1.35,4.18,1.58-3.09,1.43-5.48,2.91-7.08,4.46-1.79,1.73-2.68,3.62-2.68,5.68,0,3.03,1.68,5.45,5.05,7.27,3.36,1.82,7.96,2.73,13.78,2.73,4.06,0,7.7-.65,10.91-1.95,3.21-1.3,5.76-3.09,7.64-5.36,1.88-2.27,2.82-4.81,2.82-7.59,0-3.15-1.11-5.62-3.32-7.41-2.21-1.79-5.47-2.89-9.77-3.32l-12.37-1.27c-1.21-.12-2.15-.44-2.82-.95-.67-.51-1-1.17-1-1.95,0-.61.26-1.21.77-1.82.3-.36.71-.73,1.18-1.11,2.01.61,4.2.93,6.6.93,3.21,0,6.09-.62,8.64-1.86,2.54-1.24,4.54-2.97,6-5.18,1.45-2.21,2.18-4.68,2.18-7.41s-.73-5.2-2.18-7.41c-.15-.22-.36-.39-.52-.6l8.07.65v-6.27l-12.98,1.35c-.19-.11-.33-.25-.53-.35ZM774.69,1516.35c3.21.24,5.52.83,6.91,1.77,1.39.94,2.09,2.35,2.09,4.23,0,2.49-1.18,4.53-3.55,6.14-2.36,1.61-5.42,2.41-9.18,2.41-3.33,0-5.96-.64-7.87-1.91-1.91-1.27-2.86-3.03-2.86-5.27,0-1.7.51-3.29,1.54-4.77.88-1.27,2.11-2.36,3.56-3.34l9.35.75ZM777.05,1496.44c-1.33,1.76-3.15,2.64-5.46,2.64-2.49,0-4.49-.97-6-2.91-1.52-1.94-2.27-4.46-2.27-7.55s.71-5.58,2.14-7.46c1.42-1.88,3.29-2.82,5.59-2.82,2.42,0,4.37,1,5.82,3,1.45,2,2.18,4.67,2.18,8,0,2.97-.67,5.33-2,7.09Z"/><path class="b" d="M829.17,1505.3c-.09-1.06-.14-2.23-.14-3.5l.18-14.46c-.06-3.94-1.5-7.11-4.32-9.5-2.82-2.39-6.62-3.59-11.41-3.59-1.58.24-3.24.71-5,1.41-1.76.7-3.41,1.53-4.96,2.5-1.55.97-2.82,2-3.82,3.09-1,1.09-1.5,2.15-1.5,3.18,0,1.64.83,2.81,2.5,3.5,1.67.7,3.71.77,6.14.23l.27-4.37c.12-1.7.42-2.83.91-3.41.48-.58,1.42-.86,2.82-.86,1.76,0,3.36.37,4.82,1.09,1.45.73,2.62,1.68,3.5,2.86.88,1.18,1.32,2.5,1.32,3.96v4.18l-14,4.55c-2.97.91-5.12,2.06-6.46,3.45-1.33,1.39-2,3.12-2,5.18,0,1.58.51,3.15,1.55,4.73,1.03,1.58,2.52,2.9,4.46,3.96,1.94,1.06,4.18,1.59,6.73,1.59,1.94,0,3.85-.59,5.73-1.77,1.51-.95,3.05-2.34,4.6-3.98l.77,2.48c.73,2.18,2.09,3.27,4.09,3.27.61,0,1.3-.11,2.09-.32.79-.21,1.64-.5,2.55-.86l4.91-1.91v-3.18l-5.91-1.09c-.18-.55-.32-1.35-.41-2.41ZM820.49,1505.53c-.97,1.09-2,1.91-3.09,2.46-1.09.54-2.24.82-3.45.82-1.76,0-3.27-.59-4.55-1.77-1.27-1.18-1.91-2.53-1.91-4.05,0-1.21.32-2.2.95-2.96.64-.76,1.68-1.32,3.14-1.68l8.91-2.18v9.36Z"/><path class="b" d="M863.25,1507.76c-1.18.52-2.41.77-3.68.77-2.42,0-4.29-.7-5.59-2.09-1.3-1.39-1.95-3.55-1.95-6.46l.08-20h13.47v-4.91h-13.41l.14-8.46h-2.18l-12.82,11.18v2.18h6.36l-.27,21.28c0,4.67,1.24,8.14,3.73,10.41,2.48,2.27,5.64,3.41,9.45,3.41,2.42,0,4.7-.62,6.82-1.86,2.12-1.24,3.73-2.96,4.82-5.14l-1.82-2.36c-.91.85-1.95,1.53-3.14,2.05Z"/><path class="b" d="M883.78,1505.89c-.09-1.82-.14-4-.14-6.55v-11.46c0-2.42.05-4.56.14-6.41.09-1.85.23-3.71.41-5.59l-1.73-1.45-14.18,3.64v3.36l6.09,1.27c.24,1.27.42,2.84.55,4.68.12,1.85.18,3.86.18,6.05v6.45c0,2.06-.03,3.74-.09,5.05-.06,1.3-.12,2.3-.18,3-.06.7-.12,1.17-.18,1.41l-6.09,1.36.27,3.64h21.19l.18-3.64-6.09-1.36c-.12-.49-.23-1.64-.32-3.46Z"/><path class="b" d="M879.46,1465.07c1.82,0,3.29-.59,4.41-1.77,1.12-1.18,1.68-2.59,1.68-4.23s-.56-3.05-1.68-4.23c-1.12-1.18-2.59-1.77-4.41-1.77s-3.32.59-4.5,1.77c-1.18,1.18-1.77,2.59-1.77,4.23s.59,3.05,1.77,4.23c1.18,1.18,2.68,1.77,4.5,1.77Z"/><path class="b" d="M925.08,1476.8c-2.91-1.7-6.27-2.55-10.09-2.55s-7.11.85-10.23,2.55c-3.12,1.7-5.62,4.08-7.5,7.14s-2.82,6.71-2.82,10.96c0,3.94.85,7.44,2.54,10.5,1.7,3.06,4.05,5.44,7.05,7.14,3,1.7,6.53,2.55,10.59,2.55,3.64,0,6.94-.92,9.91-2.77,2.97-1.85,5.32-4.33,7.05-7.46,1.73-3.12,2.59-6.62,2.59-10.5s-.79-7.5-2.36-10.5c-1.58-3-3.82-5.35-6.73-7.05ZM923.58,1503.71c-.76,2.12-1.82,3.76-3.18,4.91-1.36,1.15-2.98,1.73-4.86,1.73-2.18,0-4.15-.74-5.91-2.23-1.76-1.48-3.12-3.53-4.09-6.14-.97-2.61-1.45-5.58-1.45-8.91,0-4.3.89-7.76,2.68-10.36,1.79-2.61,4.14-3.91,7.05-3.91,3.33,0,5.99,1.62,7.96,4.86,1.97,3.24,2.96,7.47,2.96,12.68,0,2.79-.38,5.24-1.14,7.37Z"/><path class="b" d="M980.52,1509.35c-.18-.55-.3-1.71-.36-3.5-.06-1.79-.09-3.74-.09-5.86v-9.82c0-3.52-.62-6.46-1.86-8.82-1.24-2.36-2.86-4.14-4.86-5.32-2-1.18-4.18-1.77-6.55-1.77s-4.71.55-6.87,1.64c-2.15,1.09-4.23,2.79-6.23,5.09l-.27-.09.46-4.91-1.82-1.55-13.46,3.64v3.36l5.82,1.27c.24,1.27.44,2.8.59,4.59.15,1.79.23,3.65.23,5.59l-.09,7c0,1.94-.03,3.55-.09,4.82-.06,1.27-.12,2.29-.18,3.05-.06.76-.12,1.29-.18,1.59l-5.64,1.45.27,3.55h20.19l.27-3.55-5.64-1.45c-.18-.55-.32-1.7-.41-3.46-.09-1.76-.14-3.94-.14-6.55v-13.55c1.15-1.57,2.53-2.8,4.14-3.68,1.61-.88,3.35-1.32,5.23-1.32,1.46,0,2.83.35,4.14,1.05,1.3.7,2.38,1.82,3.23,3.37.85,1.54,1.27,3.59,1.27,6.14v9.09c0,1.51-.02,2.85-.05,4-.03,1.15-.08,2.14-.14,2.96-.06.82-.12,1.47-.18,1.95l-5.27,1.45.18,3.55h19.73l.27-3.55-5.64-1.45Z"/><polygon class="b" points="38.94 1192.67 88.58 1246.07 120.7 1246.07 59.7 1182.07 118.75 1122.49 88.59 1122.49 38.94 1174.59 38.94 1122.49 14.86 1122.49 14.86 1246.07 38.94 1246.07 38.94 1192.67"/><polygon class="b" points="220.95 1225.07 154.9 1225.07 154.9 1194.09 200.53 1194.09 200.53 1173.44 154.9 1173.44 154.9 1143.49 220.26 1143.49 220.26 1122.49 130.82 1122.49 130.82 1246.07 220.95 1246.07 220.95 1225.07"/><polygon class="b" points="350.29 1122.49 327.4 1122.49 327.73 1206.08 267.78 1122.49 245.06 1122.49 245.06 1246.07 267.95 1246.07 267.63 1160.07 329.29 1246.07 350.29 1246.07 350.29 1122.49"/><polygon class="b" points="463.13 1206.08 403.19 1122.49 380.47 1122.49 380.47 1246.07 403.35 1246.07 403.03 1160.07 464.69 1246.07 485.69 1246.07 485.69 1122.49 462.8 1122.49 463.13 1206.08"/><polygon class="b" points="608.38 1225.07 542.34 1225.07 542.34 1194.09 587.97 1194.09 587.97 1173.44 542.34 1173.44 542.34 1143.49 607.7 1143.49 607.7 1122.49 518.25 1122.49 518.25 1246.07 608.38 1246.07 608.38 1225.07"/><path class="b" d="M688.93,1225.02c-3.83,1.51-8.32,2.28-13.34,2.28-6.71,0-13.09-1.28-18.95-3.8-5.94-2.55-12.81-6.97-20.43-13.13l-1.42-1.15-13.22,17.89,1.27,1.05c7.76,6.49,15.98,11.47,24.41,14.78,8.46,3.32,17.59,5.01,27.15,5.01s18.53-1.67,25.92-4.95c7.46-3.31,13.39-8.01,17.62-13.97,4.26-6,6.41-12.92,6.41-20.57,0-9.61-3.1-17.37-9.22-23.07-6-5.58-15.33-9.54-27.75-11.77l-21.43-3.6c-6.19-1.09-10.69-2.72-13.36-4.87-2.5-2.01-3.72-4.85-3.72-8.67,0-2.8.89-5.38,2.64-7.69,1.8-2.37,4.38-4.26,7.68-5.62,3.38-1.39,7.39-2.1,11.94-2.1,6.5,0,12.94,1.15,19.12,3.41,6.21,2.27,12.35,5.68,18.24,10.13l1.47,1.11,12.45-18.36-1.36-1c-6.98-5.12-14.71-9.07-22.97-11.75-8.26-2.67-17.1-4.03-26.27-4.03s-17.37,1.58-24.15,4.71c-6.84,3.15-12.24,7.63-16.07,13.3-3.84,5.71-5.79,12.41-5.79,19.93,0,8.56,2.74,15.69,8.13,21.21,5.32,5.45,13.47,9.17,24.2,11.05l22.13,3.77c7.68,1.32,13.1,3.19,16.11,5.57,2.84,2.24,4.22,5.47,4.22,9.86,0,3.36-1,6.34-2.97,8.87-2.02,2.6-4.95,4.66-8.7,6.14Z"/><path class="b" d="M804.93,1122.49h-26.24l-48.55,123.58h25.23l12.35-33.62h46.79l12.35,33.62h25.9l-47.84-123.58ZM775.02,1192.82l16.2-43.98,16.35,43.98h-32.54Z"/><polygon class="b" points="898.96 1246.07 923.89 1159.87 948.82 1246.07 972.99 1246.07 1000 1122.49 976.15 1122.49 959.44 1204.79 935.32 1122.49 913.15 1122.49 889.03 1204.95 872.31 1122.49 847.78 1122.49 874.79 1246.07 898.96 1246.07"/><path class="b" d="M132.95,1384.38c-5.36,6.66-11.74,11.83-18.96,15.37-7.22,3.54-14.97,5.33-23.06,5.33-7.37,0-14.28-1.39-20.54-4.13-6.27-2.74-11.83-6.65-16.51-11.62-4.69-4.98-8.39-10.88-11-17.53-2.6-6.66-3.92-14.01-3.92-21.84s1.32-15.18,3.92-21.84c2.61-6.65,6.31-12.55,11-17.53,4.68-4.97,10.23-8.88,16.51-11.62,6.27-2.74,13.19-4.13,20.54-4.13,8.09,0,15.85,1.76,23.07,5.22,7.21,3.46,13.59,8.67,18.94,15.47l1.2,1.53,20.51-20-.99-1.24c-4.9-6.12-10.75-11.36-17.4-15.56-6.62-4.18-13.84-7.47-21.45-9.75-7.62-2.29-15.66-3.44-23.88-3.44-11.57,0-22.53,2.12-32.6,6.32-10.06,4.19-18.98,10.15-26.53,17.69-7.54,7.54-13.49,16.43-17.68,26.41-4.19,9.98-6.32,20.91-6.32,32.49s2.13,22.51,6.32,32.49c4.19,9.98,10.14,18.87,17.68,26.41,7.55,7.55,16.48,13.5,26.53,17.69,10.06,4.19,21.03,6.32,32.59,6.32,8.22,0,16.26-1.16,23.88-3.44,7.62-2.29,14.84-5.61,21.46-9.87,6.63-4.27,12.48-9.46,17.38-15.43l1.01-1.24-20.51-20-1.2,1.5Z"/><polygon class="b" points="284.89 1335.62 210.16 1335.62 210.16 1269.52 179.69 1269.52 179.69 1430.38 210.16 1430.38 210.16 1363.17 284.89 1363.17 284.89 1430.38 315.37 1430.38 315.37 1269.52 284.89 1269.52 284.89 1335.62"/><path class="b" d="M455.22,1361.19c0,8.99-1.53,16.83-4.56,23.31-2.99,6.41-7.35,11.49-12.96,15.12-5.61,3.62-12.29,5.45-19.84,5.45s-14.2-1.83-19.73-5.45c-5.55-3.63-9.91-8.72-12.98-15.14-3.09-6.47-4.66-14.31-4.66-23.3v-91.67h-30.48v91.67c0,14.46,2.79,27.21,8.29,37.89,5.53,10.75,13.51,19.16,23.73,25,10.18,5.82,22.23,8.77,35.82,8.77s26.06-2.95,36.17-8.78c10.14-5.84,18.05-14.25,23.5-25,5.42-10.69,8.17-23.44,8.17-37.88v-91.67h-30.48v91.67Z"/><path class="b" d="M635.49,1346.61c5.82-7.84,8.78-17.15,8.78-27.68,0-9.72-2.32-18.39-6.9-25.76-4.58-7.36-11.05-13.21-19.24-17.38-8.16-4.15-17.65-6.26-28.22-6.26h-71.66v160.86h30.48v-62.94h34.47l30.35,62.94h33.83l-33.67-67.34c9.03-3.59,16.36-9.11,21.79-16.43ZM548.73,1295.73h38.71c7.91,0,14.32,2.16,19.06,6.41,4.69,4.21,7.06,9.93,7.06,17.02s-2.38,12.59-7.06,16.79c-4.74,4.25-11.15,6.41-19.06,6.41h-38.71v-46.63Z"/><path class="b" d="M792.26,1384.38c-5.36,6.66-11.74,11.83-18.97,15.37-7.21,3.54-14.97,5.33-23.06,5.33-7.37,0-14.28-1.39-20.54-4.12-6.27-2.74-11.83-6.65-16.51-11.62-4.69-4.98-8.39-10.88-10.99-17.53-2.6-6.66-3.93-14.01-3.93-21.84s1.32-15.18,3.93-21.84c2.6-6.66,6.3-12.55,10.99-17.53,4.68-4.97,10.24-8.88,16.51-11.62,6.27-2.74,13.18-4.13,20.54-4.13,8.09,0,15.85,1.76,23.07,5.22,7.21,3.46,13.59,8.67,18.94,15.47l1.2,1.53,20.51-20-.99-1.24c-4.9-6.12-10.75-11.35-17.4-15.56-6.63-4.19-13.84-7.47-21.45-9.75-7.62-2.29-15.66-3.44-23.88-3.44-11.57,0-22.53,2.12-32.6,6.32-10.06,4.19-18.99,10.15-26.53,17.69-7.54,7.54-13.49,16.43-17.68,26.41-4.19,9.98-6.32,20.91-6.32,32.49s2.13,22.51,6.32,32.49c4.19,9.98,10.14,18.87,17.68,26.41,7.55,7.55,16.47,13.5,26.53,17.69,10.06,4.19,21.03,6.32,32.6,6.32,8.22,0,16.26-1.16,23.88-3.44,7.62-2.29,14.84-5.61,21.46-9.87,6.63-4.27,12.48-9.46,17.38-15.42l1.02-1.24-20.51-20-1.2,1.5Z"/><polygon class="b" points="949.91 1335.62 875.18 1335.62 875.18 1269.52 844.7 1269.52 844.7 1430.38 875.18 1430.38 875.18 1363.17 949.91 1363.17 949.91 1430.38 980.38 1430.38 980.38 1269.52 949.91 1269.52 949.91 1335.62"/><polygon class="b" points="525.89 1007.38 583.42 974.86 583.42 479.45 738.92 479.45 771.44 421.92 525.89 421.92 525.89 1007.38"/><polygon class="b" points="583.42 311.54 583.42 .21 525.89 32.73 525.89 369.07 801.31 369.07 833.83 311.54 583.42 311.54"/><path class="b" d="M410.86,311.54h-73.12l1.17,1.59c5.79,7.86,11.43,14.55,16.78,19.88,6.8,6.78,15.21,14.29,24.13,22.24,5.76,5.14,10.53,9.44,15.03,13.55l.29.26h73.26V65.23l-57.53,32.52v213.79Z"/><path class="b" d="M350.76,633.48c-32.04-45.65-72.2-86.13-95.94-137.27-25.33-50.85-32.64-110.6-23-166.06l2.61.18c1.67,107.79,47.31,174.19,119.11,247.83,42.29,48.16,85.85,105.01,118.77,165.76h.49v-173.92c0-116.32-91.6-174.88-135.43-218.63-43.84-43.75-83.06-140.99-87.17-156.16h-1.9s-29.1,54.83-43.14,79.59c-37.72,66.51-55.45,128.22-56.19,194.98-.74,66.29,16.81,130.14,59.96,176.66,42.56,45.88,66.26,49.12,129.45,90.44,63.19,41.32,132.96,117.67,132.96,117.67h1.46c-21.39-78.61-76.82-155.15-122.05-221.08Z"/></svg>