<?xml version="1.0" encoding="UTF-8"?><svg id="a" xmlns="http://www.w3.org/2000/svg" viewBox="0 0 1000 341.15"><defs><style>.b{fill:#5cbf3b;}.c{fill:#5cbf3b;}.d{fill:#28333b;}</style></defs><path class="c" d="M539.94,288.93c1.36,0,2.45-.44,3.29-1.32.84-.88,1.25-1.93,1.25-3.15s-.42-2.27-1.25-3.15c-.84-.88-1.93-1.32-3.29-1.32s-2.48.44-3.36,1.32c-.88.88-1.32,1.93-1.32,3.15s.44,2.27,1.32,3.15c.88.88,2,1.32,3.36,1.32Z"/><path class="c" d="M906.71,288.93c1.36,0,2.45-.44,3.29-1.32.84-.88,1.25-1.93,1.25-3.15s-.42-2.27-1.25-3.15c-.84-.88-1.93-1.32-3.29-1.32s-2.48.44-3.36,1.32c-.88.88-1.32,1.93-1.32,3.15s.44,2.27,1.32,3.15c.88.88,2,1.32,3.36,1.32Z"/><path class="b" d="M281.53,284.66l-4.48,2.65-13.9,34.59-3.39.95.13,2.85h11.94l.13-2.85-4.2-.95,2.97-8.44c1.11-.03,2.22-.07,3.27-.1,1.36-.04,2.78-.07,4.27-.07s3.01.02,4.41.07c.91.03,1.77.03,2.65.04l3.39,8.5-4.2.95.2,2.85h15.06l.2-2.85-3.46-.95-14.99-37.23ZM278.28,309.75c-2.03,0-3.74-.02-5.12-.07-.39-.01-.7-.03-1.05-.04l5.56-15.29,6.3,15.31c-.19,0-.33.01-.53.02-1.4.05-3.12.07-5.15.07ZM362.82,321.89l4.2.95-.2,2.85h-15.6l-.2-2.85,4.2-.95c.04-.36.07-.93.07-1.7v-3.22c0-1.38-.02-3.18-.07-5.39l-.11-18.75-14.2,33.06h-2.92l-14.7-32.53.05,17.54c0,3.71.01,6.36.03,7.97.02,1.61.06,2.61.1,3.02l4.68.95-.2,2.85h-13.84l-.2-2.85,4.68-.95c.04-.32.08-.93.1-1.83.02-.9.06-2.04.1-3.43.04-1.38.07-2.95.07-4.71l.2-13.29c.04-2.21.06-4.09.03-5.63-.02-1.54-.03-2.65-.03-3.32l-4.2-.95.2-2.85h12.48l13.51,30.11,12.87-30.11h12l.2,2.85-4.27.88c-.05.54-.05,1.63,0,3.26.04,1.63.09,3.53.13,5.7l.34,12.28c.04,2.13.1,3.95.17,5.46.07,1.52.12,2.74.17,3.66.04.93.09,1.57.14,1.93ZM392.61,320.16c-1.24.61-2.66.91-4.24.91-2.89,0-5.23-1.02-7.02-3.05-1.65-1.88-2.51-4.44-2.63-7.6h19.21v-1.36c0-4.07-1.01-7.29-3.02-9.66-2.01-2.37-4.87-3.58-8.58-3.63-2.53-.04-4.88.59-7.05,1.9-2.17,1.31-3.93,3.15-5.29,5.53-1.36,2.37-2.03,5.14-2.03,8.31,0,2.94.62,5.52,1.87,7.73,1.24,2.22,2.95,3.93,5.12,5.15,2.17,1.22,4.61,1.83,7.32,1.83,2.53,0,4.83-.61,6.88-1.83,2.06-1.22,3.72-3.07,4.98-5.56l-1.83-1.7c-1.22,1.4-2.45,2.41-3.7,3.02ZM379.65,303.24c.66-1.45,1.54-2.53,2.65-3.26,1.11-.72,2.27-1.09,3.49-1.09,1.9,0,3.4.69,4.51,2.07,1.11,1.38,1.66,3.29,1.66,5.73v.54h-13.18c.12-1.52.37-2.9.87-4ZM422.26,319.25l1.36,1.76c-.81,1.63-2.01,2.91-3.6,3.83-1.58.93-3.28,1.39-5.09,1.39-2.85,0-5.2-.85-7.05-2.54-1.86-1.7-2.78-4.28-2.78-7.77l.2-15.87h-4.75v-1.63l9.56-8.34h1.63l-.1,6.31h10v3.66h-10.04l-.06,14.92c0,2.17.49,3.78,1.46,4.82.97,1.04,2.36,1.56,4.17,1.56.95,0,1.87-.19,2.75-.58.88-.38,1.66-.89,2.34-1.53ZM455.07,321.96l4.2,1.08-.13,2.65h-14.72l-.2-2.65,3.93-1.08c.05-.36.09-.85.14-1.46.04-.61.08-1.35.1-2.2.02-.86.03-1.85.03-2.98v-6.78c0-1.85-.3-3.36-.91-4.51-.61-1.15-1.4-2-2.37-2.54-.97-.54-2.02-.81-3.15-.81-1.36,0-2.65.33-3.87.98-1.22.66-2.26,1.57-3.12,2.75v10.11c0,1.99.03,3.64.1,4.95.07,1.31.17,2.15.3,2.51l4.14,1.08-.2,2.65h-14.99l-.2-2.65,4.2-1.08c.09-.45.16-1.22.2-2.31.04-1.08.09-2.49.13-4.2.04-1.72.07-3.66.07-5.83v-8.48c0-1.54-.01-3.15-.03-4.85-.02-1.69-.05-3.33-.07-4.92-.02-1.58-.06-2.98-.1-4.2-.05-1.22-.09-2.08-.14-2.58l-5.02-.68-.14-2.44,10.58-2.92,1.49,1.02c-.05,1.4-.09,2.79-.13,4.17-.05,1.38-.08,2.86-.1,4.44-.02,1.58-.06,3.39-.1,5.43-.05,2.03-.07,4.41-.07,7.12l.2.07c1.49-1.72,3.03-2.98,4.61-3.8,1.58-.81,3.28-1.22,5.09-1.22s3.39.45,4.88,1.36c1.49.9,2.7,2.24,3.63,4,.93,1.76,1.39,3.98,1.39,6.65v7.19c0,1.58.03,3.03.1,4.34.07,1.31.15,2.19.24,2.65ZM485.37,297.68c-2.17-1.26-4.68-1.9-7.53-1.9s-5.3.63-7.63,1.9c-2.33,1.27-4.19,3.04-5.6,5.32-1.4,2.28-2.1,5.01-2.1,8.17,0,2.94.63,5.55,1.9,7.83,1.27,2.28,3.02,4.06,5.26,5.32,2.24,1.27,4.87,1.9,7.9,1.9,2.71,0,5.18-.69,7.39-2.07,2.21-1.38,3.97-3.23,5.26-5.56,1.29-2.33,1.93-4.94,1.93-7.83s-.59-5.59-1.76-7.83c-1.18-2.24-2.85-3.99-5.02-5.26ZM484.25,317.75c-.57,1.58-1.36,2.8-2.37,3.66-1.02.86-2.23,1.29-3.63,1.29-1.63,0-3.1-.55-4.41-1.66-1.31-1.11-2.33-2.63-3.05-4.58-.72-1.94-1.08-4.16-1.08-6.65,0-3.21.67-5.79,2-7.73,1.33-1.94,3.09-2.92,5.26-2.92,2.49,0,4.47,1.21,5.94,3.63,1.47,2.42,2.2,5.57,2.2,9.46,0,2.08-.28,3.91-.85,5.49ZM525.13,317.04c-.11-1.56-.17-3.49-.17-5.8l.07-15.67c0-2.76.04-5.41.1-7.97.07-2.55.15-5.23.24-8.04l-1.42-1.02-10.85,2.92.13,2.51,5.22.88c.04.41.08,1.13.1,2.17.02,1.04.04,2.22.07,3.53.02,1.31.05,2.58.07,3.8.02,1.22.03,2.24.03,3.05-.81-.54-1.81-.94-2.98-1.19-1.18-.25-2.33-.37-3.46-.37-1.94,0-3.84.37-5.7,1.12-1.85.75-3.53,1.83-5.02,3.26-1.49,1.42-2.67,3.13-3.53,5.12-.86,1.99-1.29,4.23-1.29,6.72,0,2.8.6,5.27,1.8,7.39,1.2,2.13,2.8,3.79,4.81,4.98,2.01,1.2,4.28,1.8,6.82,1.8,1.54,0,3.02-.38,4.44-1.15,1.42-.77,2.77-2.1,4.04-4l.2.07-.07,4.41,1.29.88,9.7-2.44v-2.44l-4.34-1.08c-.09-.72-.19-1.87-.3-3.43ZM518.73,317.55c-1,1.31-2.03,2.24-3.12,2.78-1.08.54-2.17.81-3.26.81-2.4,0-4.42-.97-6.07-2.92-1.65-1.94-2.48-4.66-2.48-8.14,0-3.3.77-5.95,2.31-7.94,1.54-1.99,3.62-2.98,6.24-2.98,1.13,0,2.28.28,3.46.85,1.18.57,2.15,1.5,2.92,2.81v14.72ZM543.4,321.96l4.54,1.02-.13,2.71h-15.8l-.2-2.71,4.54-1.02c.04-.18.09-.53.14-1.05.04-.52.09-1.27.13-2.24.04-.97.07-2.23.07-3.76v-4.81c0-1.63-.05-3.13-.13-4.51-.09-1.38-.23-2.54-.41-3.49l-4.54-.95v-2.51l10.58-2.71,1.29,1.08c-.14,1.4-.24,2.79-.3,4.17-.07,1.38-.1,2.97-.1,4.78v8.55c0,1.9.03,3.53.1,4.88.07,1.36.15,2.22.24,2.58ZM571.83,312.63c1.2,1.33,1.8,2.97,1.8,4.92,0,2.58-1.12,4.67-3.36,6.27-2.24,1.61-5.1,2.41-8.58,2.41-1.72,0-3.45-.19-5.19-.58-1.74-.38-3.22-.92-4.44-1.59l-.34-7.46h3.66l1.42,4.88c1.58,1.04,3.37,1.56,5.36,1.56,1.49,0,2.68-.34,3.56-1.02.88-.68,1.32-1.6,1.32-2.78s-.42-2.11-1.26-2.95c-.84-.84-2.5-1.75-4.98-2.75-3.26-1.31-5.54-2.65-6.85-4-1.31-1.36-1.97-3.07-1.97-5.15,0-1.67.52-3.15,1.56-4.44,1.04-1.29,2.46-2.31,4.27-3.05s3.91-1.12,6.31-1.12c1.31,0,2.64.13,4,.37,1.36.25,2.49.58,3.39.98l.75,7.26h-3.53l-1.56-4.68c-.45-.27-1-.49-1.63-.64-.63-.16-1.29-.24-1.97-.24-1.54,0-2.77.36-3.7,1.08-.93.72-1.39,1.63-1.39,2.71,0,1.27.52,2.3,1.56,3.09,1.04.79,2.87,1.77,5.49,2.95,2.99,1.31,5.08,2.63,6.27,3.97ZM597.89,319.25l1.36,1.76c-.81,1.63-2.01,2.91-3.6,3.83-1.58.93-3.28,1.39-5.09,1.39-2.85,0-5.2-.85-7.05-2.54-1.86-1.7-2.78-4.28-2.78-7.77l.2-15.87h-4.75v-1.63l9.56-8.34h1.63l-.1,6.31h10v3.66h-10.04l-.06,14.92c0,2.17.49,3.78,1.46,4.82.97,1.04,2.36,1.56,4.17,1.56.95,0,1.87-.19,2.75-.58.88-.38,1.66-.89,2.34-1.53ZM646.49,314.09l3.6.41-1.97,8.68c-1.45.81-3.29,1.54-5.53,2.17-2.24.63-4.58.95-7.02.95-4.07,0-7.73-.76-10.99-2.27-3.26-1.51-5.84-3.77-7.76-6.78-1.92-3.01-2.88-6.7-2.88-11.09,0-2.94.52-5.69,1.56-8.24,1.04-2.55,2.55-4.77,4.54-6.65,1.99-1.88,4.39-3.35,7.19-4.41,2.8-1.06,5.94-1.59,9.43-1.59,1.94,0,3.96.19,6.04.58,2.08.39,3.89.92,5.43,1.59l.47,9.63-3.39.27-2.1-6.65c-.86-.54-1.93-.95-3.22-1.22-1.29-.27-2.57-.41-3.83-.41-3.17,0-5.77.69-7.8,2.07s-3.55,3.27-4.54,5.66c-.99,2.4-1.49,5.09-1.49,8.07,0,3.71.64,6.87,1.93,9.5,1.29,2.62,3.02,4.61,5.19,5.97,2.17,1.36,4.59,2.03,7.26,2.03,1.31,0,2.58-.17,3.8-.51,1.22-.34,2.33-.82,3.32-1.46l2.78-6.31ZM676.31,297.68c-2.17-1.26-4.68-1.9-7.53-1.9s-5.3.63-7.63,1.9c-2.33,1.27-4.19,3.04-5.6,5.32-1.4,2.28-2.1,5.01-2.1,8.17,0,2.94.63,5.55,1.9,7.83s3.02,4.06,5.26,5.32c2.24,1.27,4.87,1.9,7.9,1.9,2.71,0,5.18-.69,7.39-2.07,2.21-1.38,3.97-3.23,5.26-5.56,1.29-2.33,1.93-4.94,1.93-7.83s-.59-5.59-1.76-7.83c-1.18-2.24-2.85-3.99-5.02-5.26ZM675.19,317.75c-.57,1.58-1.36,2.8-2.37,3.66-1.02.86-2.23,1.29-3.63,1.29-1.63,0-3.1-.55-4.41-1.66-1.31-1.11-2.33-2.63-3.05-4.58-.72-1.94-1.08-4.16-1.08-6.65,0-3.21.67-5.79,2-7.73,1.33-1.94,3.09-2.92,5.26-2.92,2.49,0,4.47,1.21,5.94,3.63,1.47,2.42,2.2,5.57,2.2,9.46,0,2.08-.28,3.91-.85,5.49ZM717.67,321.96l4.2,1.08-.2,2.65h-14.72l-.14-2.65,3.93-1.08c.05-.36.09-.85.14-1.46.04-.61.08-1.35.1-2.2.02-.86.03-1.85.03-2.98v-6.78c0-1.9-.32-3.43-.95-4.58-.63-1.15-1.43-1.99-2.41-2.51-.97-.52-2-.78-3.09-.78-1.4,0-2.7.33-3.9.98-1.2.66-2.23,1.57-3.09,2.75v10.11c0,1.94.03,3.57.1,4.88.07,1.31.17,2.17.3,2.58l4.2,1.08-.2,2.65h-15.06l-.2-2.65,4.2-1.08c.04-.23.09-.62.13-1.19.05-.56.09-1.32.14-2.27.04-.95.07-2.15.07-3.6l.07-5.22c0-1.45-.06-2.84-.17-4.17-.11-1.33-.26-2.48-.44-3.43l-4.34-.95v-2.51l10.04-2.71,1.36,1.15-.34,3.66.2.07c1.49-1.72,3.04-2.98,4.65-3.8,1.6-.81,3.31-1.22,5.12-1.22s3.39.44,4.88,1.32c1.49.88,2.7,2.2,3.63,3.97.93,1.76,1.39,3.96,1.39,6.58v7.32c0,1.58.02,3.04.07,4.37.05,1.34.14,2.2.27,2.61ZM745.29,297.2c-1.88-.95-4.01-1.42-6.41-1.42s-4.57.5-6.51,1.49c-1.94,1-3.48,2.34-4.61,4.04-1.13,1.7-1.7,3.63-1.7,5.8,0,1.99.54,3.76,1.63,5.32.98,1.4,2.31,2.52,3.96,3.37-1.21.64-2.25,1.34-3.08,2.12-1.27,1.2-1.9,2.43-1.9,3.7,0,1.36.6,2.47,1.8,3.32.86.62,1.91,1.01,3.12,1.18-2.31,1.06-4.09,2.17-5.28,3.33-1.34,1.29-2,2.7-2,4.24,0,2.26,1.26,4.07,3.76,5.43,2.51,1.36,5.93,2.03,10.28,2.03,3.03,0,5.74-.49,8.14-1.46,2.39-.97,4.29-2.31,5.7-4,1.4-1.7,2.1-3.58,2.1-5.66,0-2.35-.83-4.19-2.48-5.53-1.65-1.33-4.08-2.16-7.29-2.48l-9.22-.95c-.9-.09-1.6-.33-2.1-.71-.5-.38-.75-.87-.75-1.46,0-.45.19-.9.58-1.36.23-.27.53-.54.88-.83,1.5.46,3.13.69,4.92.69,2.4,0,4.54-.46,6.44-1.39,1.9-.93,3.39-2.21,4.48-3.87,1.08-1.65,1.63-3.49,1.63-5.53s-.54-3.88-1.63-5.53c-.11-.17-.27-.29-.39-.45l6.02.48v-4.68l-9.68,1.01c-.14-.08-.25-.19-.39-.26ZM741.52,327.18c2.4.18,4.11.62,5.15,1.32,1.04.7,1.56,1.75,1.56,3.15,0,1.85-.88,3.38-2.65,4.58-1.76,1.2-4.05,1.8-6.85,1.8-2.49,0-4.44-.47-5.87-1.42-1.42-.95-2.14-2.26-2.14-3.93,0-1.27.38-2.45,1.15-3.56.66-.95,1.57-1.76,2.66-2.49l6.97.56ZM743.29,312.33c-1,1.31-2.35,1.97-4.07,1.97-1.85,0-3.35-.72-4.48-2.17-1.13-1.45-1.7-3.32-1.7-5.63s.53-4.16,1.59-5.56c1.06-1.4,2.45-2.1,4.17-2.1,1.81,0,3.26.75,4.34,2.24,1.08,1.49,1.63,3.48,1.63,5.97,0,2.22-.5,3.98-1.49,5.29ZM779.08,296.83c.77.57,1.15,1.43,1.15,2.61s-.41,2.08-1.22,2.71c-.81.63-1.83.95-3.05.95-.9,0-1.74-.18-2.51-.54-.47-.22-.95-.54-1.42-.9-.6.49-1.2,1.06-1.77,1.78-.72.9-1.38,2.01-1.97,3.32l.07,5.97c.05,1.31.09,2.59.14,3.83.04,1.24.09,2.34.13,3.29.05.95.09,1.65.14,2.1l5.9.95-.2,2.78h-16.82l-.2-2.65,4.2-1.08c.04-.18.09-.57.14-1.15.04-.59.09-1.38.13-2.37.04-.99.07-2.17.07-3.53l.07-5.22c0-1.49-.06-2.89-.17-4.2s-.26-2.44-.44-3.39l-4.34-.95v-2.51l9.97-2.71,1.22,1.02-.27,5.56.2.07c1.31-2.58,2.66-4.32,4.03-5.22,1.38-.9,2.72-1.36,4.04-1.36,1.08,0,2.01.28,2.78.85ZM802.5,320.16c-1.24.61-2.66.91-4.24.91-2.89,0-5.23-1.02-7.02-3.05-1.65-1.88-2.51-4.44-2.63-7.6h19.21v-1.36c0-4.07-1.01-7.29-3.02-9.66-2.01-2.37-4.87-3.58-8.58-3.63-2.53-.04-4.88.59-7.05,1.9-2.17,1.31-3.93,3.15-5.29,5.53-1.36,2.37-2.03,5.14-2.03,8.31,0,2.94.62,5.52,1.87,7.73,1.24,2.22,2.95,3.93,5.12,5.15,2.17,1.22,4.61,1.83,7.32,1.83,2.53,0,4.83-.61,6.88-1.83,2.06-1.22,3.72-3.07,4.98-5.56l-1.83-1.7c-1.22,1.4-2.45,2.41-3.7,3.02ZM789.54,303.24c.66-1.45,1.54-2.53,2.65-3.26,1.11-.72,2.27-1.09,3.49-1.09,1.9,0,3.4.69,4.51,2.07,1.11,1.38,1.66,3.29,1.66,5.73v.54h-13.18c.12-1.52.37-2.9.87-4ZM832.32,297.2c-1.88-.95-4.01-1.42-6.41-1.42s-4.57.5-6.51,1.49c-1.94,1-3.48,2.34-4.61,4.04-1.13,1.7-1.7,3.63-1.7,5.8,0,1.99.54,3.76,1.63,5.32.98,1.4,2.31,2.52,3.96,3.37-1.21.64-2.25,1.34-3.08,2.12-1.27,1.2-1.9,2.43-1.9,3.7,0,1.36.6,2.47,1.8,3.32.86.62,1.91,1.01,3.12,1.18-2.31,1.06-4.09,2.17-5.28,3.33-1.34,1.29-2,2.7-2,4.24,0,2.26,1.26,4.07,3.76,5.43,2.51,1.36,5.93,2.03,10.28,2.03,3.03,0,5.74-.49,8.14-1.46,2.39-.97,4.29-2.31,5.7-4,1.4-1.7,2.1-3.58,2.1-5.66,0-2.35-.83-4.19-2.48-5.53-1.65-1.33-4.08-2.16-7.29-2.48l-9.22-.95c-.9-.09-1.6-.33-2.1-.71-.5-.38-.75-.87-.75-1.46,0-.45.19-.9.58-1.36.23-.27.53-.54.88-.83,1.5.46,3.13.69,4.92.69,2.4,0,4.54-.46,6.44-1.39,1.9-.93,3.39-2.21,4.48-3.87,1.08-1.65,1.63-3.49,1.63-5.53s-.54-3.88-1.63-5.53c-.11-.17-.27-.29-.39-.45l6.02.48v-4.68l-9.68,1.01c-.14-.08-.25-.19-.39-.26ZM828.56,327.18c2.4.18,4.11.62,5.15,1.32,1.04.7,1.56,1.75,1.56,3.15,0,1.85-.88,3.38-2.65,4.58-1.76,1.2-4.05,1.8-6.85,1.8-2.49,0-4.44-.47-5.87-1.42-1.42-.95-2.14-2.26-2.14-3.93,0-1.27.38-2.45,1.15-3.56.66-.95,1.57-1.76,2.66-2.49l6.97.56ZM830.32,312.33c-1,1.31-2.35,1.97-4.07,1.97-1.85,0-3.35-.72-4.48-2.17-1.13-1.45-1.7-3.32-1.7-5.63s.53-4.16,1.59-5.56c1.06-1.4,2.45-2.1,4.17-2.1,1.81,0,3.26.75,4.34,2.24,1.08,1.49,1.63,3.48,1.63,5.97,0,2.22-.5,3.98-1.49,5.29ZM869.2,318.94c-.07-.79-.1-1.66-.1-2.61l.14-10.78c-.05-2.94-1.12-5.3-3.22-7.09-2.1-1.79-4.94-2.68-8.51-2.68-1.18.18-2.42.53-3.73,1.05-1.31.52-2.54,1.14-3.7,1.86-1.15.72-2.1,1.49-2.85,2.31-.75.81-1.12,1.6-1.12,2.37,0,1.22.62,2.09,1.86,2.61,1.24.52,2.77.58,4.58.17l.2-3.26c.09-1.26.32-2.11.68-2.54.36-.43,1.06-.64,2.1-.64,1.31,0,2.51.27,3.6.81,1.08.54,1.96,1.25,2.61,2.14.66.88.98,1.87.98,2.95v3.12l-10.44,3.39c-2.22.68-3.82,1.54-4.82,2.58-1,1.04-1.49,2.33-1.49,3.87,0,1.18.38,2.35,1.15,3.53.77,1.18,1.88,2.16,3.32,2.95,1.45.79,3.12,1.19,5.02,1.19,1.45,0,2.87-.44,4.27-1.32,1.13-.71,2.27-1.75,3.43-2.97l.57,1.85c.54,1.63,1.56,2.44,3.05,2.44.45,0,.97-.08,1.56-.24.59-.16,1.22-.37,1.9-.64l3.66-1.42v-2.37l-4.41-.81c-.14-.41-.24-1.01-.3-1.8ZM862.72,319.11c-.72.81-1.49,1.42-2.31,1.83-.81.41-1.67.61-2.58.61-1.31,0-2.44-.44-3.39-1.32-.95-.88-1.42-1.89-1.42-3.02,0-.9.24-1.64.71-2.2s1.25-.98,2.34-1.26l6.65-1.63v6.99ZM896.96,319.25l1.36,1.76c-.81,1.63-2.01,2.91-3.6,3.83-1.58.93-3.28,1.39-5.09,1.39-2.85,0-5.2-.85-7.05-2.54-1.86-1.7-2.78-4.28-2.78-7.77l.2-15.87h-4.75v-1.63l9.56-8.34h1.63l-.1,6.31h10v3.66h-10.04l-.06,14.92c0,2.17.49,3.78,1.46,4.82.97,1.04,2.36,1.56,4.17,1.56.95,0,1.87-.19,2.75-.58.88-.38,1.66-.89,2.34-1.53ZM910.17,321.96l4.54,1.02-.13,2.71h-15.8l-.2-2.71,4.54-1.02c.04-.18.09-.53.14-1.05.04-.52.09-1.27.13-2.24.04-.97.07-2.23.07-3.76v-4.81c0-1.63-.05-3.13-.13-4.51-.09-1.38-.23-2.54-.41-3.49l-4.54-.95v-2.51l10.58-2.71,1.29,1.08c-.14,1.4-.24,2.79-.3,4.17-.07,1.38-.1,2.97-.1,4.78v8.55c0,1.9.03,3.53.1,4.88.07,1.36.15,2.22.24,2.58ZM940.74,297.68c-2.17-1.26-4.68-1.9-7.53-1.9s-5.3.63-7.63,1.9c-2.33,1.27-4.19,3.04-5.6,5.32-1.4,2.28-2.1,5.01-2.1,8.17,0,2.94.63,5.55,1.9,7.83,1.27,2.28,3.02,4.06,5.26,5.32,2.24,1.27,4.87,1.9,7.9,1.9,2.71,0,5.18-.69,7.39-2.07,2.21-1.38,3.97-3.23,5.26-5.56,1.29-2.33,1.93-4.94,1.93-7.83s-.59-5.59-1.76-7.83c-1.18-2.24-2.85-3.99-5.02-5.26ZM939.62,317.75c-.57,1.58-1.36,2.8-2.37,3.66-1.02.86-2.23,1.29-3.63,1.29-1.63,0-3.1-.55-4.41-1.66-1.31-1.11-2.33-2.63-3.05-4.58-.72-1.94-1.08-4.16-1.08-6.65,0-3.21.67-5.79,2-7.73,1.33-1.94,3.09-2.92,5.26-2.92,2.49,0,4.47,1.21,5.94,3.63,1.47,2.42,2.2,5.57,2.2,9.46,0,2.08-.28,3.91-.85,5.49ZM986.3,323.04l-.2,2.65h-14.72l-.14-2.65,3.93-1.08c.05-.36.09-.85.14-1.46.04-.61.08-1.35.1-2.2.02-.86.03-1.85.03-2.98v-6.78c0-1.9-.32-3.43-.95-4.58-.63-1.15-1.43-1.99-2.41-2.51-.97-.52-2-.78-3.09-.78-1.4,0-2.7.33-3.9.98-1.2.66-2.23,1.57-3.09,2.75v10.11c0,1.94.03,3.57.1,4.88.07,1.31.17,2.17.3,2.58l4.2,1.08-.2,2.65h-15.06l-.2-2.65,4.2-1.08c.04-.23.09-.62.13-1.19.05-.56.09-1.32.14-2.27.04-.95.07-2.15.07-3.6l.07-5.22c0-1.45-.06-2.84-.17-4.17-.11-1.33-.26-2.48-.44-3.43l-4.34-.95v-2.51l10.04-2.71,1.36,1.15-.34,3.66.2.07c1.49-1.72,3.04-2.98,4.65-3.8,1.6-.81,3.31-1.22,5.12-1.22s3.39.44,4.88,1.32c1.49.88,2.7,2.2,3.63,3.97.93,1.76,1.39,3.96,1.39,6.58v7.32c0,1.58.02,3.04.07,4.37.05,1.34.14,2.2.27,2.61l4.2,1.08Z"/><path class="d" d="M350.2,229c-4.03,5.01-8.83,8.9-14.26,11.56-5.43,2.66-11.27,4.01-17.35,4.01-5.54,0-10.75-1.04-15.46-3.11-4.72-2.06-8.9-5-12.43-8.75-3.53-3.75-6.32-8.19-8.27-13.19-1.96-5.01-2.95-10.53-2.95-16.42s.99-11.41,2.95-16.42c1.96-5.01,4.74-9.44,8.27-13.19,3.53-3.74,7.71-6.69,12.43-8.75,4.72-2.06,9.93-3.11,15.46-3.11,6.09,0,11.93,1.32,17.36,3.93,5.43,2.61,10.22,6.52,14.25,11.63l.68.87,14.86-14.49-.56-.7c-3.64-4.54-7.98-8.43-12.91-11.55-4.92-3.11-10.29-5.55-15.94-7.24-5.66-1.7-11.63-2.56-17.74-2.56-8.59,0-16.74,1.58-24.21,4.69-7.47,3.12-14.1,7.54-19.7,13.14-5.61,5.61-10.02,12.21-13.14,19.62-3.11,7.41-4.69,15.53-4.69,24.13s1.58,16.72,4.69,24.13c3.11,7.41,7.53,14.01,13.14,19.62,5.61,5.61,12.24,10.03,19.7,13.14,7.47,3.11,15.62,4.69,24.21,4.69,6.11,0,12.08-.86,17.74-2.56,5.66-1.7,11.03-4.17,15.94-7.33,4.92-3.17,9.26-7.02,12.9-11.45l.58-.7-14.86-14.49-.68.85Z"/><polygon class="d" points="495.69 96.68 450.46 33.61 433.97 33.61 433.97 125.24 450.43 125.24 450.18 60.37 496.69 125.24 511.9 125.24 511.9 33.61 495.44 33.61 495.69 96.68"/><polygon class="d" points="463.7 192.72 407.28 192.72 407.28 143.38 385.16 143.38 385.16 262.84 407.28 262.84 407.28 212.66 463.7 212.66 463.7 262.84 485.83 262.84 485.83 143.38 463.7 143.38 463.7 192.72"/><polygon class="d" points="704.58 110.19 655.27 110.19 655.27 86.44 689.34 86.44 689.34 71.64 655.27 71.64 655.27 48.66 704.07 48.66 704.07 33.61 637.92 33.61 637.92 125.24 704.58 125.24 704.58 110.19"/><polygon class="d" points="279.46 84.89 316.97 125.24 340.08 125.24 294.83 77.77 338.61 33.61 316.97 33.61 279.46 72.97 279.46 33.61 262.11 33.61 262.11 125.24 279.46 125.24 279.46 84.89"/><polygon class="d" points="921.59 125.24 940.44 60.07 959.29 125.24 976.84 125.24 996.87 33.61 979.71 33.61 967.03 96.04 948.74 33.61 932.65 33.61 914.36 96.17 901.68 33.61 884.01 33.61 904.04 125.24 921.59 125.24"/><polygon class="d" points="415.34 110.19 366.03 110.19 366.03 86.44 400.1 86.44 400.1 71.64 366.03 71.64 366.03 48.66 414.83 48.66 414.83 33.61 348.68 33.61 348.68 125.24 415.34 125.24 415.34 110.19"/><polygon class="d" points="960.17 192.72 903.75 192.72 903.75 143.38 881.63 143.38 881.63 262.84 903.75 262.84 903.75 212.66 960.17 212.66 960.17 262.84 982.3 262.84 982.3 143.38 960.17 143.38 960.17 192.72"/><path class="d" d="M773.4,122.98c5.52-2.45,9.9-5.92,13.02-10.32,3.14-4.42,4.73-9.53,4.73-15.17,0-7.08-2.28-12.8-6.78-16.99-4.43-4.13-11.35-7.05-20.55-8.71l-16-2.69c-4.68-.82-8.08-2.06-10.11-3.7-1.95-1.56-2.89-3.76-2.89-6.72,0-2.19.67-4.13,2.04-5.93,1.38-1.81,3.35-3.26,5.86-4.29,2.56-1.05,5.6-1.59,9.03-1.59,4.89,0,9.73.86,14.39,2.56,4.66,1.71,9.27,4.27,13.7,7.61l.83.63,8.94-13.18-.77-.57c-5.18-3.8-10.92-6.73-17.06-8.72-6.13-1.99-12.7-2.99-19.51-2.99s-12.88,1.17-17.9,3.48c-5.05,2.33-9.05,5.63-11.87,9.82-2.83,4.2-4.27,9.15-4.27,14.71,0,6.3,2.01,11.56,5.98,15.61,3.93,4.02,9.95,6.77,17.9,8.16l16.52,2.82c5.78.99,9.88,2.41,12.17,4.22,2.2,1.74,3.27,4.23,3.27,7.61,0,2.58-.77,4.87-2.29,6.82-1.54,1.98-3.77,3.56-6.62,4.68-2.9,1.14-6.29,1.72-10.07,1.72-5.05,0-9.85-.96-14.27-2.86-4.46-1.92-9.62-5.23-15.33-9.85l-.81-.65-9.49,12.86.72.6c5.77,4.82,11.87,8.52,18.14,10.98,6.28,2.47,13.06,3.72,20.15,3.72s13.74-1.24,19.23-3.67Z"/><path class="d" d="M842.41,229c-4.03,5.01-8.83,8.9-14.26,11.56-5.43,2.66-11.27,4.01-17.35,4.01-5.54,0-10.75-1.04-15.46-3.11-4.72-2.06-8.9-5.01-12.43-8.75-3.53-3.75-6.31-8.18-8.27-13.19-1.96-5.01-2.95-10.53-2.95-16.42s.99-11.41,2.95-16.42c1.96-5.01,4.75-9.45,8.28-13.19,3.52-3.74,7.7-6.69,12.43-8.75,4.72-2.06,9.93-3.11,15.46-3.11,6.08,0,11.93,1.32,17.36,3.93,5.43,2.61,10.22,6.52,14.25,11.63l.68.87,14.86-14.49-.56-.7c-3.64-4.54-7.98-8.43-12.91-11.55-4.92-3.11-10.28-5.55-15.94-7.25-5.66-1.7-11.63-2.56-17.74-2.56-8.59,0-16.74,1.58-24.21,4.69-7.47,3.12-14.1,7.54-19.7,13.14-5.61,5.61-10.02,12.21-13.14,19.62-3.12,7.42-4.69,15.54-4.69,24.13s1.58,16.72,4.69,24.13c3.11,7.41,7.53,14.01,13.14,19.62,5.61,5.61,12.24,10.03,19.7,13.14,7.47,3.11,15.62,4.69,24.21,4.69,6.11,0,12.08-.86,17.74-2.56,5.66-1.7,11.03-4.17,15.94-7.33,4.92-3.17,9.26-7.02,12.9-11.45l.58-.7-14.86-14.49-.68.85Z"/><path class="d" d="M851.41,33.61h-19.16l-36,91.63h18.16l9.22-25.1h35.37l9.22,25.1h18.66l-35.47-91.63ZM828.85,86.12l12.54-34.05,12.66,34.05h-25.2Z"/><polygon class="d" points="596.77 96.68 551.54 33.61 535.06 33.61 535.06 125.24 551.52 125.24 551.27 60.37 597.78 125.24 612.98 125.24 612.98 33.61 596.52 33.61 596.77 96.68"/><path class="d" d="M724.88,200.43c4.31-5.8,6.49-12.69,6.49-20.48,0-7.2-1.72-13.61-5.1-19.07-3.38-5.45-8.17-9.77-14.24-12.86-6.05-3.08-13.09-4.64-20.93-4.64h-53.19v119.46h22.12v-46.99h26.24l22.66,46.99h24.55l-25.06-50.13c6.83-2.65,12.36-6.78,16.45-12.29ZM660.04,162.31h29.22c5.98,0,10.84,1.64,14.44,4.87,3.62,3.25,5.38,7.48,5.38,12.94s-1.76,9.52-5.38,12.77c-3.6,3.23-8.45,4.86-14.44,4.86h-29.22v-35.44Z"/><path class="d" d="M590.86,211.5c0,6.76-1.15,12.66-3.43,17.54-2.26,4.84-5.55,8.68-9.79,11.42-4.24,2.73-9.28,4.12-14.99,4.12s-10.72-1.39-14.9-4.12c-4.19-2.74-7.49-6.58-9.8-11.43-2.33-4.88-3.51-10.77-3.51-17.53v-68.12h-22.12v68.12c0,10.74,2.07,20.21,6.15,28.14,4.1,7.97,10.02,14.21,17.59,18.53,7.55,4.32,16.5,6.51,26.59,6.51s19.35-2.19,26.84-6.51c7.52-4.33,13.38-10.57,17.42-18.54,4.03-7.94,6.07-17.4,6.07-28.14v-68.12h-22.12v68.12Z"/><path class="d" d="M89.51,104.8h-24.95l1.16,1.58c1.94,2.64,3.84,4.89,5.64,6.68,2.26,2.25,5.06,4.75,8.04,7.42,1.59,1.42,3.27,2.93,4.99,4.5l.28.26h25.26V22.47l-20.44,11.55v70.78Z"/><polygon class="d" points="148.18 104.8 148.18 .86 127.74 12.41 127.74 125.24 220.32 125.24 231.88 104.8 148.18 104.8"/><polygon class="d" points="127.74 337.85 148.18 326.3 148.18 161.92 199.59 161.92 211.14 141.48 127.74 141.48 127.74 337.85"/><path class="b" d="M70.2,212.46c-10.65-15.17-24-28.63-31.88-45.62-8.42-16.9-10.85-36.76-7.64-55.19l.87.06c.56,35.82,15.72,57.89,39.59,82.37,14.06,16.01,28.53,34.9,39.47,55.09h.16v-57.8c0-38.66-30.44-58.12-45.01-72.66-14.57-14.54-27.6-46.86-28.97-51.9h-.63s-9.67,18.22-14.34,26.45C9.28,115.36,3.39,135.87,3.14,158.05c-.25,22.03,5.59,43.25,19.93,58.71,14.15,15.25,22.02,16.33,43.02,30.06,21,13.73,44.19,39.11,44.19,39.11h.49c-7.11-26.13-25.53-51.56-40.56-73.47Z"/></svg>