<?xml version="1.0" encoding="UTF-8"?><svg id="a" xmlns="http://www.w3.org/2000/svg" viewBox="0 0 1000 1000"><defs><style>.b{fill:#28333b;}</style></defs><path class="b" d="M397.78,317.89h-72.8l3.1,4.21c5.69,7.72,11.24,14.3,16.5,19.55,6.71,6.69,14.89,13.99,23.55,21.71,3.97,3.54,9.21,8.25,14.61,13.18l.76.69h73.63V76.95l-59.35,33.54v207.4Z"/><polygon class="b" points="509.75 999.73 569.1 966.19 569.1 484.68 719.75 484.68 753.29 425.33 509.75 425.33 509.75 999.73"/><polygon class="b" points="569.1 317.89 569.09 13.66 509.74 47.21 509.75 377.23 780.48 377.23 814.03 317.89 569.1 317.89"/><path class="b" d="M340.96,632.93c-31.18-44.44-70.28-83.84-93.38-133.62-24.66-49.49-31.77-107.65-22.39-161.63l2.54.17c1.63,104.91,46.05,169.55,115.94,241.23,41.16,46.88,83.57,102.22,115.61,161.34h.48v-169.28c0-113.22-89.15-170.22-131.83-212.8-42.67-42.58-80.84-137.24-84.84-151.99h-1.85s-28.32,53.37-41.99,77.47c-36.71,64.74-53.97,124.8-54.69,189.78-.72,64.52,16.36,126.67,58.36,171.95,41.43,44.66,64.49,47.81,126,88.03,61.51,40.22,129.42,114.53,129.42,114.53h1.42c-20.82-76.52-74.77-151.01-118.8-215.19Z"/></svg>