<?xml version="1.0" encoding="UTF-8"?><svg id="a" xmlns="http://www.w3.org/2000/svg" viewBox="0 0 1000 1000"><defs><style>.b{fill:#a1aab3;}</style></defs><path class="b" d="M510.75,426.33h240.83l-32.42,57.34h-151.07v481.93l-57.35,32.41V426.33ZM568.09,318.89V15.37s-57.35,32.42-57.35,32.42v328.44h269.15l32.42-57.34h-244.22ZM398.78,318.89h-71.82l1.93,2.62c5.65,7.68,11.17,14.21,16.4,19.43,6.64,6.63,14.84,13.94,23.51,21.67,4.65,4.15,9.58,8.58,14.62,13.19l.47.43h72.24V78.67l-57.35,32.41v207.81Z"/><path class="b" d="M340.96,632.93c-31.18-44.44-70.28-83.84-93.38-133.62-24.66-49.49-31.77-107.65-22.39-161.63l2.54.17c1.63,104.91,46.05,169.55,115.94,241.23,41.16,46.88,83.57,102.22,115.61,161.34h.48v-169.28c0-113.22-89.15-170.22-131.83-212.8-42.67-42.58-80.84-137.24-84.84-151.99h-1.85s-28.32,53.37-41.99,77.47c-36.71,64.74-53.97,124.8-54.69,189.78-.72,64.52,16.36,126.67,58.36,171.95,41.43,44.66,64.49,47.81,126,88.03,61.51,40.22,129.42,114.53,129.42,114.53h1.42c-20.82-76.52-74.77-151.01-118.8-215.19Z"/></svg>