<svg xmlns="http://www.w3.org/2000/svg" xmlns:xlink="http://www.w3.org/1999/xlink" width="2400" zoomAndPan="magnify" viewBox="0 0 1800 1799.999925" height="2400" preserveAspectRatio="xMidYMid meet" version="1.0"><defs><g/><clipPath id="9567c981b6"><path d="M 253.664062 570 L 533 570 L 533 875.496094 L 253.664062 875.496094 Z M 253.664062 570 " clip-rule="nonzero"/></clipPath><clipPath id="a5b87e3a11"><path d="M 466 530.527344 L 552.914062 530.527344 L 552.914062 626.308594 L 466 626.308594 Z M 466 530.527344 " clip-rule="nonzero"/></clipPath><clipPath id="6e877e6f03"><path d="M 1246.457031 875.925781 L 1526.097656 875.925781 L 1526.097656 1181.429688 L 1246.457031 1181.429688 Z M 1246.457031 875.925781 " clip-rule="nonzero"/></clipPath><clipPath id="39b089d622"><path d="M 1226.847656 1125.113281 L 1313.839844 1125.113281 L 1313.839844 1220.894531 L 1226.847656 1220.894531 Z M 1226.847656 1125.113281 " clip-rule="nonzero"/></clipPath></defs><g clip-path="url(#9567c981b6)"><path fill="#5cbf3b" d="M 256.371094 875.679688 C 256.296875 834.601562 255.65625 802.976562 255.015625 771.332031 C 254.378906 739.332031 253.738281 707.335938 253.664062 665.636719 C 253.617188 641.082031 255.039062 615.621094 272.464844 597.96875 C 293.222656 576.949219 323.316406 573.414062 344.136719 572.570312 C 391.207031 570.707031 439.148438 570.613281 485.523438 570.519531 C 501.285156 570.480469 517.035156 570.441406 532.769531 570.351562 L 532.882812 589.601562 C 517.128906 589.695312 501.351562 589.734375 485.558594 589.773438 C 439.375 589.863281 391.601562 589.957031 344.90625 591.820312 C 316.988281 592.929688 298.324219 599.1875 286.171875 611.507812 C 273.875 623.949219 272.878906 645.046875 272.917969 665.59375 C 272.992188 707.164062 273.632812 739.054688 274.269531 770.960938 C 274.910156 802.695312 275.546875 834.433594 275.625 875.644531 L 256.371094 875.679688 " fill-opacity="1" fill-rule="nonzero"/></g><g clip-path="url(#a5b87e3a11)"><path fill="#5cbf3b" d="M 477.539062 626.132812 L 468.160156 609.324219 C 468.546875 609.117188 500.761719 591.085938 521.589844 575.519531 C 504.191406 564.445312 485.578125 555.457031 466.121094 548.726562 L 472.417969 530.527344 C 497.601562 539.25 521.460938 551.492188 543.316406 566.910156 L 553.132812 573.828125 L 544.238281 581.894531 C 524.382812 599.925781 479.441406 625.078125 477.539062 626.132812 " fill-opacity="1" fill-rule="nonzero"/></g><g fill="#000000" fill-opacity="1"><g transform="translate(360.888688, 941.070329)"><g><path d="M 106.21875 -150.46875 L 152.5625 -241.390625 L 183.453125 -241.390625 L 113.453125 -103.953125 L 113.453125 0 L 79.65625 0 L 79.65625 -103.796875 L 9.5 -241.390625 L 42.328125 -244.609375 L 88.671875 -153.53125 L 101.390625 -113.453125 Z M 106.21875 -150.46875 "/></g></g></g><g fill="#000000" fill-opacity="1"><g transform="translate(537.909365, 941.070329)"><g><path d="M 128.75 2.734375 C 111.789062 2.734375 96.601562 -0.375 83.1875 -6.59375 C 69.78125 -12.820312 58.382812 -21.429688 49 -32.421875 C 39.613281 -43.421875 32.425781 -56.457031 27.4375 -71.53125 C 22.445312 -86.601562 19.953125 -102.992188 19.953125 -120.703125 C 19.953125 -138.398438 22.363281 -154.785156 27.1875 -169.859375 C 32.019531 -184.929688 39.078125 -197.96875 48.359375 -208.96875 C 57.640625 -219.96875 69.035156 -228.578125 82.546875 -234.796875 C 96.066406 -241.015625 111.46875 -244.125 128.75 -244.125 C 145.59375 -244.125 160.742188 -241.015625 174.203125 -234.796875 C 187.671875 -228.578125 199.097656 -219.96875 208.484375 -208.96875 C 217.867188 -197.96875 225.054688 -184.929688 230.046875 -169.859375 C 235.035156 -154.785156 237.53125 -138.398438 237.53125 -120.703125 C 237.53125 -102.992188 235.113281 -86.601562 230.28125 -71.53125 C 225.457031 -56.457031 218.40625 -43.421875 209.125 -32.421875 C 199.84375 -21.429688 188.441406 -12.820312 174.921875 -6.59375 C 161.410156 -0.375 146.019531 2.734375 128.75 2.734375 Z M 204.0625 -115.703125 C 204.0625 -124.285156 203.46875 -132.734375 202.28125 -141.046875 C 201.101562 -149.367188 199.226562 -157.253906 196.65625 -164.703125 C 194.082031 -172.160156 190.753906 -179.082031 186.671875 -185.46875 C 182.597656 -191.851562 177.742188 -197.351562 172.109375 -201.96875 C 166.484375 -206.582031 159.992188 -210.203125 152.640625 -212.828125 C 145.296875 -215.453125 137.007812 -216.765625 127.78125 -216.765625 C 114.582031 -216.765625 103.289062 -214.21875 93.90625 -209.125 C 84.519531 -204.03125 76.820312 -197.242188 70.8125 -188.765625 C 64.800781 -180.296875 60.398438 -170.640625 57.609375 -159.796875 C 54.816406 -148.960938 53.421875 -137.804688 53.421875 -126.328125 C 53.421875 -117.640625 54.035156 -109.109375 55.265625 -100.734375 C 56.503906 -92.367188 58.410156 -84.40625 60.984375 -76.84375 C 63.566406 -69.28125 66.867188 -62.304688 70.890625 -55.921875 C 74.910156 -49.535156 79.738281 -44.035156 85.375 -39.421875 C 91.007812 -34.804688 97.5 -31.1875 104.84375 -28.5625 C 112.195312 -25.9375 120.484375 -24.625 129.703125 -24.625 C 138.398438 -24.625 146.285156 -25.828125 153.359375 -28.234375 C 160.441406 -30.648438 166.742188 -33.953125 172.265625 -38.140625 C 177.796875 -42.328125 182.546875 -47.316406 186.515625 -53.109375 C 190.484375 -58.898438 193.78125 -65.144531 196.40625 -71.84375 C 199.039062 -78.550781 200.972656 -85.632812 202.203125 -93.09375 C 203.441406 -100.550781 204.0625 -108.085938 204.0625 -115.703125 Z M 204.0625 -115.703125 "/></g></g></g><g fill="#000000" fill-opacity="1"><g transform="translate(795.393899, 941.070329)"><g><path d="M 196.328125 -241.390625 L 196.328125 -84.171875 C 196.328125 -69.578125 194.128906 -56.832031 189.734375 -45.9375 C 185.335938 -35.050781 179.300781 -26.015625 171.625 -18.828125 C 163.957031 -11.640625 154.863281 -6.25 144.34375 -2.65625 C 133.832031 0.9375 122.460938 2.734375 110.234375 2.734375 C 97.148438 2.734375 85.5625 0.457031 75.46875 -4.09375 C 65.382812 -8.65625 56.910156 -15.09375 50.046875 -23.40625 C 43.179688 -31.726562 37.953125 -41.734375 34.359375 -53.421875 C 30.765625 -65.117188 28.96875 -78.050781 28.96875 -92.21875 L 28.96875 -207.59375 L 24.140625 -241.390625 L 61.953125 -244.609375 L 61.953125 -89.15625 C 61.953125 -78.957031 63.289062 -69.863281 65.96875 -61.875 C 68.65625 -53.882812 72.28125 -47.125 76.84375 -41.59375 C 81.40625 -36.070312 86.6875 -31.863281 92.6875 -28.96875 C 98.695312 -26.070312 105.082031 -24.625 111.84375 -24.625 C 119.675781 -24.625 126.785156 -25.800781 133.171875 -28.15625 C 139.554688 -30.519531 144.972656 -34.0625 149.421875 -38.78125 C 153.878906 -43.5 157.3125 -49.375 159.71875 -56.40625 C 162.132812 -63.4375 163.34375 -71.671875 163.34375 -81.109375 L 163.34375 -241.390625 Z M 196.328125 -241.390625 "/></g></g></g><g fill="#000000" fill-opacity="1"><g transform="translate(1020.692845, 941.070329)"><g><path d="M 79.65625 0 L 79.65625 -215.640625 L 12.875 -215.640625 L 12.875 -241.390625 L 179.4375 -241.390625 L 179.4375 -215.640625 L 113.453125 -215.640625 L 113.453125 0 Z M 79.65625 0 "/></g></g></g><g fill="#000000" fill-opacity="1"><g transform="translate(1213.806249, 941.070329)"><g><path d="M 163.34375 0 L 163.34375 -116.671875 L 61.953125 -116.671875 L 61.953125 0 L 28.96875 0 L 28.96875 -207.59375 L 24.296875 -241.390625 L 61.953125 -244.609375 L 61.953125 -142.421875 L 163.34375 -142.421875 L 163.34375 -241.71875 L 196.328125 -244.609375 L 196.328125 0 Z M 163.34375 0 "/></g></g></g><g fill="#000000" fill-opacity="1"><g transform="translate(387.000005, 1068.506407)"><g><path d="M 55.328125 -79.199219 C 55.164062 -79.246094 54.875 -79.277344 54.453125 -79.292969 C 53.933594 -79.308594 53.460938 -79.320312 53.039062 -79.320312 C 50.320312 -79.320312 47.679688 -78.894531 45.109375 -78.046875 C 42.523438 -77.191406 40.089844 -75.980469 37.804688 -74.421875 C 35.507812 -72.851562 33.390625 -70.972656 31.453125 -68.785156 C 29.503906 -66.585938 27.785156 -64.160156 26.296875 -61.515625 C 24.808594 -58.863281 23.578125 -56.027344 22.609375 -53.003906 C 21.640625 -49.984375 21.003906 -46.867188 20.691406 -43.65625 L 19.199219 -43.800781 L 17.976562 -44.667969 L 23.125 -51.925781 L 23.371094 -52.082031 C 24.4375 -52.765625 25.679688 -53.414062 27.09375 -54.027344 C 28.488281 -54.628906 29.957031 -55.160156 31.492188 -55.617188 C 33.03125 -56.074219 34.589844 -56.4375 36.167969 -56.707031 C 37.769531 -56.984375 39.296875 -57.121094 40.738281 -57.121094 C 44.367188 -57.121094 47.859375 -56.621094 51.21875 -55.617188 C 54.625 -54.601562 57.65625 -53.03125 60.308594 -50.910156 C 62.984375 -48.769531 65.125 -46.023438 66.722656 -42.675781 C 68.320312 -39.332031 69.121094 -35.367188 69.121094 -30.78125 C 69.121094 -26.277344 68.359375 -22.011719 66.832031 -17.980469 C 65.304688 -13.941406 63.15625 -10.402344 60.390625 -7.359375 C 57.613281 -4.308594 54.289062 -1.902344 50.421875 -0.136719 C 46.546875 1.636719 42.257812 2.519531 37.558594 2.519531 C 33.441406 2.519531 29.777344 1.851562 26.574219 0.515625 C 23.386719 -0.8125 20.609375 -2.578125 18.238281 -4.78125 C 15.882812 -6.96875 13.917969 -9.46875 12.339844 -12.289062 C 10.792969 -15.050781 9.535156 -17.886719 8.566406 -20.796875 C 7.597656 -23.699219 6.910156 -26.578125 6.496094 -29.425781 C 6.085938 -32.257812 5.878906 -34.847656 5.878906 -37.199219 C 5.878906 -42.066406 6.382812 -46.8125 7.382812 -51.4375 C 8.386719 -56.066406 9.84375 -60.421875 11.75 -64.503906 C 13.660156 -68.59375 15.996094 -72.355469 18.75 -75.789062 C 21.519531 -79.242188 24.675781 -82.199219 28.214844 -84.660156 C 31.753906 -87.125 35.644531 -89.050781 39.882812 -90.4375 C 44.136719 -91.824219 48.699219 -92.519531 53.578125 -92.519531 C 54.195312 -92.519531 54.867188 -92.511719 55.601562 -92.488281 C 56.40625 -92.46875 57.050781 -92.40625 57.535156 -92.3125 L 58.929688 -92.03125 L 56.976562 -78.726562 Z M 56.152344 -82.082031 L 55.738281 -80.640625 L 54.257812 -80.859375 L 55.757812 -91.058594 L 57.238281 -90.839844 L 56.945312 -89.367188 C 56.628906 -89.433594 56.152344 -89.472656 55.519531 -89.492188 C 54.8125 -89.511719 54.167969 -89.519531 53.578125 -89.519531 C 49.019531 -89.519531 44.765625 -88.875 40.816406 -87.585938 C 36.855469 -86.289062 33.226562 -84.496094 29.925781 -82.199219 C 26.625 -79.902344 23.679688 -77.140625 21.089844 -73.910156 C 18.484375 -70.664062 16.277344 -67.105469 14.46875 -63.234375 C 12.65625 -59.355469 11.273438 -55.210938 10.316406 -50.800781 C 9.359375 -46.386719 8.878906 -41.851562 8.878906 -37.199219 C 8.878906 -34.992188 9.074219 -32.542969 9.464844 -29.855469 C 9.851562 -27.183594 10.5 -24.480469 11.414062 -21.746094 C 12.324219 -19.015625 13.503906 -16.351562 14.957031 -13.753906 C 16.382812 -11.210938 18.15625 -8.953125 20.28125 -6.980469 C 22.390625 -5.019531 24.871094 -3.445312 27.726562 -2.253906 C 30.5625 -1.070312 33.839844 -0.480469 37.558594 -0.480469 C 41.824219 -0.480469 45.695312 -1.273438 49.175781 -2.863281 C 52.671875 -4.460938 55.667969 -6.632812 58.171875 -9.378906 C 60.683594 -12.140625 62.632812 -15.359375 64.027344 -19.039062 C 65.421875 -22.730469 66.121094 -26.644531 66.121094 -30.78125 C 66.121094 -34.914062 65.417969 -38.449219 64.015625 -41.382812 C 62.617188 -44.316406 60.753906 -46.710938 58.433594 -48.570312 C 56.085938 -50.445312 53.394531 -51.839844 50.363281 -52.742188 C 47.28125 -53.660156 44.074219 -54.121094 40.738281 -54.121094 C 39.464844 -54.121094 38.109375 -53.996094 36.671875 -53.75 C 35.210938 -53.5 33.769531 -53.164062 32.347656 -52.742188 C 30.925781 -52.320312 29.570312 -51.828125 28.285156 -51.273438 C 27.019531 -50.726562 25.921875 -50.152344 24.988281 -49.554688 L 24.179688 -50.820312 L 25.402344 -49.953125 L 17.167969 -38.339844 L 17.707031 -43.945312 C 18.039062 -47.371094 18.71875 -50.695312 19.75 -53.917969 C 20.78125 -57.132812 22.09375 -60.15625 23.683594 -62.984375 C 25.273438 -65.816406 27.117188 -68.414062 29.207031 -70.773438 C 31.308594 -73.148438 33.613281 -75.1875 36.113281 -76.898438 C 38.628906 -78.617188 41.316406 -79.949219 44.167969 -80.894531 C 47.042969 -81.84375 50 -82.320312 53.039062 -82.320312 C 53.5 -82.320312 54.007812 -82.308594 54.566406 -82.289062 C 55.226562 -82.265625 55.753906 -82.195312 56.152344 -82.082031 Z M 21.238281 -35.820312 C 21.238281 -34.710938 21.25 -33.703125 21.269531 -32.792969 C 21.289062 -31.917969 21.34375 -31.0625 21.441406 -30.230469 C 21.535156 -29.378906 21.664062 -28.523438 21.816406 -27.652344 C 21.96875 -26.789062 22.183594 -25.839844 22.453125 -24.796875 C 22.988281 -22.617188 23.707031 -20.652344 24.613281 -18.898438 C 25.5 -17.183594 26.570312 -15.710938 27.835938 -14.484375 C 29.074219 -13.28125 30.515625 -12.347656 32.15625 -11.679688 C 33.792969 -11.011719 35.65625 -10.679688 37.738281 -10.679688 C 40.648438 -10.679688 43.097656 -11.21875 45.097656 -12.300781 C 47.109375 -13.386719 48.75 -14.828125 50.015625 -16.617188 C 51.308594 -18.449219 52.265625 -20.535156 52.878906 -22.878906 C 53.507812 -25.277344 53.820312 -27.707031 53.820312 -30.179688 C 53.820312 -32.515625 53.484375 -34.554688 52.808594 -36.300781 C 52.152344 -38.003906 51.230469 -39.40625 50.039062 -40.507812 C 48.835938 -41.625 47.386719 -42.46875 45.691406 -43.039062 C 43.945312 -43.625 41.996094 -43.921875 39.839844 -43.921875 C 37.804688 -43.921875 35.828125 -43.675781 33.910156 -43.1875 C 31.972656 -42.691406 30.160156 -42.027344 28.476562 -41.195312 C 26.804688 -40.367188 25.324219 -39.414062 24.035156 -38.332031 C 22.765625 -37.265625 21.753906 -36.15625 20.992188 -34.996094 L 19.738281 -35.820312 Z M 18.238281 -35.820312 L 18.238281 -36.269531 L 18.484375 -36.644531 C 19.40625 -38.046875 20.613281 -39.375 22.105469 -40.628906 C 23.578125 -41.867188 25.257812 -42.953125 27.144531 -43.882812 C 29.019531 -44.8125 31.027344 -45.546875 33.167969 -46.09375 C 35.332031 -46.644531 37.554688 -46.921875 39.839844 -46.921875 C 42.324219 -46.921875 44.59375 -46.574219 46.648438 -45.882812 C 48.753906 -45.171875 50.5625 -44.117188 52.078125 -42.710938 C 53.609375 -41.292969 54.785156 -39.515625 55.609375 -37.378906 C 56.417969 -35.285156 56.820312 -32.886719 56.820312 -30.179688 C 56.820312 -27.453125 56.472656 -24.765625 55.78125 -22.121094 C 55.074219 -19.425781 53.96875 -17.011719 52.464844 -14.882812 C 50.929688 -12.714844 48.949219 -10.972656 46.523438 -9.660156 C 44.082031 -8.339844 41.152344 -7.679688 37.738281 -7.679688 C 35.265625 -7.679688 33.027344 -8.085938 31.023438 -8.902344 C 29.023438 -9.714844 27.265625 -10.859375 25.746094 -12.332031 C 24.246094 -13.789062 22.980469 -15.515625 21.945312 -17.523438 C 20.933594 -19.488281 20.132812 -21.660156 19.546875 -24.042969 C 19.257812 -25.160156 19.03125 -26.1875 18.863281 -27.128906 C 18.699219 -28.058594 18.5625 -28.980469 18.460938 -29.890625 C 18.355469 -30.816406 18.292969 -31.761719 18.269531 -32.726562 C 18.25 -33.660156 18.238281 -34.6875 18.238281 -35.820312 Z M 18.238281 -35.820312 "/></g></g></g><g fill="#000000" fill-opacity="1"><g transform="translate(464.99993, 1068.506407)"><g><path d="M 28.199219 0 L 28.199219 -80.398438 L 29.699219 -80.398438 L 29.699219 -78.898438 L 3.300781 -78.898438 L 3.300781 -91.5 L 68.398438 -91.5 L 68.398438 -78.898438 L 42.300781 -78.898438 L 42.300781 -80.398438 L 43.800781 -80.398438 L 43.800781 1.5 L 28.199219 1.5 Z M 31.199219 0 L 29.699219 0 L 29.699219 -1.5 L 42.300781 -1.5 L 42.300781 0 L 40.800781 0 L 40.800781 -81.898438 L 66.898438 -81.898438 L 66.898438 -80.398438 L 65.398438 -80.398438 L 65.398438 -90 L 66.898438 -90 L 66.898438 -88.5 L 4.800781 -88.5 L 4.800781 -90 L 6.300781 -90 L 6.300781 -80.398438 L 4.800781 -80.398438 L 4.800781 -81.898438 L 31.199219 -81.898438 Z M 31.199219 0 "/></g></g></g><g fill="#000000" fill-opacity="1"><g transform="translate(536.999855, 1068.506407)"><g><path d="M 59.398438 0 L 59.398438 -43.5 L 60.898438 -43.5 L 60.898438 -42 L 23.101562 -42 L 23.101562 -43.5 L 24.601562 -43.5 L 24.601562 1.5 L 9.300781 1.5 L 9.300781 -77.398438 L 10.800781 -77.398438 L 9.3125 -77.195312 L 7.359375 -91.359375 L 24.601562 -92.832031 L 24.601562 -53.101562 L 23.101562 -53.101562 L 23.101562 -54.601562 L 60.898438 -54.601562 L 60.898438 -53.101562 L 59.398438 -53.101562 L 59.398438 -91.492188 L 74.699219 -92.835938 L 74.699219 1.5 L 59.398438 1.5 Z M 62.398438 0 L 60.898438 0 L 60.898438 -1.5 L 73.199219 -1.5 L 73.199219 0 L 71.699219 0 L 71.699219 -91.199219 L 73.199219 -91.199219 L 73.332031 -89.707031 L 61.03125 -88.625 L 60.898438 -90.121094 L 62.398438 -90.121094 L 62.398438 -51.601562 L 21.601562 -51.601562 L 21.601562 -91.199219 L 23.101562 -91.199219 L 23.226562 -89.707031 L 9.1875 -88.503906 L 9.058594 -90 L 10.546875 -90.207031 L 12.300781 -77.503906 L 12.300781 0 L 10.800781 0 L 10.800781 -1.5 L 23.101562 -1.5 L 23.101562 0 L 21.601562 0 L 21.601562 -45 L 62.398438 -45 Z M 62.398438 0 "/></g></g></g><g fill="#000000" fill-opacity="1"><g transform="translate(620.999756, 1068.506407)"><g><path d="M 10.5 -37.5 L 43.5 -37.5 L 43.5 -25.199219 L 10.5 -25.199219 Z M 13.5 -34.5 L 13.5 -28.199219 L 40.5 -28.199219 L 40.5 -34.5 Z M 13.5 -34.5 "/></g></g></g><g fill="#000000" fill-opacity="1"><g transform="translate(674.999706, 1068.506407)"><g><path d="M 19.5 0 L 19.5 -11.101562 L 35.699219 -11.101562 L 35.699219 -9.601562 L 34.199219 -9.601562 L 34.199219 -67.75 L 37.726562 -81.550781 L 39.179688 -81.179688 L 40.390625 -80.292969 L 32.136719 -69.003906 L 18.175781 -56.625 L 9.714844 -66.105469 L 38.804688 -92.78125 L 49.800781 -91.3125 L 49.800781 -9.601562 L 48.300781 -9.601562 L 48.300781 -11.101562 L 64.5 -11.101562 L 64.5 1.5 L 19.5 1.5 Z M 22.5 0 L 21 0 L 21 -1.5 L 63 -1.5 L 63 0 L 61.5 0 L 61.5 -9.601562 L 63 -9.601562 L 63 -8.101562 L 46.800781 -8.101562 L 46.800781 -90 L 48.300781 -90 L 48.101562 -88.511719 L 39.101562 -89.714844 L 39.300781 -91.199219 L 40.3125 -90.09375 L 12.832031 -64.894531 L 11.820312 -66 L 12.9375 -67 L 19.417969 -59.738281 L 18.300781 -58.738281 L 17.304688 -59.863281 L 30.023438 -71.140625 L 31.019531 -70.019531 L 29.808594 -70.90625 L 37.96875 -82.066406 L 40.632812 -80.808594 L 37.152344 -67.1875 L 35.699219 -67.558594 L 37.199219 -67.558594 L 37.199219 -8.101562 L 21 -8.101562 L 21 -9.601562 L 22.5 -9.601562 Z M 22.5 0 "/></g></g></g><g fill="#000000" fill-opacity="1"><g transform="translate(752.999654, 1068.506407)"><g><path d="M 7.621094 0 L 7.621094 -10.515625 L 7.851562 -10.882812 C 9.792969 -13.957031 11.886719 -16.980469 14.132812 -19.953125 C 16.367188 -22.910156 18.621094 -25.769531 20.894531 -28.523438 C 23.164062 -31.28125 25.410156 -33.894531 27.621094 -36.371094 L 33.683594 -43.121094 C 35.730469 -45.371094 37.675781 -47.488281 39.519531 -49.472656 C 41.316406 -51.402344 42.898438 -53.324219 44.257812 -55.230469 C 45.59375 -57.097656 46.660156 -58.992188 47.453125 -60.90625 C 48.21875 -62.742188 48.601562 -64.738281 48.601562 -66.898438 C 48.601562 -68.617188 48.28125 -70.230469 47.640625 -71.746094 C 46.996094 -73.257812 46.101562 -74.574219 44.945312 -75.691406 C 43.785156 -76.820312 42.390625 -77.714844 40.769531 -78.382812 C 39.152344 -79.046875 37.363281 -79.378906 35.398438 -79.378906 C 33.140625 -79.378906 31.203125 -79.082031 29.589844 -78.484375 C 27.964844 -77.878906 26.542969 -77.089844 25.332031 -76.113281 C 24.09375 -75.113281 23.023438 -74 22.121094 -72.765625 C 21.164062 -71.457031 20.277344 -70.136719 19.457031 -68.8125 L 18.777344 -67.714844 L 7.78125 -72.394531 L 8.328125 -73.757812 C 9.414062 -76.476562 10.808594 -78.980469 12.507812 -81.265625 C 14.21875 -83.570312 16.238281 -85.558594 18.566406 -87.226562 C 20.894531 -88.902344 23.539062 -90.203125 26.492188 -91.132812 C 29.4375 -92.058594 32.707031 -92.519531 36.300781 -92.519531 C 40.558594 -92.519531 44.363281 -91.753906 47.722656 -90.226562 C 51.0625 -88.703125 53.890625 -86.699219 56.207031 -84.210938 C 58.519531 -81.730469 60.28125 -78.917969 61.488281 -75.777344 C 62.695312 -72.644531 63.300781 -69.464844 63.300781 -66.238281 C 63.300781 -62.964844 62.691406 -59.84375 61.476562 -56.882812 C 60.296875 -54.003906 58.828125 -51.273438 57.070312 -48.6875 C 55.332031 -46.132812 53.464844 -43.730469 51.460938 -41.480469 C 49.507812 -39.289062 47.714844 -37.238281 46.082031 -35.324219 C 43.996094 -32.878906 41.910156 -30.472656 39.824219 -28.109375 C 37.753906 -25.757812 35.769531 -23.457031 33.878906 -21.203125 C 31.988281 -18.957031 30.230469 -16.792969 28.601562 -14.707031 C 26.996094 -12.648438 25.605469 -10.679688 24.433594 -8.804688 L 23.160156 -9.601562 L 23.160156 -11.101562 L 64.859375 -11.101562 L 64.859375 1.5 L 7.621094 1.5 Z M 10.621094 0 L 9.121094 0 L 9.121094 -1.5 L 63.359375 -1.5 L 63.359375 0 L 61.859375 0 L 61.859375 -9.601562 L 63.359375 -9.601562 L 63.359375 -8.101562 L 20.453125 -8.101562 L 21.886719 -10.394531 C 23.117188 -12.359375 24.566406 -14.410156 26.238281 -16.554688 C 27.890625 -18.667969 29.671875 -20.863281 31.582031 -23.136719 C 33.488281 -25.402344 35.488281 -27.722656 37.574219 -30.09375 C 39.648438 -32.445312 41.722656 -34.839844 43.800781 -37.273438 C 45.445312 -39.203125 47.253906 -41.269531 49.21875 -43.476562 C 51.136719 -45.628906 52.925781 -47.925781 54.589844 -50.375 C 56.230469 -52.789062 57.601562 -55.335938 58.703125 -58.019531 C 59.765625 -60.617188 60.300781 -63.355469 60.300781 -66.238281 C 60.300781 -69.09375 59.761719 -71.914062 58.691406 -74.699219 C 57.621094 -77.480469 56.058594 -79.96875 54.011719 -82.167969 C 51.96875 -84.363281 49.457031 -86.136719 46.476562 -87.496094 C 43.515625 -88.84375 40.121094 -89.519531 36.300781 -89.519531 C 33.011719 -89.519531 30.042969 -89.101562 27.390625 -88.269531 C 24.742188 -87.4375 22.382812 -86.277344 20.316406 -84.792969 C 18.242188 -83.300781 16.441406 -81.53125 14.914062 -79.476562 C 13.371094 -77.398438 12.105469 -75.121094 11.113281 -72.644531 L 9.71875 -73.199219 L 10.308594 -74.582031 L 18.765625 -70.980469 L 18.179688 -69.601562 L 16.902344 -70.386719 C 17.765625 -71.78125 18.695312 -73.164062 19.699219 -74.535156 C 20.757812 -75.980469 22.007812 -77.285156 23.449219 -78.449219 C 24.914062 -79.628906 26.617188 -80.578125 28.546875 -81.296875 C 30.496094 -82.019531 32.78125 -82.378906 35.398438 -82.378906 C 37.757812 -82.378906 39.925781 -81.972656 41.910156 -81.15625 C 43.886719 -80.34375 45.597656 -79.242188 47.035156 -77.847656 C 48.480469 -76.445312 49.601562 -74.800781 50.402344 -72.914062 C 51.199219 -71.027344 51.601562 -69.023438 51.601562 -66.898438 C 51.601562 -64.339844 51.140625 -61.957031 50.226562 -59.753906 C 49.339844 -57.628906 48.167969 -55.539062 46.699219 -53.488281 C 45.261719 -51.476562 43.601562 -49.457031 41.71875 -47.429688 C 39.882812 -45.453125 37.949219 -43.347656 35.917969 -41.117188 L 29.859375 -34.371094 C 27.671875 -31.925781 25.453125 -29.339844 23.207031 -26.617188 C 20.960938 -23.890625 18.734375 -21.070312 16.527344 -18.144531 C 14.332031 -15.238281 12.285156 -12.285156 10.386719 -9.277344 L 9.121094 -10.078125 L 10.621094 -10.078125 Z M 10.621094 0 "/></g></g></g><g fill="#000000" fill-opacity="1"><g transform="translate(830.999556, 1068.506407)"><g><path d="M 28.199219 0 L 28.199219 -80.398438 L 29.699219 -80.398438 L 29.699219 -78.898438 L 3.300781 -78.898438 L 3.300781 -91.5 L 68.398438 -91.5 L 68.398438 -78.898438 L 42.300781 -78.898438 L 42.300781 -80.398438 L 43.800781 -80.398438 L 43.800781 1.5 L 28.199219 1.5 Z M 31.199219 0 L 29.699219 0 L 29.699219 -1.5 L 42.300781 -1.5 L 42.300781 0 L 40.800781 0 L 40.800781 -81.898438 L 66.898438 -81.898438 L 66.898438 -80.398438 L 65.398438 -80.398438 L 65.398438 -90 L 66.898438 -90 L 66.898438 -88.5 L 4.800781 -88.5 L 4.800781 -90 L 6.300781 -90 L 6.300781 -80.398438 L 4.800781 -80.398438 L 4.800781 -81.898438 L 31.199219 -81.898438 Z M 31.199219 0 "/></g></g></g><g fill="#000000" fill-opacity="1"><g transform="translate(902.999504, 1068.506407)"><g><path d="M 59.398438 0 L 59.398438 -43.5 L 60.898438 -43.5 L 60.898438 -42 L 23.101562 -42 L 23.101562 -43.5 L 24.601562 -43.5 L 24.601562 1.5 L 9.300781 1.5 L 9.300781 -77.398438 L 10.800781 -77.398438 L 9.3125 -77.195312 L 7.359375 -91.359375 L 24.601562 -92.832031 L 24.601562 -53.101562 L 23.101562 -53.101562 L 23.101562 -54.601562 L 60.898438 -54.601562 L 60.898438 -53.101562 L 59.398438 -53.101562 L 59.398438 -91.492188 L 74.699219 -92.835938 L 74.699219 1.5 L 59.398438 1.5 Z M 62.398438 0 L 60.898438 0 L 60.898438 -1.5 L 73.199219 -1.5 L 73.199219 0 L 71.699219 0 L 71.699219 -91.199219 L 73.199219 -91.199219 L 73.332031 -89.707031 L 61.03125 -88.625 L 60.898438 -90.121094 L 62.398438 -90.121094 L 62.398438 -51.601562 L 21.601562 -51.601562 L 21.601562 -91.199219 L 23.101562 -91.199219 L 23.226562 -89.707031 L 9.1875 -88.503906 L 9.058594 -90 L 10.546875 -90.207031 L 12.300781 -77.503906 L 12.300781 0 L 10.800781 0 L 10.800781 -1.5 L 23.101562 -1.5 L 23.101562 0 L 21.601562 0 L 21.601562 -45 L 62.398438 -45 Z M 62.398438 0 "/></g></g></g><g fill="#000000" fill-opacity="1"><g transform="translate(1028.999356, 1068.506407)"><g><path d="M 73.109375 -10.808594 C 71.410156 -8.945312 69.507812 -7.195312 67.398438 -5.5625 C 65.269531 -3.914062 62.9375 -2.5 60.394531 -1.3125 C 57.859375 -0.125 55.097656 0.808594 52.113281 1.492188 C 49.125 2.175781 45.914062 2.519531 42.480469 2.519531 C 36.464844 2.519531 31.046875 1.210938 26.222656 -1.410156 C 21.433594 -4.015625 17.363281 -7.542969 14.011719 -12 C 10.683594 -16.421875 8.144531 -21.582031 6.390625 -27.472656 C 4.652344 -33.332031 3.78125 -39.574219 3.78125 -46.199219 C 3.78125 -52.378906 4.570312 -58.246094 6.148438 -63.800781 C 7.738281 -69.40625 10.1875 -74.335938 13.484375 -78.589844 C 16.804688 -82.871094 20.988281 -86.261719 26.035156 -88.765625 C 31.082031 -91.269531 37.027344 -92.519531 43.859375 -92.519531 C 48.632812 -92.519531 53.152344 -91.761719 57.414062 -90.242188 C 61.714844 -88.710938 65.382812 -86.492188 68.417969 -83.582031 L 69.433594 -82.609375 L 62.265625 -74.085938 L 61.148438 -74.832031 C 59.339844 -76.035156 57.050781 -77.097656 54.277344 -78.015625 C 51.53125 -78.925781 48.378906 -79.378906 44.820312 -79.378906 C 40.191406 -79.378906 36.292969 -78.519531 33.113281 -76.800781 C 29.925781 -75.074219 27.320312 -72.742188 25.296875 -69.800781 C 23.242188 -66.816406 21.746094 -63.324219 20.808594 -59.328125 C 19.855469 -55.261719 19.378906 -50.945312 19.378906 -46.378906 C 19.378906 -43.695312 19.59375 -40.941406 20.023438 -38.113281 C 20.449219 -35.296875 21.101562 -32.546875 21.976562 -29.863281 C 22.84375 -27.207031 23.960938 -24.703125 25.328125 -22.355469 C 26.675781 -20.039062 28.265625 -18.007812 30.101562 -16.269531 C 31.914062 -14.550781 33.980469 -13.183594 36.300781 -12.175781 C 38.589844 -11.179688 41.167969 -10.679688 44.039062 -10.679688 C 45.726562 -10.679688 47.359375 -10.859375 48.929688 -11.214844 C 50.523438 -11.574219 52.003906 -12.039062 53.363281 -12.605469 C 54.71875 -13.167969 55.929688 -13.796875 56.992188 -14.488281 C 58.035156 -15.164062 58.871094 -15.839844 59.511719 -16.511719 L 60.601562 -15.480469 L 59.101562 -15.480469 L 59.101562 -38.699219 L 60.601562 -38.699219 L 60.503906 -37.203125 L 40.5 -38.492188 L 40.5 -49.800781 L 73.5 -49.800781 L 73.5 -11.238281 Z M 70.890625 -12.832031 L 72 -11.820312 L 70.5 -11.820312 L 70.5 -48.300781 L 72 -48.300781 L 72 -46.800781 L 42 -46.800781 L 42 -48.300781 L 43.5 -48.300781 L 43.5 -39.898438 L 42 -39.898438 L 42.097656 -41.398438 L 62.101562 -40.105469 L 62.101562 -14.882812 L 61.6875 -14.449219 C 60.886719 -13.601562 59.867188 -12.777344 58.625 -11.972656 C 57.410156 -11.183594 56.039062 -10.46875 54.515625 -9.835938 C 52.996094 -9.203125 51.355469 -8.6875 49.589844 -8.285156 C 47.800781 -7.882812 45.953125 -7.679688 44.039062 -7.679688 C 40.75 -7.679688 37.773438 -8.261719 35.101562 -9.425781 C 32.460938 -10.574219 30.105469 -12.128906 28.039062 -14.089844 C 25.992188 -16.03125 24.226562 -18.28125 22.734375 -20.84375 C 21.261719 -23.378906 20.058594 -26.074219 19.125 -28.933594 C 18.199219 -31.773438 17.507812 -34.683594 17.058594 -37.664062 C 16.605469 -40.640625 16.378906 -43.542969 16.378906 -46.378906 C 16.378906 -51.175781 16.882812 -55.71875 17.890625 -60.011719 C 18.914062 -64.375 20.558594 -68.203125 22.824219 -71.5 C 25.121094 -74.839844 28.074219 -77.484375 31.6875 -79.4375 C 35.308594 -81.398438 39.6875 -82.378906 44.820312 -82.378906 C 48.703125 -82.378906 52.167969 -81.875 55.222656 -80.863281 C 58.25 -79.863281 60.78125 -78.683594 62.8125 -77.328125 L 61.980469 -76.078125 L 60.832031 -77.046875 L 66.230469 -83.464844 L 67.378906 -82.5 L 66.34375 -81.417969 C 63.617188 -84.027344 60.304688 -86.027344 56.40625 -87.417969 C 52.46875 -88.820312 48.289062 -89.519531 43.859375 -89.519531 C 37.496094 -89.519531 31.996094 -88.371094 27.367188 -86.074219 C 22.730469 -83.777344 18.894531 -80.667969 15.855469 -76.75 C 12.792969 -72.804688 10.519531 -68.214844 9.03125 -62.980469 C 7.53125 -57.695312 6.78125 -52.101562 6.78125 -46.199219 C 6.78125 -39.867188 7.609375 -33.90625 9.269531 -28.328125 C 10.917969 -22.78125 13.296875 -17.9375 16.410156 -13.800781 C 19.496094 -9.695312 23.246094 -6.445312 27.65625 -4.046875 C 32.03125 -1.667969 36.972656 -0.480469 42.480469 -0.480469 C 45.6875 -0.480469 48.675781 -0.796875 51.445312 -1.433594 C 54.222656 -2.066406 56.78125 -2.933594 59.125 -4.027344 C 61.464844 -5.121094 63.609375 -6.425781 65.5625 -7.9375 C 67.53125 -9.460938 69.308594 -11.09375 70.890625 -12.832031 Z M 70.890625 -12.832031 "/></g></g></g><g fill="#000000" fill-opacity="1"><g transform="translate(1106.999304, 1068.506407)"><g><path d="M 25.5 -36.839844 L 25.5 1.5 L 9.898438 1.5 L 9.898438 -77.398438 L 11.398438 -77.398438 L 9.921875 -77.140625 L 7.550781 -90.699219 L 9.121094 -90.890625 C 10.457031 -91.050781 12.0625 -91.214844 13.941406 -91.375 C 15.816406 -91.535156 17.769531 -91.675781 19.800781 -91.796875 C 21.832031 -91.917969 23.871094 -92.019531 25.921875 -92.097656 C 27.980469 -92.179688 29.878906 -92.21875 31.621094 -92.21875 C 36.785156 -92.21875 41.507812 -91.675781 45.789062 -90.582031 C 50.128906 -89.476562 53.851562 -87.832031 56.960938 -85.648438 C 60.117188 -83.429688 62.574219 -80.664062 64.324219 -77.351562 C 66.082031 -74.03125 66.960938 -70.226562 66.960938 -65.941406 C 66.960938 -61.542969 66.273438 -57.65625 64.898438 -54.277344 C 63.519531 -50.878906 61.570312 -47.972656 59.058594 -45.566406 C 56.570312 -43.183594 53.613281 -41.246094 50.1875 -39.753906 C 46.820312 -38.289062 43.136719 -37.203125 39.140625 -36.503906 L 38.878906 -37.980469 L 39.285156 -39.421875 L 48.296875 -36.886719 L 76.972656 1.5 L 59.847656 1.5 L 32.816406 -34.804688 L 34.019531 -35.699219 L 32.839844 -34.773438 C 32.636719 -35.035156 32.441406 -35.179688 32.257812 -35.214844 C 31.785156 -35.296875 31.429688 -35.339844 31.199219 -35.339844 L 24 -35.339844 L 24 -36.839844 Z M 22.5 -38.339844 L 31.199219 -38.339844 C 31.609375 -38.339844 32.136719 -38.28125 32.785156 -38.167969 C 33.71875 -38 34.523438 -37.488281 35.199219 -36.625 L 35.210938 -36.613281 L 61.804688 -0.894531 L 60.601562 0 L 60.601562 -1.5 L 73.980469 -1.5 L 73.980469 0 L 72.777344 0.898438 L 46.199219 -34.683594 L 47.398438 -35.578125 L 46.992188 -34.136719 L 38.472656 -36.535156 L 38.621094 -39.457031 C 42.382812 -40.117188 45.839844 -41.132812 48.992188 -42.503906 C 52.085938 -43.855469 54.75 -45.597656 56.984375 -47.734375 C 59.1875 -49.84375 60.902344 -52.402344 62.121094 -55.40625 C 63.347656 -58.421875 63.960938 -61.933594 63.960938 -65.941406 C 63.960938 -69.730469 63.199219 -73.066406 61.675781 -75.949219 C 60.144531 -78.835938 58 -81.25 55.238281 -83.191406 C 52.429688 -85.167969 49.03125 -86.660156 45.050781 -87.675781 C 41.011719 -88.707031 36.535156 -89.21875 31.621094 -89.21875 C 29.917969 -89.21875 28.058594 -89.179688 26.039062 -89.101562 C 24.007812 -89.023438 21.988281 -88.921875 19.980469 -88.800781 C 17.972656 -88.683594 16.046875 -88.542969 14.199219 -88.386719 C 12.355469 -88.226562 10.785156 -88.070312 9.480469 -87.910156 L 9.300781 -89.398438 L 10.777344 -89.660156 L 12.898438 -77.53125 L 12.898438 0 L 11.398438 0 L 11.398438 -1.5 L 24 -1.5 L 24 0 L 22.5 0 Z M 25.5 -68.820312 L 25.5 -45.898438 L 24 -45.898438 L 24 -47.398438 L 32.878906 -47.398438 C 36.335938 -47.398438 39.316406 -47.878906 41.828125 -48.832031 C 44.308594 -49.777344 46.355469 -51.046875 47.964844 -52.636719 C 49.570312 -54.226562 50.777344 -56.066406 51.578125 -58.167969 C 52.394531 -60.292969 52.800781 -62.566406 52.800781 -64.980469 C 52.800781 -68.117188 52.226562 -70.699219 51.074219 -72.730469 C 49.914062 -74.78125 48.414062 -76.410156 46.578125 -77.617188 C 44.691406 -78.851562 42.582031 -79.722656 40.246094 -80.222656 C 37.828125 -80.742188 35.453125 -81 33.121094 -81 C 32.289062 -81 31.421875 -80.988281 30.511719 -80.96875 C 29.601562 -80.949219 28.695312 -80.921875 27.785156 -80.882812 C 26.902344 -80.84375 26.046875 -80.777344 25.222656 -80.679688 C 24.398438 -80.585938 23.683594 -80.480469 23.078125 -80.367188 L 22.800781 -81.839844 L 24.292969 -81.976562 L 25.5 -68.890625 Z M 22.5 -68.820312 L 24 -68.820312 L 22.507812 -68.683594 L 21.179688 -83.0625 L 22.523438 -83.3125 C 23.199219 -83.441406 23.980469 -83.554688 24.875 -83.660156 C 25.773438 -83.765625 26.699219 -83.835938 27.65625 -83.878906 C 28.585938 -83.917969 29.515625 -83.949219 30.449219 -83.96875 C 31.378906 -83.988281 32.269531 -84 33.121094 -84 C 35.664062 -84 38.25 -83.71875 40.875 -83.15625 C 43.578125 -82.578125 46.027344 -81.566406 48.222656 -80.125 C 50.464844 -78.652344 52.285156 -76.679688 53.683594 -74.210938 C 55.09375 -71.71875 55.800781 -68.644531 55.800781 -64.980469 C 55.800781 -62.195312 55.328125 -59.566406 54.382812 -57.09375 C 53.421875 -54.59375 51.988281 -52.394531 50.074219 -50.503906 C 48.164062 -48.613281 45.769531 -47.125 42.894531 -46.027344 C 40.042969 -44.941406 36.703125 -44.398438 32.878906 -44.398438 L 22.5 -44.398438 Z M 22.5 -68.820312 "/></g></g></g><g fill="#000000" fill-opacity="1"><g transform="translate(1184.999206, 1068.506407)"><g><path d="M 2.292969 -0.464844 L 27.671875 -78.464844 L 29.101562 -78 L 27.621094 -78.257812 L 29.921875 -91.386719 L 45.273438 -92.804688 L 76.167969 1.5 L 61.015625 1.5 L 51.796875 -26.53125 L 53.21875 -27 L 53.21875 -25.5 L 23.519531 -25.5 L 23.519531 -27 L 24.945312 -26.535156 L 15.851562 1.5 L 1.65625 1.5 Z M 5.144531 0.464844 L 3.71875 0 L 3.71875 -1.5 L 14.761719 -1.5 L 14.761719 0 L 13.332031 -0.464844 L 22.429688 -28.5 L 54.304688 -28.5 L 63.523438 -0.46875 L 62.101562 0 L 62.101562 -1.5 L 74.101562 -1.5 L 74.101562 0 L 72.675781 0.46875 L 42.792969 -90.734375 L 44.21875 -91.199219 L 44.359375 -89.707031 L 31.335938 -88.507812 L 31.199219 -90 L 32.675781 -89.742188 L 30.558594 -77.636719 Z M 39.824219 -81.394531 L 37.648438 -65.664062 L 27.886719 -35.539062 L 26.460938 -36 L 26.460938 -37.5 L 50.28125 -37.5 L 50.28125 -36 L 48.855469 -35.535156 L 39.03125 -65.660156 L 36.855469 -81.394531 L 38.339844 -81.601562 Z M 36.855469 -81.804688 L 39.824219 -81.804688 L 41.984375 -66.207031 L 40.5 -66 L 41.925781 -66.464844 L 52.347656 -34.5 L 24.398438 -34.5 L 34.753906 -66.460938 L 36.179688 -66 L 34.695312 -66.207031 Z M 36.855469 -81.804688 "/></g></g></g><g fill="#000000" fill-opacity="1"><g transform="translate(1262.999108, 1068.506407)"><g><path d="M 10.054688 -91.492188 C 11.320312 -91.617188 12.824219 -91.71875 14.570312 -91.796875 C 16.296875 -91.878906 18.074219 -91.949219 19.902344 -92.007812 C 21.730469 -92.070312 23.542969 -92.109375 25.332031 -92.128906 C 27.117188 -92.148438 28.675781 -92.160156 30 -92.160156 C 36.5 -92.160156 42.53125 -91.359375 48.085938 -89.761719 C 53.714844 -88.140625 58.589844 -85.558594 62.71875 -82.019531 C 66.855469 -78.464844 70.089844 -73.917969 72.421875 -68.382812 C 74.742188 -62.875 75.898438 -56.28125 75.898438 -48.601562 C 75.898438 -42.640625 75.324219 -37.273438 74.179688 -32.5 C 73.027344 -27.707031 71.429688 -23.453125 69.382812 -19.738281 C 67.328125 -15.996094 64.847656 -12.78125 61.949219 -10.089844 C 59.066406 -7.414062 55.886719 -5.210938 52.417969 -3.488281 C 48.960938 -1.769531 45.292969 -0.507812 41.40625 0.296875 C 37.542969 1.097656 33.5625 1.5 29.460938 1.5 L 10.5 1.5 L 10.5 -77.398438 L 12 -77.398438 L 10.515625 -77.1875 L 8.492188 -91.34375 Z M 10.34375 -88.507812 L 10.199219 -90 L 11.683594 -90.210938 L 13.5 -77.507812 L 13.5 0 L 12 0 L 12 -1.5 L 29.460938 -1.5 C 33.355469 -1.5 37.136719 -1.878906 40.796875 -2.640625 C 44.429688 -3.390625 47.859375 -4.570312 51.082031 -6.171875 C 54.292969 -7.769531 57.234375 -9.808594 59.910156 -12.289062 C 62.570312 -14.757812 64.851562 -17.722656 66.753906 -21.183594 C 68.671875 -24.664062 70.171875 -28.671875 71.261719 -33.199219 C 72.355469 -37.746094 72.898438 -42.878906 72.898438 -48.601562 C 72.898438 -55.878906 71.820312 -62.085938 69.65625 -67.21875 C 67.507812 -72.320312 64.542969 -76.496094 60.761719 -79.742188 C 56.96875 -83 52.464844 -85.378906 47.253906 -86.878906 C 41.96875 -88.398438 36.21875 -89.160156 30 -89.160156 C 28.6875 -89.160156 27.140625 -89.148438 25.367188 -89.128906 C 23.597656 -89.109375 21.808594 -89.070312 20 -89.011719 C 18.1875 -88.949219 16.421875 -88.882812 14.710938 -88.800781 C 13.015625 -88.722656 11.558594 -88.625 10.34375 -88.507812 Z M 26.101562 -69 L 26.101562 -9.601562 L 24.601562 -9.601562 L 24.601562 -11.101562 L 25.800781 -11.101562 C 31.453125 -11.101562 36.230469 -11.679688 40.132812 -12.839844 C 44.003906 -13.988281 47.195312 -15.5 49.714844 -17.375 C 52.210938 -19.230469 54.15625 -21.359375 55.554688 -23.765625 C 56.988281 -26.230469 58.054688 -28.777344 58.761719 -31.410156 C 59.476562 -34.070312 59.910156 -36.710938 60.0625 -39.328125 C 60.222656 -42.019531 60.300781 -44.507812 60.300781 -46.800781 C 60.300781 -51.777344 59.871094 -56.347656 59.011719 -60.507812 C 58.175781 -64.539062 56.652344 -67.996094 54.433594 -70.875 C 52.238281 -73.71875 49.15625 -75.941406 45.191406 -77.539062 C 41.148438 -79.167969 35.90625 -79.980469 29.460938 -79.980469 C 28.847656 -79.980469 28.195312 -79.960938 27.503906 -79.921875 C 26.816406 -79.882812 26.171875 -79.828125 25.566406 -79.75 C 24.828125 -79.667969 24.054688 -79.589844 23.25 -79.507812 L 23.101562 -81 L 24.589844 -81.1875 L 26.101562 -69.09375 Z M 23.101562 -69 L 24.601562 -69 L 23.113281 -68.8125 L 21.421875 -82.339844 L 22.949219 -82.492188 C 23.746094 -82.570312 24.492188 -82.652344 25.195312 -82.726562 C 25.867188 -82.8125 26.582031 -82.875 27.335938 -82.917969 C 28.085938 -82.960938 28.792969 -82.980469 29.460938 -82.980469 C 36.292969 -82.980469 41.910156 -82.09375 46.308594 -80.320312 C 50.78125 -78.519531 54.28125 -75.980469 56.808594 -72.707031 C 59.308594 -69.464844 61.023438 -65.597656 61.949219 -61.113281 C 62.851562 -56.753906 63.300781 -51.980469 63.300781 -46.800781 C 63.300781 -44.449219 63.21875 -41.902344 63.058594 -39.152344 C 62.890625 -36.332031 62.425781 -33.488281 61.660156 -30.632812 C 60.882812 -27.742188 59.714844 -24.949219 58.148438 -22.257812 C 56.542969 -19.5 54.328125 -17.070312 51.503906 -14.964844 C 48.703125 -12.878906 45.195312 -11.210938 40.988281 -9.960938 C 36.808594 -8.71875 31.746094 -8.101562 25.800781 -8.101562 L 23.101562 -8.101562 Z M 23.101562 -69 "/></g></g></g><g fill="#000000" fill-opacity="1"><g transform="translate(1340.999101, 1068.506407)"><g><path d="M 64.1875 -9.414062 L 62.824219 1.5 L 8.882812 1.5 L 9.902344 -12.113281 L 11.398438 -12 L 9.898438 -12 L 9.898438 -77.398438 L 11.398438 -77.398438 L 9.914062 -77.1875 L 7.871094 -91.5 L 62.101562 -91.5 L 62.101562 -78.898438 L 22.800781 -78.898438 L 22.800781 -80.398438 L 24.292969 -80.558594 L 25.5 -69.078125 L 25.5 -53.101562 L 24 -53.101562 L 24 -54.601562 L 57.898438 -54.601562 L 57.898438 -42.898438 L 24 -42.898438 L 24 -44.398438 L 25.5 -44.398438 L 25.5 -20.359375 L 24.898438 -9.515625 L 23.398438 -9.601562 L 23.398438 -11.101562 L 64.398438 -11.101562 Z M 61.210938 -9.785156 L 62.699219 -9.601562 L 62.699219 -8.101562 L 21.8125 -8.101562 L 22.503906 -20.484375 L 24 -20.398438 L 22.5 -20.398438 L 22.5 -45.898438 L 56.398438 -45.898438 L 56.398438 -44.398438 L 54.898438 -44.398438 L 54.898438 -53.101562 L 56.398438 -53.101562 L 56.398438 -51.601562 L 22.5 -51.601562 L 22.5 -69 L 24 -69 L 22.507812 -68.84375 L 21.132812 -81.898438 L 60.601562 -81.898438 L 60.601562 -80.398438 L 59.101562 -80.398438 L 59.101562 -90 L 60.601562 -90 L 60.601562 -88.5 L 9.601562 -88.5 L 9.601562 -90 L 11.085938 -90.210938 L 12.898438 -77.507812 L 12.898438 -11.945312 L 11.996094 0.113281 L 10.5 0 L 10.5 -1.5 L 61.5 -1.5 L 61.5 0 L 60.011719 -0.1875 Z M 61.210938 -9.785156 "/></g></g></g><g fill="#5cbf3b" fill-opacity="1"><g transform="translate(387.000005, 1068.506407)"><g><path d="M 55.734375 -80.640625 C 55.453125 -80.722656 55.039062 -80.769531 54.5 -80.78125 C 53.96875 -80.800781 53.484375 -80.8125 53.046875 -80.8125 C 50.160156 -80.8125 47.359375 -80.363281 44.640625 -79.46875 C 41.921875 -78.570312 39.359375 -77.300781 36.953125 -75.65625 C 34.554688 -74.019531 32.347656 -72.0625 30.328125 -69.78125 C 28.304688 -67.5 26.523438 -64.988281 24.984375 -62.25 C 23.453125 -59.507812 22.1875 -56.578125 21.1875 -53.453125 C 20.1875 -50.335938 19.523438 -47.117188 19.203125 -43.796875 L 24.1875 -50.8125 C 25.1875 -51.457031 26.351562 -52.066406 27.6875 -52.640625 C 29.03125 -53.222656 30.441406 -53.734375 31.921875 -54.171875 C 33.398438 -54.617188 34.898438 -54.972656 36.421875 -55.234375 C 37.941406 -55.492188 39.378906 -55.625 40.734375 -55.625 C 44.210938 -55.625 47.5625 -55.140625 50.78125 -54.171875 C 54.007812 -53.210938 56.875 -51.734375 59.375 -49.734375 C 61.875 -47.734375 63.875 -45.160156 65.375 -42.015625 C 66.875 -38.878906 67.625 -35.132812 67.625 -30.78125 C 67.625 -26.457031 66.890625 -22.363281 65.421875 -18.5 C 63.960938 -14.644531 61.910156 -11.265625 59.265625 -8.359375 C 56.628906 -5.460938 53.472656 -3.175781 49.796875 -1.5 C 46.117188 0.175781 42.039062 1.015625 37.5625 1.015625 C 33.644531 1.015625 30.175781 0.382812 27.15625 -0.875 C 24.132812 -2.132812 21.503906 -3.800781 19.265625 -5.875 C 17.023438 -7.957031 15.15625 -10.335938 13.65625 -13.015625 C 12.15625 -15.703125 10.929688 -18.453125 9.984375 -21.265625 C 9.046875 -24.085938 8.375 -26.878906 7.96875 -29.640625 C 7.570312 -32.398438 7.375 -34.921875 7.375 -37.203125 C 7.375 -41.960938 7.863281 -46.601562 8.84375 -51.125 C 9.820312 -55.644531 11.242188 -59.894531 13.109375 -63.875 C 14.972656 -67.851562 17.242188 -71.507812 19.921875 -74.84375 C 22.597656 -78.1875 25.644531 -81.046875 29.0625 -83.421875 C 32.488281 -85.804688 36.25 -87.664062 40.34375 -89 C 44.445312 -90.34375 48.859375 -91.015625 53.578125 -91.015625 C 54.179688 -91.015625 54.84375 -91.003906 55.5625 -90.984375 C 56.28125 -90.960938 56.835938 -90.914062 57.234375 -90.84375 Z M 19.734375 -35.8125 C 19.734375 -34.695312 19.742188 -33.675781 19.765625 -32.75 C 19.785156 -31.832031 19.84375 -30.929688 19.9375 -30.046875 C 20.039062 -29.171875 20.171875 -28.285156 20.328125 -27.390625 C 20.492188 -26.492188 20.71875 -25.503906 21 -24.421875 C 21.5625 -22.140625 22.320312 -20.066406 23.28125 -18.203125 C 24.238281 -16.347656 25.40625 -14.75 26.78125 -13.40625 C 28.164062 -12.070312 29.765625 -11.035156 31.578125 -10.296875 C 33.398438 -9.554688 35.453125 -9.1875 37.734375 -9.1875 C 40.898438 -9.1875 43.59375 -9.785156 45.8125 -10.984375 C 48.03125 -12.179688 49.835938 -13.769531 51.234375 -15.75 C 52.640625 -17.726562 53.671875 -19.976562 54.328125 -22.5 C 54.984375 -25.019531 55.3125 -27.582031 55.3125 -30.1875 C 55.3125 -32.695312 54.941406 -34.910156 54.203125 -36.828125 C 53.460938 -38.753906 52.410156 -40.347656 51.046875 -41.609375 C 49.691406 -42.867188 48.0625 -43.816406 46.15625 -44.453125 C 44.257812 -45.097656 42.15625 -45.421875 39.84375 -45.421875 C 37.675781 -45.421875 35.570312 -45.160156 33.53125 -44.640625 C 31.5 -44.117188 29.59375 -43.414062 27.8125 -42.53125 C 26.03125 -41.65625 24.445312 -40.632812 23.0625 -39.46875 C 21.6875 -38.3125 20.578125 -37.09375 19.734375 -35.8125 Z M 19.734375 -35.8125 "/></g></g></g><g fill="#5cbf3b" fill-opacity="1"><g transform="translate(464.99993, 1068.506407)"><g><path d="M 29.703125 0 L 29.703125 -80.40625 L 4.796875 -80.40625 L 4.796875 -90 L 66.90625 -90 L 66.90625 -80.40625 L 42.296875 -80.40625 L 42.296875 0 Z M 29.703125 0 "/></g></g></g><g fill="#5cbf3b" fill-opacity="1"><g transform="translate(536.999855, 1068.506407)"><g><path d="M 60.90625 0 L 60.90625 -43.5 L 23.09375 -43.5 L 23.09375 0 L 10.796875 0 L 10.796875 -77.40625 L 9.0625 -90 L 23.09375 -91.203125 L 23.09375 -53.09375 L 60.90625 -53.09375 L 60.90625 -90.125 L 73.203125 -91.203125 L 73.203125 0 Z M 60.90625 0 "/></g></g></g><g fill="#5cbf3b" fill-opacity="1"><g transform="translate(620.999756, 1068.506407)"><g><path d="M 12 -36 L 42 -36 L 42 -26.703125 L 12 -26.703125 Z M 12 -36 "/></g></g></g><g fill="#5cbf3b" fill-opacity="1"><g transform="translate(674.999706, 1068.506407)"><g><path d="M 21 0 L 21 -9.59375 L 35.703125 -9.59375 L 35.703125 -67.5625 L 39.1875 -81.1875 L 31.015625 -70.015625 L 18.296875 -58.734375 L 11.8125 -66 L 39.296875 -91.203125 L 48.296875 -90 L 48.296875 -9.59375 L 63 -9.59375 L 63 0 Z M 21 0 "/></g></g></g><g fill="#5cbf3b" fill-opacity="1"><g transform="translate(752.999654, 1068.506407)"><g><path d="M 9.125 0 L 9.125 -10.078125 C 11.039062 -13.117188 13.109375 -16.109375 15.328125 -19.046875 C 17.546875 -21.984375 19.785156 -24.820312 22.046875 -27.5625 C 24.304688 -30.3125 26.535156 -32.914062 28.734375 -35.375 C 30.941406 -37.832031 32.960938 -40.082031 34.796875 -42.125 C 36.835938 -44.363281 38.773438 -46.472656 40.609375 -48.453125 C 42.453125 -50.429688 44.070312 -52.398438 45.46875 -54.359375 C 46.875 -56.316406 47.992188 -58.304688 48.828125 -60.328125 C 49.671875 -62.347656 50.09375 -64.539062 50.09375 -66.90625 C 50.09375 -68.820312 49.734375 -70.628906 49.015625 -72.328125 C 48.296875 -74.023438 47.285156 -75.503906 45.984375 -76.765625 C 44.691406 -78.023438 43.144531 -79.023438 41.34375 -79.765625 C 39.539062 -80.503906 37.5625 -80.875 35.40625 -80.875 C 32.957031 -80.875 30.84375 -80.546875 29.0625 -79.890625 C 27.289062 -79.234375 25.734375 -78.363281 24.390625 -77.28125 C 23.046875 -76.195312 21.882812 -74.984375 20.90625 -73.640625 C 19.925781 -72.304688 19.019531 -70.957031 18.1875 -69.59375 L 9.71875 -73.203125 C 10.757812 -75.796875 12.085938 -78.179688 13.703125 -80.359375 C 15.328125 -82.546875 17.238281 -84.425781 19.4375 -86 C 21.632812 -87.582031 24.132812 -88.8125 26.9375 -89.6875 C 29.738281 -90.570312 32.859375 -91.015625 36.296875 -91.015625 C 40.335938 -91.015625 43.9375 -90.296875 47.09375 -88.859375 C 50.257812 -87.421875 52.929688 -85.53125 55.109375 -83.1875 C 57.285156 -80.851562 58.941406 -78.203125 60.078125 -75.234375 C 61.222656 -72.273438 61.796875 -69.273438 61.796875 -66.234375 C 61.796875 -63.160156 61.222656 -60.234375 60.078125 -57.453125 C 58.941406 -54.671875 57.523438 -52.03125 55.828125 -49.53125 C 54.128906 -47.03125 52.300781 -44.679688 50.34375 -42.484375 C 48.382812 -40.285156 46.582031 -38.222656 44.9375 -36.296875 C 42.851562 -33.859375 40.769531 -31.457031 38.6875 -29.09375 C 36.613281 -26.738281 34.625 -24.429688 32.71875 -22.171875 C 30.820312 -19.910156 29.050781 -17.726562 27.40625 -15.625 C 25.769531 -13.53125 24.351562 -11.519531 23.15625 -9.59375 L 63.359375 -9.59375 L 63.359375 0 Z M 9.125 0 "/></g></g></g><g fill="#5cbf3b" fill-opacity="1"><g transform="translate(830.999556, 1068.506407)"><g><path d="M 29.703125 0 L 29.703125 -80.40625 L 4.796875 -80.40625 L 4.796875 -90 L 66.90625 -90 L 66.90625 -80.40625 L 42.296875 -80.40625 L 42.296875 0 Z M 29.703125 0 "/></g></g></g><g fill="#5cbf3b" fill-opacity="1"><g transform="translate(902.999504, 1068.506407)"><g><path d="M 60.90625 0 L 60.90625 -43.5 L 23.09375 -43.5 L 23.09375 0 L 10.796875 0 L 10.796875 -77.40625 L 9.0625 -90 L 23.09375 -91.203125 L 23.09375 -53.09375 L 60.90625 -53.09375 L 60.90625 -90.125 L 73.203125 -91.203125 L 73.203125 0 Z M 60.90625 0 "/></g></g></g><g fill="#5cbf3b" fill-opacity="1"><g transform="translate(1028.999356, 1068.506407)"><g><path d="M 72 -11.8125 C 70.363281 -10.019531 68.523438 -8.332031 66.484375 -6.75 C 64.441406 -5.164062 62.195312 -3.800781 59.75 -2.65625 C 57.3125 -1.519531 54.648438 -0.625 51.765625 0.03125 C 48.890625 0.6875 45.796875 1.015625 42.484375 1.015625 C 36.722656 1.015625 31.539062 -0.234375 26.9375 -2.734375 C 22.34375 -5.234375 18.429688 -8.617188 15.203125 -12.890625 C 11.984375 -17.171875 9.523438 -22.171875 7.828125 -27.890625 C 6.128906 -33.617188 5.28125 -39.722656 5.28125 -46.203125 C 5.28125 -52.242188 6.050781 -57.972656 7.59375 -63.390625 C 9.132812 -68.804688 11.492188 -73.5625 14.671875 -77.65625 C 17.847656 -81.757812 21.851562 -85.007812 26.6875 -87.40625 C 31.53125 -89.8125 37.253906 -91.015625 43.859375 -91.015625 C 48.460938 -91.015625 52.8125 -90.285156 56.90625 -88.828125 C 61.007812 -87.367188 64.5 -85.257812 67.375 -82.5 L 61.984375 -76.078125 C 60.054688 -77.359375 57.644531 -78.476562 54.75 -79.4375 C 51.851562 -80.394531 48.539062 -80.875 44.8125 -80.875 C 39.9375 -80.875 35.796875 -79.953125 32.390625 -78.109375 C 28.992188 -76.273438 26.210938 -73.785156 24.046875 -70.640625 C 21.890625 -67.503906 20.320312 -63.847656 19.34375 -59.671875 C 18.363281 -55.492188 17.875 -51.0625 17.875 -46.375 C 17.875 -43.613281 18.09375 -40.785156 18.53125 -37.890625 C 18.976562 -34.992188 19.648438 -32.164062 20.546875 -29.40625 C 21.453125 -26.644531 22.613281 -24.039062 24.03125 -21.59375 C 25.445312 -19.15625 27.125 -17.015625 29.0625 -15.171875 C 31.007812 -13.335938 33.222656 -11.878906 35.703125 -10.796875 C 38.179688 -9.722656 40.960938 -9.1875 44.046875 -9.1875 C 45.835938 -9.1875 47.570312 -9.375 49.25 -9.75 C 50.9375 -10.125 52.5 -10.613281 53.9375 -11.21875 C 55.375 -11.820312 56.660156 -12.492188 57.796875 -13.234375 C 58.941406 -13.972656 59.875 -14.722656 60.59375 -15.484375 L 60.59375 -38.703125 L 42 -39.90625 L 42 -48.296875 L 72 -48.296875 Z M 72 -11.8125 "/></g></g></g><g fill="#5cbf3b" fill-opacity="1"><g transform="translate(1106.999304, 1068.506407)"><g><path d="M 24 -36.84375 L 24 0 L 11.40625 0 L 11.40625 -77.40625 L 9.296875 -89.40625 C 10.617188 -89.5625 12.207031 -89.71875 14.0625 -89.875 C 15.925781 -90.039062 17.867188 -90.179688 19.890625 -90.296875 C 21.910156 -90.421875 23.941406 -90.519531 25.984375 -90.59375 C 28.023438 -90.675781 29.90625 -90.71875 31.625 -90.71875 C 36.664062 -90.71875 41.265625 -90.1875 45.421875 -89.125 C 49.578125 -88.070312 53.132812 -86.503906 56.09375 -84.421875 C 59.0625 -82.335938 61.363281 -79.742188 63 -76.640625 C 64.632812 -73.546875 65.453125 -69.976562 65.453125 -65.9375 C 65.453125 -61.738281 64.800781 -58.039062 63.5 -54.84375 C 62.207031 -51.644531 60.378906 -48.914062 58.015625 -46.65625 C 55.660156 -44.394531 52.851562 -42.550781 49.59375 -41.125 C 46.332031 -39.707031 42.757812 -38.660156 38.875 -37.984375 L 47.40625 -35.578125 L 73.984375 0 L 60.59375 0 L 34.015625 -35.703125 C 33.578125 -36.265625 33.078125 -36.59375 32.515625 -36.6875 C 31.960938 -36.789062 31.523438 -36.84375 31.203125 -36.84375 Z M 24 -68.8125 L 24 -45.90625 L 32.875 -45.90625 C 36.519531 -45.90625 39.679688 -46.410156 42.359375 -47.421875 C 45.035156 -48.441406 47.253906 -49.820312 49.015625 -51.5625 C 50.773438 -53.3125 52.09375 -55.332031 52.96875 -57.625 C 53.851562 -59.925781 54.296875 -62.378906 54.296875 -64.984375 C 54.296875 -68.378906 53.65625 -71.207031 52.375 -73.46875 C 51.09375 -75.726562 49.429688 -77.523438 47.390625 -78.859375 C 45.359375 -80.203125 43.082031 -81.144531 40.5625 -81.6875 C 38.039062 -82.226562 35.5625 -82.5 33.125 -82.5 C 32.28125 -82.5 31.394531 -82.488281 30.46875 -82.46875 C 29.550781 -82.445312 28.632812 -82.414062 27.71875 -82.375 C 26.800781 -82.332031 25.910156 -82.257812 25.046875 -82.15625 C 24.191406 -82.0625 23.441406 -81.957031 22.796875 -81.84375 Z M 24 -68.8125 "/></g></g></g><g fill="#5cbf3b" fill-opacity="1"><g transform="translate(1184.999206, 1068.506407)"><g><path d="M 3.71875 0 L 29.09375 -78 L 31.203125 -90 L 44.21875 -91.203125 L 74.09375 0 L 62.09375 0 L 53.21875 -27 L 23.515625 -27 L 14.765625 0 Z M 38.34375 -81.59375 L 36.1875 -66 L 26.453125 -36 L 50.28125 -36 L 40.5 -66 Z M 38.34375 -81.59375 "/></g></g></g><g fill="#5cbf3b" fill-opacity="1"><g transform="translate(1262.999108, 1068.506407)"><g><path d="M 10.203125 -90 C 11.441406 -90.125 12.921875 -90.222656 14.640625 -90.296875 C 16.359375 -90.378906 18.128906 -90.445312 19.953125 -90.5 C 21.773438 -90.5625 23.570312 -90.601562 25.34375 -90.625 C 27.125 -90.644531 28.675781 -90.65625 30 -90.65625 C 36.363281 -90.65625 42.253906 -89.875 47.671875 -88.3125 C 53.085938 -86.757812 57.773438 -84.28125 61.734375 -80.875 C 65.703125 -77.476562 68.804688 -73.117188 71.046875 -67.796875 C 73.285156 -62.472656 74.40625 -56.070312 74.40625 -48.59375 C 74.40625 -42.757812 73.84375 -37.507812 72.71875 -32.84375 C 71.601562 -28.1875 70.050781 -24.054688 68.0625 -20.453125 C 66.082031 -16.859375 63.703125 -13.769531 60.921875 -11.1875 C 58.148438 -8.601562 55.09375 -6.484375 51.75 -4.828125 C 48.40625 -3.171875 44.851562 -1.953125 41.09375 -1.171875 C 37.332031 -0.390625 33.453125 0 29.453125 0 L 12 0 L 12 -77.40625 Z M 24.59375 -69 L 24.59375 -9.59375 L 25.796875 -9.59375 C 31.597656 -9.59375 36.519531 -10.191406 40.5625 -11.390625 C 44.601562 -12.597656 47.953125 -14.191406 50.609375 -16.171875 C 53.265625 -18.148438 55.34375 -20.425781 56.84375 -23 C 58.34375 -25.582031 59.460938 -28.253906 60.203125 -31.015625 C 60.941406 -33.773438 61.390625 -36.515625 61.546875 -39.234375 C 61.710938 -41.953125 61.796875 -44.472656 61.796875 -46.796875 C 61.796875 -51.878906 61.351562 -56.550781 60.46875 -60.8125 C 59.59375 -65.070312 57.972656 -68.726562 55.609375 -71.78125 C 53.253906 -74.84375 49.96875 -77.222656 45.75 -78.921875 C 41.53125 -80.628906 36.097656 -81.484375 29.453125 -81.484375 C 28.816406 -81.484375 28.140625 -81.460938 27.421875 -81.421875 C 26.703125 -81.378906 26.019531 -81.316406 25.375 -81.234375 C 24.65625 -81.160156 23.894531 -81.082031 23.09375 -81 Z M 24.59375 -69 "/></g></g><g transform="translate(1340.999101, 1068.506407)"><g><path d="M 62.703125 -9.59375 L 61.5 0 L 10.5 0 L 11.40625 -12 L 11.40625 -77.40625 L 9.59375 -90 L 60.59375 -90 L 60.59375 -80.40625 L 22.796875 -80.40625 L 24 -69 L 24 -53.09375 L 56.40625 -53.09375 L 56.40625 -44.40625 L 24 -44.40625 L 24 -20.40625 L 23.40625 -9.59375 Z M 62.703125 -9.59375 "/></g></g></g><g clip-path="url(#6e877e6f03)"><path fill="#5cbf3b" d="M 1523.390625 875.742188 C 1523.464844 916.824219 1524.105469 948.445312 1524.746094 980.089844 C 1525.382812 1012.089844 1526.023438 1044.085938 1526.097656 1085.789062 C 1526.144531 1110.34375 1524.722656 1135.800781 1507.296875 1153.457031 C 1486.539062 1174.476562 1456.445312 1178.011719 1435.625 1178.855469 C 1388.554688 1180.71875 1340.613281 1180.8125 1294.238281 1180.902344 C 1278.476562 1180.941406 1262.726562 1180.980469 1246.992188 1181.074219 L 1246.878906 1161.820312 C 1262.632812 1161.726562 1278.410156 1161.6875 1294.203125 1161.652344 C 1340.386719 1161.558594 1388.160156 1161.464844 1434.855469 1159.601562 C 1462.773438 1158.496094 1481.4375 1152.234375 1493.589844 1139.917969 C 1505.886719 1127.472656 1506.882812 1106.378906 1506.84375 1085.828125 C 1506.769531 1044.257812 1506.128906 1012.367188 1505.492188 980.464844 C 1504.851562 948.726562 1504.214844 916.988281 1504.136719 875.777344 L 1523.390625 875.742188 " fill-opacity="1" fill-rule="nonzero"/></g><g clip-path="url(#39b089d622)"><path fill="#5cbf3b" d="M 1302.222656 1125.292969 L 1311.601562 1142.097656 C 1311.214844 1142.304688 1279 1160.335938 1258.171875 1175.902344 C 1275.570312 1186.976562 1294.183594 1195.964844 1313.640625 1202.695312 L 1307.34375 1220.894531 C 1282.160156 1212.171875 1258.300781 1199.929688 1236.445312 1184.511719 L 1226.628906 1177.597656 L 1235.523438 1169.527344 C 1255.378906 1151.5 1300.320312 1126.34375 1302.222656 1125.292969 " fill-opacity="1" fill-rule="nonzero"/></g></svg>