<?xml version="1.0" encoding="UTF-8"?><svg id="a" xmlns="http://www.w3.org/2000/svg" viewBox="0 0 100 100"><defs><style>.b{fill:#5cbf3b;}.c{fill:#192337;}.d{fill:#f0f2ed;}</style></defs><rect class="c" x="0" y="0" width="100" height="100" rx="50" ry="50"/><path class="d" d="M50.42,43.57h21.22l-3.03,5.35h-12.84v41.18l-5.35,3.02v-49.55ZM50.42,39.72V11.24s5.35-3.03,5.35-3.03v26.15h21.07l-3.03,5.35h-23.4ZM39.69,39.72l-.06-.06c-.47-.43-.89-.81-1.29-1.16-.76-.67-1.45-1.3-2.02-1.86-.46-.45-.94-1.02-1.43-1.69l-.42-.58h6.37v-17.7l5.35-3.02v26.08h-6.49Z"/><path class="b" d="M46.16,79.89c-.29-.31-5.96-6.46-11.08-9.8-1.71-1.12-3.07-1.9-4.26-2.59-2.4-1.38-4.13-2.37-6.52-4.95-3.33-3.59-5.06-8.68-4.99-14.71.06-5.56,1.55-10.72,4.68-16.24,1.06-1.88,3.17-5.84,3.59-6.61h0s.14-.01.14-.01c.32,1.16,3.63,9.38,7.27,13.01.61.61,1.33,1.25,2.1,1.94,3.88,3.46,9.19,8.2,9.19,16.28v14.48h-.02l-.03-.04c-2.36-4.36-5.69-9.01-9.87-13.77-5.06-5.19-8.63-10.05-9.63-16.94l-.88.06c-.03,3.55.75,7.03,2.26,10.06,1.33,2.86,3.3,5.36,5.21,7.77.95,1.2,1.91,2.42,2.79,3.67l.86,1.26c3.59,5.2,7.65,11.1,9.3,17.15h-.1Z"/></svg>